%TF.GenerationSoftware,KiCad,Pcbnew,8.0.1*%
%TF.CreationDate,2024-07-06T10:32:20+03:00*%
%TF.ProjectId,led_tester,6c65645f-7465-4737-9465-722e6b696361,rev?*%
%TF.SameCoordinates,Original*%
%TF.FileFunction,Soldermask,Top*%
%TF.FilePolarity,Negative*%
%FSLAX46Y46*%
G04 Gerber Fmt 4.6, Leading zero omitted, Abs format (unit mm)*
G04 Created by KiCad (PCBNEW 8.0.1) date 2024-07-06 10:32:20*
%MOMM*%
%LPD*%
G01*
G04 APERTURE LIST*
G04 Aperture macros list*
%AMRoundRect*
0 Rectangle with rounded corners*
0 $1 Rounding radius*
0 $2 $3 $4 $5 $6 $7 $8 $9 X,Y pos of 4 corners*
0 Add a 4 corners polygon primitive as box body*
4,1,4,$2,$3,$4,$5,$6,$7,$8,$9,$2,$3,0*
0 Add four circle primitives for the rounded corners*
1,1,$1+$1,$2,$3*
1,1,$1+$1,$4,$5*
1,1,$1+$1,$6,$7*
1,1,$1+$1,$8,$9*
0 Add four rect primitives between the rounded corners*
20,1,$1+$1,$2,$3,$4,$5,0*
20,1,$1+$1,$4,$5,$6,$7,0*
20,1,$1+$1,$6,$7,$8,$9,0*
20,1,$1+$1,$8,$9,$2,$3,0*%
G04 Aperture macros list end*
%ADD10R,2.500000X1.100000*%
%ADD11RoundRect,0.250000X0.450000X-0.350000X0.450000X0.350000X-0.450000X0.350000X-0.450000X-0.350000X0*%
%ADD12RoundRect,0.250000X-0.450000X0.350000X-0.450000X-0.350000X0.450000X-0.350000X0.450000X0.350000X0*%
%ADD13R,1.700000X1.700000*%
%ADD14O,1.700000X1.700000*%
G04 APERTURE END LIST*
D10*
%TO.C,D7*%
X87400000Y-58300000D03*
X87400000Y-60000000D03*
X87400000Y-61700000D03*
X92600000Y-61700000D03*
X92600000Y-60000000D03*
X92600000Y-58300000D03*
%TD*%
%TO.C,D4*%
X122600000Y-61700000D03*
X122600000Y-60000000D03*
X122600000Y-58300000D03*
X117400000Y-58300000D03*
X117400000Y-60000000D03*
X117400000Y-61700000D03*
%TD*%
%TO.C,D2*%
X122600000Y-31700000D03*
X122600000Y-30000000D03*
X122600000Y-28300000D03*
X117400000Y-28300000D03*
X117400000Y-30000000D03*
X117400000Y-31700000D03*
%TD*%
%TO.C,D1*%
X87400000Y-28300000D03*
X87400000Y-30000000D03*
X87400000Y-31700000D03*
X92600000Y-31700000D03*
X92600000Y-30000000D03*
X92600000Y-28300000D03*
%TD*%
D11*
%TO.C,R5*%
X111500000Y-34500000D03*
X111500000Y-32500000D03*
%TD*%
D12*
%TO.C,R8*%
X111500000Y-56000000D03*
X111500000Y-58000000D03*
%TD*%
D11*
%TO.C,R4*%
X98500000Y-34500000D03*
X98500000Y-32500000D03*
%TD*%
D12*
%TO.C,R1*%
X98500000Y-56000000D03*
X98500000Y-58000000D03*
%TD*%
D11*
%TO.C,R6*%
X114000000Y-34500000D03*
X114000000Y-32500000D03*
%TD*%
D13*
%TO.C,J2*%
X113275000Y-46500000D03*
D14*
X110735000Y-46500000D03*
%TD*%
D11*
%TO.C,R3*%
X96000000Y-34500000D03*
X96000000Y-32500000D03*
%TD*%
D13*
%TO.C,J1*%
X113275000Y-42500000D03*
D14*
X110735000Y-42500000D03*
%TD*%
D12*
%TO.C,R2*%
X96000000Y-56000000D03*
X96000000Y-58000000D03*
%TD*%
D13*
%TO.C,J3*%
X117500000Y-42960000D03*
D14*
X117500000Y-45500000D03*
%TD*%
D12*
%TO.C,R7*%
X114000000Y-56000000D03*
X114000000Y-58000000D03*
%TD*%
M02*
