%TF.GenerationSoftware,KiCad,Pcbnew,8.0.1*%
%TF.CreationDate,2024-07-06T10:32:20+03:00*%
%TF.ProjectId,led_tester,6c65645f-7465-4737-9465-722e6b696361,rev?*%
%TF.SameCoordinates,Original*%
%TF.FileFunction,Copper,L1,Top*%
%TF.FilePolarity,Positive*%
%FSLAX46Y46*%
G04 Gerber Fmt 4.6, Leading zero omitted, Abs format (unit mm)*
G04 Created by KiCad (PCBNEW 8.0.1) date 2024-07-06 10:32:20*
%MOMM*%
%LPD*%
G01*
G04 APERTURE LIST*
G04 Aperture macros list*
%AMRoundRect*
0 Rectangle with rounded corners*
0 $1 Rounding radius*
0 $2 $3 $4 $5 $6 $7 $8 $9 X,Y pos of 4 corners*
0 Add a 4 corners polygon primitive as box body*
4,1,4,$2,$3,$4,$5,$6,$7,$8,$9,$2,$3,0*
0 Add four circle primitives for the rounded corners*
1,1,$1+$1,$2,$3*
1,1,$1+$1,$4,$5*
1,1,$1+$1,$6,$7*
1,1,$1+$1,$8,$9*
0 Add four rect primitives between the rounded corners*
20,1,$1+$1,$2,$3,$4,$5,0*
20,1,$1+$1,$4,$5,$6,$7,0*
20,1,$1+$1,$6,$7,$8,$9,0*
20,1,$1+$1,$8,$9,$2,$3,0*%
G04 Aperture macros list end*
%TA.AperFunction,SMDPad,CuDef*%
%ADD10R,2.500000X1.100000*%
%TD*%
%TA.AperFunction,SMDPad,CuDef*%
%ADD11RoundRect,0.250000X0.450000X-0.350000X0.450000X0.350000X-0.450000X0.350000X-0.450000X-0.350000X0*%
%TD*%
%TA.AperFunction,SMDPad,CuDef*%
%ADD12RoundRect,0.250000X-0.450000X0.350000X-0.450000X-0.350000X0.450000X-0.350000X0.450000X0.350000X0*%
%TD*%
%TA.AperFunction,ComponentPad*%
%ADD13R,1.700000X1.700000*%
%TD*%
%TA.AperFunction,ComponentPad*%
%ADD14O,1.700000X1.700000*%
%TD*%
%TA.AperFunction,ViaPad*%
%ADD15C,4.200000*%
%TD*%
%TA.AperFunction,ViaPad*%
%ADD16C,1.800000*%
%TD*%
%TA.AperFunction,Conductor*%
%ADD17C,0.800000*%
%TD*%
G04 APERTURE END LIST*
D10*
%TO.P,D7,1,BA*%
%TO.N,unconnected-(D7-BA-Pad1)*%
X87400000Y-58300000D03*
%TO.P,D7,2,RA*%
%TO.N,/VCC*%
X87400000Y-60000000D03*
%TO.P,D7,3,GA*%
X87400000Y-61700000D03*
%TO.P,D7,4,GK*%
%TO.N,Net-(D7-GK)*%
X92600000Y-61700000D03*
%TO.P,D7,5,RK*%
%TO.N,Net-(D7-RK)*%
X92600000Y-60000000D03*
%TO.P,D7,6,BK*%
%TO.N,unconnected-(D7-BK-Pad6)*%
X92600000Y-58300000D03*
%TD*%
%TO.P,D4,1,BA*%
%TO.N,unconnected-(D4-BA-Pad1)*%
X122600000Y-61700000D03*
%TO.P,D4,2,RA*%
%TO.N,/VCC*%
X122600000Y-60000000D03*
%TO.P,D4,3,GA*%
X122600000Y-58300000D03*
%TO.P,D4,4,GK*%
%TO.N,Net-(D4-GK)*%
X117400000Y-58300000D03*
%TO.P,D4,5,RK*%
%TO.N,Net-(D4-RK)*%
X117400000Y-60000000D03*
%TO.P,D4,6,BK*%
%TO.N,unconnected-(D4-BK-Pad6)*%
X117400000Y-61700000D03*
%TD*%
%TO.P,D2,1,BA*%
%TO.N,unconnected-(D2-BA-Pad1)*%
X122600000Y-31700000D03*
%TO.P,D2,2,RA*%
%TO.N,/VCC*%
X122600000Y-30000000D03*
%TO.P,D2,3,GA*%
X122600000Y-28300000D03*
%TO.P,D2,4,GK*%
%TO.N,Net-(D2-GK)*%
X117400000Y-28300000D03*
%TO.P,D2,5,RK*%
%TO.N,Net-(D2-RK)*%
X117400000Y-30000000D03*
%TO.P,D2,6,BK*%
%TO.N,unconnected-(D2-BK-Pad6)*%
X117400000Y-31700000D03*
%TD*%
%TO.P,D1,1,BA*%
%TO.N,unconnected-(D1-BA-Pad1)*%
X87400000Y-28300000D03*
%TO.P,D1,2,RA*%
%TO.N,/VCC*%
X87400000Y-30000000D03*
%TO.P,D1,3,GA*%
X87400000Y-31700000D03*
%TO.P,D1,4,GK*%
%TO.N,Net-(D1-GK)*%
X92600000Y-31700000D03*
%TO.P,D1,5,RK*%
%TO.N,Net-(D1-RK)*%
X92600000Y-30000000D03*
%TO.P,D1,6,BK*%
%TO.N,unconnected-(D1-BK-Pad6)*%
X92600000Y-28300000D03*
%TD*%
D11*
%TO.P,R5,1*%
%TO.N,/RED*%
X111500000Y-34500000D03*
%TO.P,R5,2*%
%TO.N,Net-(D2-GK)*%
X111500000Y-32500000D03*
%TD*%
D12*
%TO.P,R8,1*%
%TO.N,/GR*%
X111500000Y-56000000D03*
%TO.P,R8,2*%
%TO.N,Net-(D4-RK)*%
X111500000Y-58000000D03*
%TD*%
D11*
%TO.P,R4,1*%
%TO.N,/GR*%
X98500000Y-34500000D03*
%TO.P,R4,2*%
%TO.N,Net-(D1-RK)*%
X98500000Y-32500000D03*
%TD*%
D12*
%TO.P,R1,1*%
%TO.N,/RED*%
X98500000Y-56000000D03*
%TO.P,R1,2*%
%TO.N,Net-(D7-GK)*%
X98500000Y-58000000D03*
%TD*%
D11*
%TO.P,R6,1*%
%TO.N,/GR*%
X114000000Y-34500000D03*
%TO.P,R6,2*%
%TO.N,Net-(D2-RK)*%
X114000000Y-32500000D03*
%TD*%
D13*
%TO.P,J2,1,Pin_1*%
%TO.N,GND*%
X113275000Y-46500000D03*
D14*
%TO.P,J2,2,Pin_2*%
%TO.N,/GR1*%
X110735000Y-46500000D03*
%TD*%
D11*
%TO.P,R3,1*%
%TO.N,/RED*%
X96000000Y-34500000D03*
%TO.P,R3,2*%
%TO.N,Net-(D1-GK)*%
X96000000Y-32500000D03*
%TD*%
D13*
%TO.P,J1,1,Pin_1*%
%TO.N,GND*%
X113275000Y-42500000D03*
D14*
%TO.P,J1,2,Pin_2*%
%TO.N,/RED1*%
X110735000Y-42500000D03*
%TD*%
D12*
%TO.P,R2,1*%
%TO.N,/GR*%
X96000000Y-56000000D03*
%TO.P,R2,2*%
%TO.N,Net-(D7-RK)*%
X96000000Y-58000000D03*
%TD*%
D13*
%TO.P,J3,1,Pin_1*%
%TO.N,GND*%
X117500000Y-42960000D03*
D14*
%TO.P,J3,2,Pin_2*%
%TO.N,/VCC*%
X117500000Y-45500000D03*
%TD*%
D12*
%TO.P,R7,1*%
%TO.N,/RED*%
X114000000Y-56000000D03*
%TO.P,R7,2*%
%TO.N,Net-(D4-GK)*%
X114000000Y-58000000D03*
%TD*%
D15*
%TO.N,*%
X105500000Y-60250000D03*
X105500000Y-30000000D03*
D16*
%TO.N,/GR*%
X101500000Y-46500000D03*
X96000000Y-46500000D03*
X105500000Y-38000000D03*
X114000000Y-38000000D03*
X105500000Y-56000000D03*
X105500000Y-44500000D03*
X105500000Y-49500000D03*
%TD*%
D17*
%TO.N,Net-(D1-GK)*%
X95200000Y-31700000D02*
X96000000Y-32500000D01*
X92400000Y-31700000D02*
X95200000Y-31700000D01*
%TO.N,/VCC*%
X90000000Y-29500000D02*
X90000000Y-27000000D01*
X91000000Y-64000000D02*
X119000000Y-64000000D01*
X119000000Y-64000000D02*
X120000000Y-63000000D01*
X120700000Y-28300000D02*
X120000000Y-29000000D01*
X120000000Y-60500000D02*
X120500000Y-60000000D01*
X90000000Y-61000000D02*
X90000000Y-63000000D01*
X122400000Y-60000000D02*
X122400000Y-55400000D01*
X122400000Y-55400000D02*
X121000000Y-54000000D01*
X117500000Y-45500000D02*
X120000000Y-45500000D01*
X120000000Y-45500000D02*
X120000000Y-53000000D01*
X87600000Y-30000000D02*
X89500000Y-30000000D01*
X90000000Y-63000000D02*
X91000000Y-64000000D01*
X120000000Y-63000000D02*
X120000000Y-60500000D01*
X120500000Y-60000000D02*
X122400000Y-60000000D01*
X87600000Y-52600000D02*
X90000000Y-55000000D01*
X120000000Y-27000000D02*
X120000000Y-29000000D01*
X90000000Y-27000000D02*
X91000000Y-26000000D01*
X120000000Y-53000000D02*
X121000000Y-54000000D01*
X87600000Y-60000000D02*
X90000000Y-60000000D01*
X87600000Y-30000000D02*
X87600000Y-52600000D01*
X122400000Y-28300000D02*
X120700000Y-28300000D01*
X91000000Y-26000000D02*
X119000000Y-26000000D01*
X120000000Y-30000000D02*
X122400000Y-30000000D01*
X89300000Y-61700000D02*
X87600000Y-61700000D01*
X90000000Y-60000000D02*
X90000000Y-61000000D01*
X90000000Y-55000000D02*
X90000000Y-60000000D01*
X120000000Y-29000000D02*
X120000000Y-30000000D01*
X90000000Y-61000000D02*
X89300000Y-61700000D01*
X119000000Y-26000000D02*
X120000000Y-27000000D01*
X89500000Y-30000000D02*
X90000000Y-29500000D01*
X120000000Y-30000000D02*
X120000000Y-45500000D01*
%TO.N,Net-(D1-RK)*%
X96000000Y-30000000D02*
X98500000Y-32500000D01*
X92400000Y-30000000D02*
X96000000Y-30000000D01*
%TO.N,Net-(D2-RK)*%
X114000000Y-31000000D02*
X114000000Y-32500000D01*
X115000000Y-30000000D02*
X114000000Y-31000000D01*
X117600000Y-30000000D02*
X115000000Y-30000000D01*
%TO.N,Net-(D2-GK)*%
X111500000Y-30500000D02*
X111500000Y-32500000D01*
X117600000Y-28300000D02*
X113700000Y-28300000D01*
X113700000Y-28300000D02*
X111500000Y-30500000D01*
%TO.N,Net-(D4-GK)*%
X117600000Y-58300000D02*
X114300000Y-58300000D01*
X114300000Y-58300000D02*
X114000000Y-58000000D01*
%TO.N,Net-(D4-RK)*%
X111500000Y-58000000D02*
X111500000Y-59500000D01*
X111500000Y-59500000D02*
X112000000Y-60000000D01*
X112000000Y-60000000D02*
X117600000Y-60000000D01*
%TO.N,/RED*%
X114000000Y-53000000D02*
X113000000Y-52000000D01*
X98000000Y-42500000D02*
X98500000Y-42500000D01*
X98500000Y-52000000D02*
X98500000Y-42500000D01*
X96000000Y-40500000D02*
X98000000Y-42500000D01*
X98500000Y-56000000D02*
X98500000Y-52000000D01*
X114000000Y-56000000D02*
X114000000Y-53000000D01*
X96000000Y-34500000D02*
X96000000Y-40500000D01*
X110735000Y-42500000D02*
X110735000Y-37765000D01*
X113000000Y-52000000D02*
X98500000Y-52000000D01*
X111500000Y-37000000D02*
X111500000Y-34500000D01*
X98500000Y-42500000D02*
X110735000Y-42500000D01*
X110735000Y-37765000D02*
X111500000Y-37000000D01*
%TO.N,/GR*%
X105500000Y-44500000D02*
X105500000Y-46500000D01*
X114000000Y-34500000D02*
X114000000Y-38000000D01*
X111500000Y-56000000D02*
X105500000Y-56000000D01*
X101500000Y-46500000D02*
X105500000Y-46500000D01*
X98500000Y-36000000D02*
X100500000Y-38000000D01*
X105500000Y-46500000D02*
X110735000Y-46500000D01*
X98500000Y-34500000D02*
X98500000Y-36000000D01*
X100500000Y-38000000D02*
X105500000Y-38000000D01*
X96000000Y-46500000D02*
X96000000Y-56000000D01*
X105500000Y-49500000D02*
X105500000Y-46500000D01*
%TO.N,Net-(D7-GK)*%
X98500000Y-58000000D02*
X98500000Y-60000000D01*
X96800000Y-61700000D02*
X92400000Y-61700000D01*
X98500000Y-60000000D02*
X96800000Y-61700000D01*
%TO.N,Net-(D7-RK)*%
X96000000Y-58000000D02*
X96000000Y-59500000D01*
X95500000Y-60000000D02*
X92400000Y-60000000D01*
X96000000Y-59500000D02*
X95500000Y-60000000D01*
%TD*%
%TA.AperFunction,Conductor*%
%TO.N,GND*%
G36*
X115600171Y-30920185D02*
G01*
X115645926Y-30972989D01*
X115656421Y-31037756D01*
X115649500Y-31102118D01*
X115649500Y-32297870D01*
X115649501Y-32297876D01*
X115655908Y-32357483D01*
X115706202Y-32492328D01*
X115706206Y-32492335D01*
X115792452Y-32607544D01*
X115792455Y-32607547D01*
X115907664Y-32693793D01*
X115907671Y-32693797D01*
X116042517Y-32744091D01*
X116042516Y-32744091D01*
X116049444Y-32744835D01*
X116102127Y-32750500D01*
X118697872Y-32750499D01*
X118757483Y-32744091D01*
X118892331Y-32693796D01*
X118901186Y-32687166D01*
X118966649Y-32662747D01*
X119034923Y-32677596D01*
X119084330Y-32727000D01*
X119099500Y-32786431D01*
X119099500Y-44475500D01*
X119079815Y-44542539D01*
X119027011Y-44588294D01*
X118975500Y-44599500D01*
X118560758Y-44599500D01*
X118493719Y-44579815D01*
X118473077Y-44563181D01*
X118416181Y-44506285D01*
X118382696Y-44444962D01*
X118387680Y-44375270D01*
X118429552Y-44319337D01*
X118460529Y-44302422D01*
X118592086Y-44253354D01*
X118592093Y-44253350D01*
X118707187Y-44167190D01*
X118707190Y-44167187D01*
X118793350Y-44052093D01*
X118793354Y-44052086D01*
X118843596Y-43917379D01*
X118843598Y-43917372D01*
X118849999Y-43857844D01*
X118850000Y-43857827D01*
X118850000Y-43210000D01*
X117933012Y-43210000D01*
X117965925Y-43152993D01*
X118000000Y-43025826D01*
X118000000Y-42894174D01*
X117965925Y-42767007D01*
X117933012Y-42710000D01*
X118850000Y-42710000D01*
X118850000Y-42062172D01*
X118849999Y-42062155D01*
X118843598Y-42002627D01*
X118843596Y-42002620D01*
X118793354Y-41867913D01*
X118793350Y-41867906D01*
X118707190Y-41752812D01*
X118707187Y-41752809D01*
X118592093Y-41666649D01*
X118592086Y-41666645D01*
X118457379Y-41616403D01*
X118457372Y-41616401D01*
X118397844Y-41610000D01*
X117750000Y-41610000D01*
X117750000Y-42526988D01*
X117692993Y-42494075D01*
X117565826Y-42460000D01*
X117434174Y-42460000D01*
X117307007Y-42494075D01*
X117250000Y-42526988D01*
X117250000Y-41610000D01*
X116602155Y-41610000D01*
X116542627Y-41616401D01*
X116542620Y-41616403D01*
X116407913Y-41666645D01*
X116407906Y-41666649D01*
X116292812Y-41752809D01*
X116292809Y-41752812D01*
X116206649Y-41867906D01*
X116206645Y-41867913D01*
X116156403Y-42002620D01*
X116156401Y-42002627D01*
X116150000Y-42062155D01*
X116150000Y-42710000D01*
X117066988Y-42710000D01*
X117034075Y-42767007D01*
X117000000Y-42894174D01*
X117000000Y-43025826D01*
X117034075Y-43152993D01*
X117066988Y-43210000D01*
X116150000Y-43210000D01*
X116150000Y-43857844D01*
X116156401Y-43917372D01*
X116156403Y-43917379D01*
X116206645Y-44052086D01*
X116206649Y-44052093D01*
X116292809Y-44167187D01*
X116292812Y-44167190D01*
X116407906Y-44253350D01*
X116407913Y-44253354D01*
X116539470Y-44302421D01*
X116595403Y-44344292D01*
X116619821Y-44409756D01*
X116604970Y-44478029D01*
X116583819Y-44506284D01*
X116461503Y-44628600D01*
X116325965Y-44822169D01*
X116325964Y-44822171D01*
X116226098Y-45036335D01*
X116226094Y-45036344D01*
X116164938Y-45264586D01*
X116164936Y-45264596D01*
X116144341Y-45499999D01*
X116144341Y-45500000D01*
X116164936Y-45735403D01*
X116164938Y-45735413D01*
X116226094Y-45963655D01*
X116226096Y-45963659D01*
X116226097Y-45963663D01*
X116258931Y-46034075D01*
X116325965Y-46177830D01*
X116325967Y-46177834D01*
X116389589Y-46268695D01*
X116461505Y-46371401D01*
X116628599Y-46538495D01*
X116667632Y-46565826D01*
X116822165Y-46674032D01*
X116822167Y-46674033D01*
X116822170Y-46674035D01*
X117036337Y-46773903D01*
X117264592Y-46835063D01*
X117452918Y-46851539D01*
X117499999Y-46855659D01*
X117500000Y-46855659D01*
X117500001Y-46855659D01*
X117539234Y-46852226D01*
X117735408Y-46835063D01*
X117963663Y-46773903D01*
X118177830Y-46674035D01*
X118371401Y-46538495D01*
X118473077Y-46436819D01*
X118534400Y-46403334D01*
X118560758Y-46400500D01*
X118975500Y-46400500D01*
X119042539Y-46420185D01*
X119088294Y-46472989D01*
X119099500Y-46524500D01*
X119099500Y-53088696D01*
X119134103Y-53262659D01*
X119134106Y-53262669D01*
X119149348Y-53299464D01*
X119149349Y-53299467D01*
X119201983Y-53426540D01*
X119201990Y-53426552D01*
X119251401Y-53500500D01*
X119251402Y-53500501D01*
X119300537Y-53574038D01*
X119300538Y-53574039D01*
X120296195Y-54569694D01*
X120296216Y-54569717D01*
X121463181Y-55736681D01*
X121496666Y-55798004D01*
X121499500Y-55824362D01*
X121499500Y-57125500D01*
X121479815Y-57192539D01*
X121427011Y-57238294D01*
X121375502Y-57249500D01*
X121302130Y-57249500D01*
X121302123Y-57249501D01*
X121242516Y-57255908D01*
X121107671Y-57306202D01*
X121107664Y-57306206D01*
X120992455Y-57392452D01*
X120992452Y-57392455D01*
X120906206Y-57507664D01*
X120906202Y-57507671D01*
X120855908Y-57642517D01*
X120849501Y-57702116D01*
X120849501Y-57702123D01*
X120849500Y-57702135D01*
X120849500Y-58897870D01*
X120849501Y-58897876D01*
X120856421Y-58962247D01*
X120844014Y-59031006D01*
X120796403Y-59082143D01*
X120733131Y-59099500D01*
X120411303Y-59099500D01*
X120237339Y-59134103D01*
X120237323Y-59134108D01*
X120121453Y-59182102D01*
X120121454Y-59182103D01*
X120073454Y-59201986D01*
X120073453Y-59201987D01*
X120020553Y-59237334D01*
X119925965Y-59300535D01*
X119925961Y-59300538D01*
X119362180Y-59864320D01*
X119300857Y-59897805D01*
X119231165Y-59892821D01*
X119175232Y-59850949D01*
X119150815Y-59785485D01*
X119150499Y-59776639D01*
X119150499Y-59402129D01*
X119150498Y-59402123D01*
X119144091Y-59342518D01*
X119144091Y-59342517D01*
X119093796Y-59207669D01*
X119093794Y-59207666D01*
X119090696Y-59199360D01*
X119092426Y-59198714D01*
X119079902Y-59141163D01*
X119091691Y-59101011D01*
X119090696Y-59100640D01*
X119093794Y-59092333D01*
X119093796Y-59092331D01*
X119144091Y-58957483D01*
X119150500Y-58897873D01*
X119150499Y-57702128D01*
X119144091Y-57642517D01*
X119137914Y-57625956D01*
X119093797Y-57507671D01*
X119093793Y-57507664D01*
X119007547Y-57392455D01*
X119007544Y-57392452D01*
X118892335Y-57306206D01*
X118892328Y-57306202D01*
X118757482Y-57255908D01*
X118757483Y-57255908D01*
X118697883Y-57249501D01*
X118697881Y-57249500D01*
X118697873Y-57249500D01*
X118697864Y-57249500D01*
X116102129Y-57249500D01*
X116102123Y-57249501D01*
X116042516Y-57255908D01*
X115907671Y-57306202D01*
X115907668Y-57306204D01*
X115816080Y-57374767D01*
X115750615Y-57399184D01*
X115741769Y-57399500D01*
X115245908Y-57399500D01*
X115178869Y-57379815D01*
X115140363Y-57335728D01*
X115138605Y-57336813D01*
X115132159Y-57326362D01*
X115042712Y-57181344D01*
X114949049Y-57087681D01*
X114915564Y-57026358D01*
X114920548Y-56956666D01*
X114949049Y-56912319D01*
X114960868Y-56900500D01*
X115042712Y-56818656D01*
X115134814Y-56669334D01*
X115189999Y-56502797D01*
X115200500Y-56400009D01*
X115200499Y-55599992D01*
X115189999Y-55497203D01*
X115134814Y-55330666D01*
X115042712Y-55181344D01*
X114936818Y-55075450D01*
X114903334Y-55014127D01*
X114900500Y-54987769D01*
X114900500Y-52911310D01*
X114900500Y-52911308D01*
X114898350Y-52900500D01*
X114865895Y-52737334D01*
X114800339Y-52579071D01*
X114798695Y-52574474D01*
X114699465Y-52425966D01*
X114699464Y-52425965D01*
X114574035Y-52300536D01*
X114449137Y-52175638D01*
X113574041Y-51300540D01*
X113574040Y-51300539D01*
X113514960Y-51261064D01*
X113514958Y-51261061D01*
X113426544Y-51201985D01*
X113426542Y-51201984D01*
X113344607Y-51168046D01*
X113344606Y-51168046D01*
X113262666Y-51134105D01*
X113262658Y-51134103D01*
X113088696Y-51099500D01*
X113088692Y-51099500D01*
X113088691Y-51099500D01*
X105897128Y-51099500D01*
X105830089Y-51079815D01*
X105784334Y-51027011D01*
X105774390Y-50957853D01*
X105803415Y-50894297D01*
X105856865Y-50858219D01*
X105963129Y-50821737D01*
X106064503Y-50786936D01*
X106268626Y-50676470D01*
X106451784Y-50533913D01*
X106608979Y-50363153D01*
X106735924Y-50168849D01*
X106829157Y-49956300D01*
X106886134Y-49731305D01*
X106905300Y-49500000D01*
X106905300Y-49499993D01*
X106886135Y-49268702D01*
X106886133Y-49268691D01*
X106829157Y-49043699D01*
X106735924Y-48831151D01*
X106608983Y-48636852D01*
X106608980Y-48636849D01*
X106608979Y-48636847D01*
X106451784Y-48466087D01*
X106448336Y-48463403D01*
X106407524Y-48406692D01*
X106400500Y-48365551D01*
X106400500Y-47524500D01*
X106420185Y-47457461D01*
X106472989Y-47411706D01*
X106524500Y-47400500D01*
X109674242Y-47400500D01*
X109741281Y-47420185D01*
X109761923Y-47436819D01*
X109863599Y-47538495D01*
X109960384Y-47606265D01*
X110057165Y-47674032D01*
X110057167Y-47674033D01*
X110057170Y-47674035D01*
X110271337Y-47773903D01*
X110499592Y-47835063D01*
X110670319Y-47850000D01*
X110734999Y-47855659D01*
X110735000Y-47855659D01*
X110735001Y-47855659D01*
X110799681Y-47850000D01*
X110970408Y-47835063D01*
X111198663Y-47773903D01*
X111412830Y-47674035D01*
X111606401Y-47538495D01*
X111728717Y-47416178D01*
X111790036Y-47382696D01*
X111859728Y-47387680D01*
X111915662Y-47429551D01*
X111932577Y-47460528D01*
X111981646Y-47592088D01*
X111981649Y-47592093D01*
X112067809Y-47707187D01*
X112067812Y-47707190D01*
X112182906Y-47793350D01*
X112182913Y-47793354D01*
X112317620Y-47843596D01*
X112317627Y-47843598D01*
X112377155Y-47849999D01*
X112377172Y-47850000D01*
X113025000Y-47850000D01*
X113025000Y-46933012D01*
X113082007Y-46965925D01*
X113209174Y-47000000D01*
X113340826Y-47000000D01*
X113467993Y-46965925D01*
X113525000Y-46933012D01*
X113525000Y-47850000D01*
X114172828Y-47850000D01*
X114172844Y-47849999D01*
X114232372Y-47843598D01*
X114232379Y-47843596D01*
X114367086Y-47793354D01*
X114367093Y-47793350D01*
X114482187Y-47707190D01*
X114482190Y-47707187D01*
X114568350Y-47592093D01*
X114568354Y-47592086D01*
X114618596Y-47457379D01*
X114618598Y-47457372D01*
X114624999Y-47397844D01*
X114625000Y-47397827D01*
X114625000Y-46750000D01*
X113708012Y-46750000D01*
X113740925Y-46692993D01*
X113775000Y-46565826D01*
X113775000Y-46434174D01*
X113740925Y-46307007D01*
X113708012Y-46250000D01*
X114625000Y-46250000D01*
X114625000Y-45602172D01*
X114624999Y-45602155D01*
X114618598Y-45542627D01*
X114618596Y-45542620D01*
X114568354Y-45407913D01*
X114568350Y-45407906D01*
X114482190Y-45292812D01*
X114482187Y-45292809D01*
X114367093Y-45206649D01*
X114367086Y-45206645D01*
X114232379Y-45156403D01*
X114232372Y-45156401D01*
X114172844Y-45150000D01*
X113525000Y-45150000D01*
X113525000Y-46066988D01*
X113467993Y-46034075D01*
X113340826Y-46000000D01*
X113209174Y-46000000D01*
X113082007Y-46034075D01*
X113025000Y-46066988D01*
X113025000Y-45150000D01*
X112377155Y-45150000D01*
X112317627Y-45156401D01*
X112317620Y-45156403D01*
X112182913Y-45206645D01*
X112182906Y-45206649D01*
X112067812Y-45292809D01*
X112067809Y-45292812D01*
X111981649Y-45407906D01*
X111981645Y-45407913D01*
X111932578Y-45539470D01*
X111890707Y-45595404D01*
X111825242Y-45619821D01*
X111756969Y-45604969D01*
X111728715Y-45583819D01*
X111668494Y-45523598D01*
X111606401Y-45461505D01*
X111606397Y-45461502D01*
X111606396Y-45461501D01*
X111412834Y-45325967D01*
X111412830Y-45325965D01*
X111341727Y-45292809D01*
X111198663Y-45226097D01*
X111198659Y-45226096D01*
X111198655Y-45226094D01*
X110970413Y-45164938D01*
X110970403Y-45164936D01*
X110735001Y-45144341D01*
X110734999Y-45144341D01*
X110499596Y-45164936D01*
X110499586Y-45164938D01*
X110271344Y-45226094D01*
X110271335Y-45226098D01*
X110057171Y-45325964D01*
X110057169Y-45325965D01*
X109863600Y-45461503D01*
X109825105Y-45499999D01*
X109761921Y-45563182D01*
X109700601Y-45596666D01*
X109674242Y-45599500D01*
X106674097Y-45599500D01*
X106607058Y-45579815D01*
X106561303Y-45527011D01*
X106551359Y-45457853D01*
X106580384Y-45394297D01*
X106582827Y-45391561D01*
X106608979Y-45363153D01*
X106735924Y-45168849D01*
X106829157Y-44956300D01*
X106886134Y-44731305D01*
X106886135Y-44731297D01*
X106905300Y-44500006D01*
X106905300Y-44499993D01*
X106886135Y-44268702D01*
X106886133Y-44268691D01*
X106829157Y-44043699D01*
X106735924Y-43831151D01*
X106608983Y-43636852D01*
X106608980Y-43636849D01*
X106608979Y-43636847D01*
X106582865Y-43608480D01*
X106551945Y-43545828D01*
X106559805Y-43476402D01*
X106603952Y-43422247D01*
X106670370Y-43400556D01*
X106674097Y-43400500D01*
X109674242Y-43400500D01*
X109741281Y-43420185D01*
X109761923Y-43436819D01*
X109863599Y-43538495D01*
X109868815Y-43542147D01*
X110057165Y-43674032D01*
X110057167Y-43674033D01*
X110057170Y-43674035D01*
X110271337Y-43773903D01*
X110499592Y-43835063D01*
X110670319Y-43850000D01*
X110734999Y-43855659D01*
X110735000Y-43855659D01*
X110735001Y-43855659D01*
X110799681Y-43850000D01*
X110970408Y-43835063D01*
X111198663Y-43773903D01*
X111412830Y-43674035D01*
X111606401Y-43538495D01*
X111728717Y-43416178D01*
X111790036Y-43382696D01*
X111859728Y-43387680D01*
X111915662Y-43429551D01*
X111932577Y-43460528D01*
X111981646Y-43592088D01*
X111981649Y-43592093D01*
X112067809Y-43707187D01*
X112067812Y-43707190D01*
X112182906Y-43793350D01*
X112182913Y-43793354D01*
X112317620Y-43843596D01*
X112317627Y-43843598D01*
X112377155Y-43849999D01*
X112377172Y-43850000D01*
X113025000Y-43850000D01*
X113025000Y-42933012D01*
X113082007Y-42965925D01*
X113209174Y-43000000D01*
X113340826Y-43000000D01*
X113467993Y-42965925D01*
X113525000Y-42933012D01*
X113525000Y-43850000D01*
X114172828Y-43850000D01*
X114172844Y-43849999D01*
X114232372Y-43843598D01*
X114232379Y-43843596D01*
X114367086Y-43793354D01*
X114367093Y-43793350D01*
X114482187Y-43707190D01*
X114482190Y-43707187D01*
X114568350Y-43592093D01*
X114568354Y-43592086D01*
X114618596Y-43457379D01*
X114618598Y-43457372D01*
X114624999Y-43397844D01*
X114625000Y-43397827D01*
X114625000Y-42750000D01*
X113708012Y-42750000D01*
X113740925Y-42692993D01*
X113775000Y-42565826D01*
X113775000Y-42434174D01*
X113740925Y-42307007D01*
X113708012Y-42250000D01*
X114625000Y-42250000D01*
X114625000Y-41602172D01*
X114624999Y-41602155D01*
X114618598Y-41542627D01*
X114618596Y-41542620D01*
X114568354Y-41407913D01*
X114568350Y-41407906D01*
X114482190Y-41292812D01*
X114482187Y-41292809D01*
X114367093Y-41206649D01*
X114367086Y-41206645D01*
X114232379Y-41156403D01*
X114232372Y-41156401D01*
X114172844Y-41150000D01*
X113525000Y-41150000D01*
X113525000Y-42066988D01*
X113467993Y-42034075D01*
X113340826Y-42000000D01*
X113209174Y-42000000D01*
X113082007Y-42034075D01*
X113025000Y-42066988D01*
X113025000Y-41150000D01*
X112377155Y-41150000D01*
X112317627Y-41156401D01*
X112317620Y-41156403D01*
X112182913Y-41206645D01*
X112182906Y-41206649D01*
X112067812Y-41292809D01*
X112067809Y-41292812D01*
X111981649Y-41407906D01*
X111981645Y-41407913D01*
X111932578Y-41539470D01*
X111890707Y-41595404D01*
X111825242Y-41619821D01*
X111756969Y-41604969D01*
X111728715Y-41583818D01*
X111671819Y-41526922D01*
X111638334Y-41465599D01*
X111635500Y-41439241D01*
X111635500Y-38189361D01*
X111655185Y-38122322D01*
X111671819Y-38101680D01*
X112199464Y-37574035D01*
X112247373Y-37502334D01*
X112247376Y-37502330D01*
X112298013Y-37426547D01*
X112365894Y-37262666D01*
X112380157Y-37190964D01*
X112400500Y-37088692D01*
X112400500Y-36911309D01*
X112400500Y-35512230D01*
X112420185Y-35445191D01*
X112436819Y-35424549D01*
X112542712Y-35318656D01*
X112634814Y-35169334D01*
X112634817Y-35169322D01*
X112637615Y-35163325D01*
X112683785Y-35110884D01*
X112750977Y-35091728D01*
X112817859Y-35111940D01*
X112862385Y-35163325D01*
X112865184Y-35169330D01*
X112865186Y-35169334D01*
X112865188Y-35169336D01*
X112957289Y-35318657D01*
X113063181Y-35424549D01*
X113096666Y-35485872D01*
X113099500Y-35512230D01*
X113099500Y-36865551D01*
X113079815Y-36932590D01*
X113051664Y-36963403D01*
X113048219Y-36966084D01*
X112891016Y-37136852D01*
X112764075Y-37331151D01*
X112670842Y-37543699D01*
X112613866Y-37768691D01*
X112613864Y-37768702D01*
X112594700Y-37999993D01*
X112594700Y-38000006D01*
X112613864Y-38231297D01*
X112613866Y-38231308D01*
X112670842Y-38456300D01*
X112764075Y-38668848D01*
X112891016Y-38863147D01*
X112891019Y-38863151D01*
X112891021Y-38863153D01*
X113048216Y-39033913D01*
X113048219Y-39033915D01*
X113048222Y-39033918D01*
X113231365Y-39176464D01*
X113231371Y-39176468D01*
X113231374Y-39176470D01*
X113435497Y-39286936D01*
X113549487Y-39326068D01*
X113655015Y-39362297D01*
X113655017Y-39362297D01*
X113655019Y-39362298D01*
X113883951Y-39400500D01*
X113883952Y-39400500D01*
X114116048Y-39400500D01*
X114116049Y-39400500D01*
X114344981Y-39362298D01*
X114564503Y-39286936D01*
X114768626Y-39176470D01*
X114951784Y-39033913D01*
X115108979Y-38863153D01*
X115235924Y-38668849D01*
X115329157Y-38456300D01*
X115386134Y-38231305D01*
X115386135Y-38231297D01*
X115405300Y-38000006D01*
X115405300Y-37999993D01*
X115386135Y-37768702D01*
X115386133Y-37768691D01*
X115329157Y-37543699D01*
X115235924Y-37331151D01*
X115108983Y-37136852D01*
X115108980Y-37136849D01*
X115108979Y-37136847D01*
X114951784Y-36966087D01*
X114948336Y-36963403D01*
X114907524Y-36906692D01*
X114900500Y-36865551D01*
X114900500Y-35512230D01*
X114920185Y-35445191D01*
X114936819Y-35424549D01*
X115042712Y-35318656D01*
X115134814Y-35169334D01*
X115189999Y-35002797D01*
X115200500Y-34900009D01*
X115200499Y-34099992D01*
X115189999Y-33997203D01*
X115134814Y-33830666D01*
X115042712Y-33681344D01*
X114949049Y-33587681D01*
X114915564Y-33526358D01*
X114920548Y-33456666D01*
X114949049Y-33412319D01*
X115042712Y-33318656D01*
X115134814Y-33169334D01*
X115189999Y-33002797D01*
X115200500Y-32900009D01*
X115200499Y-32099992D01*
X115189999Y-31997203D01*
X115134814Y-31830666D01*
X115042712Y-31681344D01*
X114936818Y-31575450D01*
X114903334Y-31514127D01*
X114900500Y-31487769D01*
X114900500Y-31424361D01*
X114920185Y-31357322D01*
X114936819Y-31336680D01*
X115336680Y-30936819D01*
X115398003Y-30903334D01*
X115424361Y-30900500D01*
X115533132Y-30900500D01*
X115600171Y-30920185D01*
G37*
%TD.AperFunction*%
%TD*%
%TA.AperFunction,NonConductor*%
G36*
X90533266Y-25020185D02*
G01*
X90579021Y-25072989D01*
X90588965Y-25142147D01*
X90559940Y-25205703D01*
X90535118Y-25227602D01*
X90425965Y-25300535D01*
X90425961Y-25300538D01*
X89300538Y-26425960D01*
X89300537Y-26425961D01*
X89261064Y-26485039D01*
X89261063Y-26485040D01*
X89201985Y-26573455D01*
X89168046Y-26655393D01*
X89134107Y-26737327D01*
X89134105Y-26737333D01*
X89134105Y-26737334D01*
X89101650Y-26900500D01*
X89099500Y-26911309D01*
X89099500Y-26911310D01*
X89099500Y-27213568D01*
X89079815Y-27280607D01*
X89027011Y-27326362D01*
X88957853Y-27336306D01*
X88901190Y-27312835D01*
X88892334Y-27306206D01*
X88892328Y-27306202D01*
X88757482Y-27255908D01*
X88757483Y-27255908D01*
X88697883Y-27249501D01*
X88697881Y-27249500D01*
X88697873Y-27249500D01*
X88697864Y-27249500D01*
X86102129Y-27249500D01*
X86102123Y-27249501D01*
X86042516Y-27255908D01*
X85907671Y-27306202D01*
X85907664Y-27306206D01*
X85792455Y-27392452D01*
X85792452Y-27392455D01*
X85723766Y-27484208D01*
X85667832Y-27526079D01*
X85598141Y-27531063D01*
X85536818Y-27497577D01*
X85503334Y-27436254D01*
X85500500Y-27409897D01*
X85500500Y-25124500D01*
X85520185Y-25057461D01*
X85572989Y-25011706D01*
X85624500Y-25000500D01*
X90466227Y-25000500D01*
X90533266Y-25020185D01*
G37*
%TD.AperFunction*%
%TA.AperFunction,NonConductor*%
G36*
X124442539Y-25020185D02*
G01*
X124488294Y-25072989D01*
X124499500Y-25124500D01*
X124499500Y-27409897D01*
X124479815Y-27476936D01*
X124427011Y-27522691D01*
X124357853Y-27532635D01*
X124294297Y-27503610D01*
X124276234Y-27484208D01*
X124207547Y-27392455D01*
X124207544Y-27392452D01*
X124092335Y-27306206D01*
X124092328Y-27306202D01*
X123957482Y-27255908D01*
X123957483Y-27255908D01*
X123897883Y-27249501D01*
X123897881Y-27249500D01*
X123897873Y-27249500D01*
X123897864Y-27249500D01*
X121302129Y-27249500D01*
X121302123Y-27249501D01*
X121242516Y-27255908D01*
X121107671Y-27306202D01*
X121107665Y-27306206D01*
X121098810Y-27312835D01*
X121033346Y-27337252D01*
X120965073Y-27322400D01*
X120915668Y-27272995D01*
X120900500Y-27213568D01*
X120900500Y-26911310D01*
X120900500Y-26911309D01*
X120898350Y-26900500D01*
X120865895Y-26737334D01*
X120800339Y-26579071D01*
X120798695Y-26574474D01*
X120699465Y-26425966D01*
X120699459Y-26425960D01*
X120574035Y-26300536D01*
X119574041Y-25300540D01*
X119574040Y-25300539D01*
X119574036Y-25300536D01*
X119514959Y-25261063D01*
X119514958Y-25261061D01*
X119464882Y-25227602D01*
X119420077Y-25173990D01*
X119411370Y-25104665D01*
X119441524Y-25041638D01*
X119500967Y-25004918D01*
X119533773Y-25000500D01*
X124375500Y-25000500D01*
X124442539Y-25020185D01*
G37*
%TD.AperFunction*%
%TA.AperFunction,NonConductor*%
G36*
X114293677Y-29220185D02*
G01*
X114339432Y-29272989D01*
X114349376Y-29342147D01*
X114320351Y-29405703D01*
X114314319Y-29412181D01*
X113300538Y-30425960D01*
X113300537Y-30425961D01*
X113261064Y-30485039D01*
X113261063Y-30485040D01*
X113201988Y-30573449D01*
X113170488Y-30649499D01*
X113134105Y-30737333D01*
X113134103Y-30737341D01*
X113100223Y-30907665D01*
X113100224Y-30907666D01*
X113099500Y-30911305D01*
X113099500Y-31487769D01*
X113079815Y-31554808D01*
X113063182Y-31575450D01*
X112957287Y-31681345D01*
X112865183Y-31830670D01*
X112862383Y-31836677D01*
X112816212Y-31889117D01*
X112749019Y-31908271D01*
X112682138Y-31888057D01*
X112637617Y-31836677D01*
X112634816Y-31830670D01*
X112634812Y-31830663D01*
X112542712Y-31681344D01*
X112436818Y-31575450D01*
X112403334Y-31514127D01*
X112400500Y-31487769D01*
X112400500Y-30924362D01*
X112420185Y-30857323D01*
X112436819Y-30836681D01*
X114036681Y-29236819D01*
X114098004Y-29203334D01*
X114124362Y-29200500D01*
X114226638Y-29200500D01*
X114293677Y-29220185D01*
G37*
%TD.AperFunction*%
%TA.AperFunction,NonConductor*%
G36*
X112817859Y-33111940D02*
G01*
X112862385Y-33163325D01*
X112865184Y-33169330D01*
X112865186Y-33169334D01*
X112865188Y-33169336D01*
X112957289Y-33318657D01*
X113050951Y-33412319D01*
X113084436Y-33473642D01*
X113079452Y-33543334D01*
X113050951Y-33587681D01*
X112957289Y-33681342D01*
X112865183Y-33830670D01*
X112862383Y-33836677D01*
X112816212Y-33889117D01*
X112749019Y-33908271D01*
X112682138Y-33888057D01*
X112637617Y-33836677D01*
X112634816Y-33830670D01*
X112634812Y-33830663D01*
X112542712Y-33681344D01*
X112449049Y-33587681D01*
X112415564Y-33526358D01*
X112420548Y-33456666D01*
X112449049Y-33412319D01*
X112542712Y-33318656D01*
X112634814Y-33169334D01*
X112634817Y-33169322D01*
X112637615Y-33163325D01*
X112683785Y-33110884D01*
X112750977Y-33091728D01*
X112817859Y-33111940D01*
G37*
%TD.AperFunction*%
%TA.AperFunction,NonConductor*%
G36*
X97317859Y-33111940D02*
G01*
X97362385Y-33163325D01*
X97365184Y-33169330D01*
X97365186Y-33169334D01*
X97365188Y-33169336D01*
X97457289Y-33318657D01*
X97550951Y-33412319D01*
X97584436Y-33473642D01*
X97579452Y-33543334D01*
X97550951Y-33587681D01*
X97457289Y-33681342D01*
X97365183Y-33830670D01*
X97362383Y-33836677D01*
X97316212Y-33889117D01*
X97249019Y-33908271D01*
X97182138Y-33888057D01*
X97137617Y-33836677D01*
X97134816Y-33830670D01*
X97134812Y-33830663D01*
X97042712Y-33681344D01*
X96949049Y-33587681D01*
X96915564Y-33526358D01*
X96920548Y-33456666D01*
X96949049Y-33412319D01*
X97042712Y-33318656D01*
X97134814Y-33169334D01*
X97134817Y-33169322D01*
X97137615Y-33163325D01*
X97183785Y-33110884D01*
X97250977Y-33091728D01*
X97317859Y-33111940D01*
G37*
%TD.AperFunction*%
%TA.AperFunction,NonConductor*%
G36*
X118642677Y-26920185D02*
G01*
X118663319Y-26936819D01*
X118764319Y-27037819D01*
X118797804Y-27099142D01*
X118792820Y-27168834D01*
X118750948Y-27224767D01*
X118685484Y-27249184D01*
X118676638Y-27249500D01*
X116102129Y-27249500D01*
X116102123Y-27249501D01*
X116042516Y-27255908D01*
X115907671Y-27306202D01*
X115907668Y-27306204D01*
X115816080Y-27374767D01*
X115750615Y-27399184D01*
X115741769Y-27399500D01*
X113611303Y-27399500D01*
X113437341Y-27434103D01*
X113437333Y-27434105D01*
X113349588Y-27470451D01*
X113349587Y-27470451D01*
X113273455Y-27501985D01*
X113125963Y-27600535D01*
X110800537Y-29925961D01*
X110761064Y-29985039D01*
X110761063Y-29985040D01*
X110701988Y-30073449D01*
X110688017Y-30107179D01*
X110676864Y-30134106D01*
X110634105Y-30237334D01*
X110601650Y-30400500D01*
X110599500Y-30411309D01*
X110599500Y-30411310D01*
X110599500Y-31487769D01*
X110579815Y-31554808D01*
X110563182Y-31575450D01*
X110457287Y-31681345D01*
X110365187Y-31830663D01*
X110365185Y-31830668D01*
X110363194Y-31836677D01*
X110310001Y-31997203D01*
X110310001Y-31997204D01*
X110310000Y-31997204D01*
X110299500Y-32099983D01*
X110299500Y-32900001D01*
X110299501Y-32900019D01*
X110310000Y-33002796D01*
X110310001Y-33002799D01*
X110365185Y-33169331D01*
X110365187Y-33169336D01*
X110457289Y-33318657D01*
X110550951Y-33412319D01*
X110584436Y-33473642D01*
X110579452Y-33543334D01*
X110550951Y-33587681D01*
X110457289Y-33681342D01*
X110365187Y-33830663D01*
X110365185Y-33830668D01*
X110363194Y-33836677D01*
X110310001Y-33997203D01*
X110310001Y-33997204D01*
X110310000Y-33997204D01*
X110299500Y-34099983D01*
X110299500Y-34900001D01*
X110299501Y-34900019D01*
X110310000Y-35002796D01*
X110310001Y-35002799D01*
X110365185Y-35169331D01*
X110365187Y-35169336D01*
X110457289Y-35318657D01*
X110563181Y-35424549D01*
X110596666Y-35485872D01*
X110599500Y-35512230D01*
X110599500Y-36575638D01*
X110579815Y-36642677D01*
X110563181Y-36663319D01*
X110035537Y-37190962D01*
X110035536Y-37190964D01*
X110028168Y-37201990D01*
X109936988Y-37338450D01*
X109936986Y-37338454D01*
X109903046Y-37420393D01*
X109869106Y-37502330D01*
X109869103Y-37502340D01*
X109854842Y-37574034D01*
X109854843Y-37574035D01*
X109834500Y-37676310D01*
X109834500Y-41439242D01*
X109814815Y-41506281D01*
X109798181Y-41526923D01*
X109761923Y-41563181D01*
X109700600Y-41596666D01*
X109674242Y-41599500D01*
X98424362Y-41599500D01*
X98357323Y-41579815D01*
X98336681Y-41563181D01*
X96936819Y-40163319D01*
X96903334Y-40101996D01*
X96900500Y-40075638D01*
X96900500Y-35512230D01*
X96920185Y-35445191D01*
X96936819Y-35424549D01*
X97042712Y-35318656D01*
X97134814Y-35169334D01*
X97134817Y-35169322D01*
X97137615Y-35163325D01*
X97183785Y-35110884D01*
X97250977Y-35091728D01*
X97317859Y-35111940D01*
X97362385Y-35163325D01*
X97365184Y-35169330D01*
X97365186Y-35169334D01*
X97365188Y-35169336D01*
X97457289Y-35318657D01*
X97563181Y-35424549D01*
X97596666Y-35485872D01*
X97599500Y-35512230D01*
X97599500Y-36088696D01*
X97634103Y-36262658D01*
X97634105Y-36262666D01*
X97668046Y-36344606D01*
X97668046Y-36344607D01*
X97701984Y-36426542D01*
X97701985Y-36426544D01*
X97761063Y-36514960D01*
X97761064Y-36514961D01*
X97800534Y-36574034D01*
X99925966Y-38699466D01*
X99985036Y-38738933D01*
X99985039Y-38738936D01*
X100073450Y-38798011D01*
X100073453Y-38798013D01*
X100155393Y-38831953D01*
X100237334Y-38865895D01*
X100411303Y-38900499D01*
X100411307Y-38900500D01*
X100411308Y-38900500D01*
X100411309Y-38900500D01*
X104371009Y-38900500D01*
X104438048Y-38920185D01*
X104462238Y-38940517D01*
X104548212Y-39033909D01*
X104548222Y-39033918D01*
X104731365Y-39176464D01*
X104731371Y-39176468D01*
X104731374Y-39176470D01*
X104935497Y-39286936D01*
X105049487Y-39326068D01*
X105155015Y-39362297D01*
X105155017Y-39362297D01*
X105155019Y-39362298D01*
X105383951Y-39400500D01*
X105383952Y-39400500D01*
X105616048Y-39400500D01*
X105616049Y-39400500D01*
X105844981Y-39362298D01*
X106064503Y-39286936D01*
X106268626Y-39176470D01*
X106451784Y-39033913D01*
X106608979Y-38863153D01*
X106735924Y-38668849D01*
X106829157Y-38456300D01*
X106886134Y-38231305D01*
X106886135Y-38231297D01*
X106905300Y-38000006D01*
X106905300Y-37999993D01*
X106886135Y-37768702D01*
X106886133Y-37768691D01*
X106829157Y-37543699D01*
X106735924Y-37331151D01*
X106608983Y-37136852D01*
X106608980Y-37136849D01*
X106608979Y-37136847D01*
X106451784Y-36966087D01*
X106451779Y-36966083D01*
X106451777Y-36966081D01*
X106268634Y-36823535D01*
X106268628Y-36823531D01*
X106064504Y-36713064D01*
X106064495Y-36713061D01*
X105844984Y-36637702D01*
X105673282Y-36609050D01*
X105616049Y-36599500D01*
X105383951Y-36599500D01*
X105338164Y-36607140D01*
X105155015Y-36637702D01*
X104935504Y-36713061D01*
X104935495Y-36713064D01*
X104731371Y-36823531D01*
X104731365Y-36823535D01*
X104548222Y-36966081D01*
X104548212Y-36966090D01*
X104462238Y-37059483D01*
X104402351Y-37095474D01*
X104371009Y-37099500D01*
X100924362Y-37099500D01*
X100857323Y-37079815D01*
X100836681Y-37063181D01*
X99436819Y-35663319D01*
X99403334Y-35601996D01*
X99400500Y-35575638D01*
X99400500Y-35512230D01*
X99420185Y-35445191D01*
X99436819Y-35424549D01*
X99542712Y-35318656D01*
X99634814Y-35169334D01*
X99689999Y-35002797D01*
X99700500Y-34900009D01*
X99700499Y-34099992D01*
X99689999Y-33997203D01*
X99634814Y-33830666D01*
X99542712Y-33681344D01*
X99449049Y-33587681D01*
X99415564Y-33526358D01*
X99420548Y-33456666D01*
X99449049Y-33412319D01*
X99542712Y-33318656D01*
X99634814Y-33169334D01*
X99689999Y-33002797D01*
X99700500Y-32900009D01*
X99700499Y-32099992D01*
X99689999Y-31997203D01*
X99634814Y-31830666D01*
X99542712Y-31681344D01*
X99418656Y-31557288D01*
X99269334Y-31465186D01*
X99102797Y-31410001D01*
X99102795Y-31410000D01*
X99000016Y-31399500D01*
X99000009Y-31399500D01*
X98724362Y-31399500D01*
X98657323Y-31379815D01*
X98636681Y-31363181D01*
X97273501Y-30000000D01*
X102894747Y-30000000D01*
X102913741Y-30314023D01*
X102913741Y-30314028D01*
X102913742Y-30314029D01*
X102970451Y-30623478D01*
X102970452Y-30623482D01*
X102970453Y-30623486D01*
X103064039Y-30923816D01*
X103064043Y-30923827D01*
X103064044Y-30923830D01*
X103064046Y-30923835D01*
X103193163Y-31210721D01*
X103313632Y-31410001D01*
X103355924Y-31479960D01*
X103549942Y-31727605D01*
X103772394Y-31950057D01*
X104020039Y-32144075D01*
X104020044Y-32144078D01*
X104020048Y-32144081D01*
X104289279Y-32306837D01*
X104576165Y-32435954D01*
X104576175Y-32435957D01*
X104576183Y-32435960D01*
X104757085Y-32492331D01*
X104876522Y-32529549D01*
X105185971Y-32586258D01*
X105500000Y-32605253D01*
X105814029Y-32586258D01*
X106123478Y-32529549D01*
X106423835Y-32435954D01*
X106710721Y-32306837D01*
X106979952Y-32144081D01*
X107227602Y-31950060D01*
X107450060Y-31727602D01*
X107644081Y-31479952D01*
X107806837Y-31210721D01*
X107935954Y-30923835D01*
X107940993Y-30907666D01*
X107951795Y-30873000D01*
X108029549Y-30623478D01*
X108086258Y-30314029D01*
X108105253Y-30000000D01*
X108086258Y-29685971D01*
X108029549Y-29376522D01*
X107981698Y-29222962D01*
X107935960Y-29076183D01*
X107935956Y-29076172D01*
X107935954Y-29076165D01*
X107806837Y-28789279D01*
X107644081Y-28520048D01*
X107644078Y-28520044D01*
X107644075Y-28520039D01*
X107450057Y-28272394D01*
X107227605Y-28049942D01*
X106979960Y-27855924D01*
X106979952Y-27855919D01*
X106710721Y-27693163D01*
X106423835Y-27564046D01*
X106423830Y-27564044D01*
X106423827Y-27564043D01*
X106423816Y-27564039D01*
X106123486Y-27470453D01*
X106123482Y-27470452D01*
X106123478Y-27470451D01*
X105814029Y-27413742D01*
X105814028Y-27413741D01*
X105814023Y-27413741D01*
X105500000Y-27394747D01*
X105185976Y-27413741D01*
X105185971Y-27413742D01*
X104876522Y-27470451D01*
X104876519Y-27470451D01*
X104876513Y-27470453D01*
X104576183Y-27564039D01*
X104576172Y-27564043D01*
X104576166Y-27564045D01*
X104576165Y-27564046D01*
X104289279Y-27693163D01*
X104202656Y-27745528D01*
X104020039Y-27855924D01*
X103772394Y-28049942D01*
X103549942Y-28272394D01*
X103355924Y-28520039D01*
X103355919Y-28520048D01*
X103193163Y-28789279D01*
X103086169Y-29027011D01*
X103064043Y-29076172D01*
X103064039Y-29076183D01*
X102970453Y-29376513D01*
X102970451Y-29376519D01*
X102970451Y-29376522D01*
X102924669Y-29626340D01*
X102913741Y-29685976D01*
X102894747Y-30000000D01*
X97273501Y-30000000D01*
X96574039Y-29300538D01*
X96574038Y-29300537D01*
X96550230Y-29284629D01*
X96479447Y-29237334D01*
X96479445Y-29237333D01*
X96479445Y-29237332D01*
X96426544Y-29201985D01*
X96426542Y-29201984D01*
X96339411Y-29165894D01*
X96262666Y-29134105D01*
X96262658Y-29134103D01*
X96088696Y-29099500D01*
X96088692Y-29099500D01*
X96088691Y-29099500D01*
X94466868Y-29099500D01*
X94399829Y-29079815D01*
X94354074Y-29027011D01*
X94343579Y-28962244D01*
X94350499Y-28897881D01*
X94350500Y-28897873D01*
X94350499Y-27702128D01*
X94344091Y-27642517D01*
X94314823Y-27564046D01*
X94293797Y-27507671D01*
X94293793Y-27507664D01*
X94207547Y-27392455D01*
X94207544Y-27392452D01*
X94092335Y-27306206D01*
X94092328Y-27306202D01*
X93957482Y-27255908D01*
X93957483Y-27255908D01*
X93897883Y-27249501D01*
X93897881Y-27249500D01*
X93897873Y-27249500D01*
X93897865Y-27249500D01*
X91323360Y-27249500D01*
X91256321Y-27229815D01*
X91210566Y-27177011D01*
X91200622Y-27107853D01*
X91229647Y-27044297D01*
X91235652Y-27037846D01*
X91336682Y-26936816D01*
X91398004Y-26903334D01*
X91424361Y-26900500D01*
X118575638Y-26900500D01*
X118642677Y-26920185D01*
G37*
%TD.AperFunction*%
%TA.AperFunction,NonConductor*%
G36*
X104392942Y-43420185D02*
G01*
X104438697Y-43472989D01*
X104448641Y-43542147D01*
X104419616Y-43605703D01*
X104417172Y-43608438D01*
X104397481Y-43629828D01*
X104391016Y-43636852D01*
X104264075Y-43831151D01*
X104170842Y-44043699D01*
X104113866Y-44268691D01*
X104113864Y-44268702D01*
X104094700Y-44499993D01*
X104094700Y-44500006D01*
X104113864Y-44731297D01*
X104113866Y-44731308D01*
X104170842Y-44956300D01*
X104264075Y-45168848D01*
X104391016Y-45363147D01*
X104391019Y-45363151D01*
X104391021Y-45363153D01*
X104417134Y-45391519D01*
X104448055Y-45454172D01*
X104440195Y-45523598D01*
X104396048Y-45577753D01*
X104329630Y-45599444D01*
X104325903Y-45599500D01*
X102628991Y-45599500D01*
X102561952Y-45579815D01*
X102537762Y-45559483D01*
X102451787Y-45466090D01*
X102451777Y-45466081D01*
X102268634Y-45323535D01*
X102268628Y-45323531D01*
X102064504Y-45213064D01*
X102064495Y-45213061D01*
X101844984Y-45137702D01*
X101673282Y-45109050D01*
X101616049Y-45099500D01*
X101383951Y-45099500D01*
X101338164Y-45107140D01*
X101155015Y-45137702D01*
X100935504Y-45213061D01*
X100935495Y-45213064D01*
X100731371Y-45323531D01*
X100731365Y-45323535D01*
X100548222Y-45466081D01*
X100548219Y-45466084D01*
X100391016Y-45636852D01*
X100264075Y-45831151D01*
X100170842Y-46043699D01*
X100113866Y-46268691D01*
X100113864Y-46268702D01*
X100094700Y-46499993D01*
X100094700Y-46500006D01*
X100113864Y-46731297D01*
X100113866Y-46731308D01*
X100170842Y-46956300D01*
X100264075Y-47168848D01*
X100391016Y-47363147D01*
X100391019Y-47363151D01*
X100391021Y-47363153D01*
X100548216Y-47533913D01*
X100548219Y-47533915D01*
X100548222Y-47533918D01*
X100731365Y-47676464D01*
X100731371Y-47676468D01*
X100731374Y-47676470D01*
X100935497Y-47786936D01*
X101049487Y-47826068D01*
X101155015Y-47862297D01*
X101155017Y-47862297D01*
X101155019Y-47862298D01*
X101383951Y-47900500D01*
X101383952Y-47900500D01*
X101616048Y-47900500D01*
X101616049Y-47900500D01*
X101844981Y-47862298D01*
X102064503Y-47786936D01*
X102268626Y-47676470D01*
X102271759Y-47674032D01*
X102330129Y-47628600D01*
X102451784Y-47533913D01*
X102483833Y-47499098D01*
X102537762Y-47440517D01*
X102597649Y-47404526D01*
X102628991Y-47400500D01*
X104475500Y-47400500D01*
X104542539Y-47420185D01*
X104588294Y-47472989D01*
X104599500Y-47524500D01*
X104599500Y-48365551D01*
X104579815Y-48432590D01*
X104551664Y-48463403D01*
X104548219Y-48466084D01*
X104391016Y-48636852D01*
X104264075Y-48831151D01*
X104170842Y-49043699D01*
X104113866Y-49268691D01*
X104113864Y-49268702D01*
X104094700Y-49499993D01*
X104094700Y-49500006D01*
X104113864Y-49731297D01*
X104113866Y-49731308D01*
X104170842Y-49956300D01*
X104264075Y-50168848D01*
X104391016Y-50363147D01*
X104391019Y-50363151D01*
X104391021Y-50363153D01*
X104548216Y-50533913D01*
X104548219Y-50533915D01*
X104548222Y-50533918D01*
X104731365Y-50676464D01*
X104731371Y-50676468D01*
X104731374Y-50676470D01*
X104935497Y-50786936D01*
X105006099Y-50811173D01*
X105143135Y-50858219D01*
X105200150Y-50898605D01*
X105226281Y-50963404D01*
X105213229Y-51032044D01*
X105165141Y-51082732D01*
X105102872Y-51099500D01*
X99524500Y-51099500D01*
X99457461Y-51079815D01*
X99411706Y-51027011D01*
X99400500Y-50975500D01*
X99400500Y-43524500D01*
X99420185Y-43457461D01*
X99472989Y-43411706D01*
X99524500Y-43400500D01*
X104325903Y-43400500D01*
X104392942Y-43420185D01*
G37*
%TD.AperFunction*%
%TA.AperFunction,NonConductor*%
G36*
X97522737Y-46768878D02*
G01*
X97577223Y-46812617D01*
X97599412Y-46878869D01*
X97599500Y-46883528D01*
X97599500Y-54987769D01*
X97579815Y-55054808D01*
X97563182Y-55075450D01*
X97457287Y-55181345D01*
X97365183Y-55330670D01*
X97362383Y-55336677D01*
X97316212Y-55389117D01*
X97249019Y-55408271D01*
X97182138Y-55388057D01*
X97137617Y-55336677D01*
X97134816Y-55330670D01*
X97134812Y-55330663D01*
X97042712Y-55181344D01*
X96936818Y-55075450D01*
X96903334Y-55014127D01*
X96900500Y-54987769D01*
X96900500Y-47634448D01*
X96920185Y-47567409D01*
X96948343Y-47536590D01*
X96951784Y-47533913D01*
X97108979Y-47363153D01*
X97235924Y-47168849D01*
X97329157Y-46956300D01*
X97355294Y-46853087D01*
X97390834Y-46792932D01*
X97453254Y-46761540D01*
X97522737Y-46768878D01*
G37*
%TD.AperFunction*%
%TA.AperFunction,NonConductor*%
G36*
X112817859Y-56611940D02*
G01*
X112862385Y-56663325D01*
X112865184Y-56669330D01*
X112865186Y-56669334D01*
X112865188Y-56669336D01*
X112957289Y-56818657D01*
X113050951Y-56912319D01*
X113084436Y-56973642D01*
X113079452Y-57043334D01*
X113050951Y-57087681D01*
X112957289Y-57181342D01*
X112865183Y-57330670D01*
X112862383Y-57336677D01*
X112816212Y-57389117D01*
X112749019Y-57408271D01*
X112682138Y-57388057D01*
X112637617Y-57336677D01*
X112634816Y-57330670D01*
X112632159Y-57326362D01*
X112542712Y-57181344D01*
X112449049Y-57087681D01*
X112415564Y-57026358D01*
X112420548Y-56956666D01*
X112449049Y-56912319D01*
X112460868Y-56900500D01*
X112542712Y-56818656D01*
X112634814Y-56669334D01*
X112634817Y-56669322D01*
X112637615Y-56663325D01*
X112683785Y-56610884D01*
X112750977Y-56591728D01*
X112817859Y-56611940D01*
G37*
%TD.AperFunction*%
%TA.AperFunction,NonConductor*%
G36*
X97317859Y-56611940D02*
G01*
X97362385Y-56663325D01*
X97365184Y-56669330D01*
X97365186Y-56669334D01*
X97365188Y-56669336D01*
X97457289Y-56818657D01*
X97550951Y-56912319D01*
X97584436Y-56973642D01*
X97579452Y-57043334D01*
X97550951Y-57087681D01*
X97457289Y-57181342D01*
X97365183Y-57330670D01*
X97362383Y-57336677D01*
X97316212Y-57389117D01*
X97249019Y-57408271D01*
X97182138Y-57388057D01*
X97137617Y-57336677D01*
X97134816Y-57330670D01*
X97132159Y-57326362D01*
X97042712Y-57181344D01*
X96949049Y-57087681D01*
X96915564Y-57026358D01*
X96920548Y-56956666D01*
X96949049Y-56912319D01*
X96960868Y-56900500D01*
X97042712Y-56818656D01*
X97134814Y-56669334D01*
X97134817Y-56669322D01*
X97137615Y-56663325D01*
X97183785Y-56610884D01*
X97250977Y-56591728D01*
X97317859Y-56611940D01*
G37*
%TD.AperFunction*%
%TA.AperFunction,NonConductor*%
G36*
X85705703Y-32496389D02*
G01*
X85723762Y-32515786D01*
X85792454Y-32607546D01*
X85809338Y-32620185D01*
X85907664Y-32693793D01*
X85907671Y-32693797D01*
X85952618Y-32710561D01*
X86042517Y-32744091D01*
X86102127Y-32750500D01*
X86575500Y-32750499D01*
X86642539Y-32770183D01*
X86688294Y-32822987D01*
X86699500Y-32874499D01*
X86699500Y-52688696D01*
X86734103Y-52862659D01*
X86734106Y-52862670D01*
X86749775Y-52900494D01*
X86749776Y-52900500D01*
X86749777Y-52900500D01*
X86801984Y-53026542D01*
X86801985Y-53026544D01*
X86850732Y-53099499D01*
X86850734Y-53099501D01*
X86900534Y-53174034D01*
X86900538Y-53174039D01*
X89063181Y-55336680D01*
X89096666Y-55398003D01*
X89099500Y-55424361D01*
X89099500Y-57213568D01*
X89079815Y-57280607D01*
X89027011Y-57326362D01*
X88957853Y-57336306D01*
X88901190Y-57312835D01*
X88892334Y-57306206D01*
X88892328Y-57306202D01*
X88757482Y-57255908D01*
X88757483Y-57255908D01*
X88697883Y-57249501D01*
X88697881Y-57249500D01*
X88697873Y-57249500D01*
X88697864Y-57249500D01*
X86102129Y-57249500D01*
X86102123Y-57249501D01*
X86042516Y-57255908D01*
X85907671Y-57306202D01*
X85907664Y-57306206D01*
X85792455Y-57392452D01*
X85792452Y-57392455D01*
X85723766Y-57484208D01*
X85667832Y-57526079D01*
X85598141Y-57531063D01*
X85536818Y-57497577D01*
X85503334Y-57436254D01*
X85500500Y-57409897D01*
X85500500Y-32590102D01*
X85520185Y-32523063D01*
X85572989Y-32477308D01*
X85642147Y-32467364D01*
X85705703Y-32496389D01*
G37*
%TD.AperFunction*%
%TA.AperFunction,NonConductor*%
G36*
X124463182Y-32502421D02*
G01*
X124496666Y-32563745D01*
X124499500Y-32590102D01*
X124499500Y-57409897D01*
X124479815Y-57476936D01*
X124427011Y-57522691D01*
X124357853Y-57532635D01*
X124294297Y-57503610D01*
X124276234Y-57484208D01*
X124207547Y-57392455D01*
X124207544Y-57392452D01*
X124092335Y-57306206D01*
X124092328Y-57306202D01*
X123957482Y-57255908D01*
X123957483Y-57255908D01*
X123897883Y-57249501D01*
X123897881Y-57249500D01*
X123897873Y-57249500D01*
X123897865Y-57249500D01*
X123424500Y-57249500D01*
X123357461Y-57229815D01*
X123311706Y-57177011D01*
X123300500Y-57125500D01*
X123300500Y-55311307D01*
X123298358Y-55300542D01*
X123298358Y-55300536D01*
X123265896Y-55137341D01*
X123265895Y-55137334D01*
X123233647Y-55059483D01*
X123231983Y-55055465D01*
X123231978Y-55055455D01*
X123231953Y-55055393D01*
X123198013Y-54973453D01*
X123192488Y-54965185D01*
X123126145Y-54865895D01*
X123126144Y-54865894D01*
X123099462Y-54825961D01*
X121569717Y-53296216D01*
X121569694Y-53296195D01*
X120936819Y-52663319D01*
X120903334Y-52601996D01*
X120900500Y-52575638D01*
X120900500Y-32786431D01*
X120920185Y-32719392D01*
X120972989Y-32673637D01*
X121042147Y-32663693D01*
X121098813Y-32687166D01*
X121107669Y-32693796D01*
X121107670Y-32693796D01*
X121107671Y-32693797D01*
X121242517Y-32744091D01*
X121242516Y-32744091D01*
X121249444Y-32744835D01*
X121302127Y-32750500D01*
X123897872Y-32750499D01*
X123957483Y-32744091D01*
X124092331Y-32693796D01*
X124207546Y-32607546D01*
X124276234Y-32515789D01*
X124332167Y-32473920D01*
X124401859Y-32468936D01*
X124463182Y-32502421D01*
G37*
%TD.AperFunction*%
%TA.AperFunction,NonConductor*%
G36*
X112817859Y-58611940D02*
G01*
X112862385Y-58663325D01*
X112865184Y-58669330D01*
X112865186Y-58669334D01*
X112865188Y-58669336D01*
X112957289Y-58818657D01*
X113026451Y-58887819D01*
X113059936Y-58949142D01*
X113054952Y-59018834D01*
X113013080Y-59074767D01*
X112947616Y-59099184D01*
X112938770Y-59099500D01*
X112561231Y-59099500D01*
X112494192Y-59079815D01*
X112448437Y-59027011D01*
X112438493Y-58957853D01*
X112467518Y-58894297D01*
X112473549Y-58887819D01*
X112542712Y-58818656D01*
X112634814Y-58669334D01*
X112634817Y-58669322D01*
X112637615Y-58663325D01*
X112683785Y-58610884D01*
X112750977Y-58591728D01*
X112817859Y-58611940D01*
G37*
%TD.AperFunction*%
%TA.AperFunction,NonConductor*%
G36*
X90768833Y-30107179D02*
G01*
X90824767Y-30149050D01*
X90849184Y-30214515D01*
X90849500Y-30223361D01*
X90849500Y-30597869D01*
X90849501Y-30597876D01*
X90855908Y-30657483D01*
X90909303Y-30800641D01*
X90907575Y-30801285D01*
X90920095Y-30858853D01*
X90908310Y-30898988D01*
X90909303Y-30899359D01*
X90855908Y-31042517D01*
X90849501Y-31102116D01*
X90849501Y-31102123D01*
X90849500Y-31102135D01*
X90849500Y-32297870D01*
X90849501Y-32297876D01*
X90855908Y-32357483D01*
X90906202Y-32492328D01*
X90906206Y-32492335D01*
X90992452Y-32607544D01*
X90992455Y-32607547D01*
X91107664Y-32693793D01*
X91107671Y-32693797D01*
X91242517Y-32744091D01*
X91242516Y-32744091D01*
X91249444Y-32744835D01*
X91302127Y-32750500D01*
X93897872Y-32750499D01*
X93957483Y-32744091D01*
X94092331Y-32693796D01*
X94150819Y-32650011D01*
X94183920Y-32625233D01*
X94249385Y-32600816D01*
X94258231Y-32600500D01*
X94675501Y-32600500D01*
X94742540Y-32620185D01*
X94788295Y-32672989D01*
X94799501Y-32724500D01*
X94799501Y-32900018D01*
X94810000Y-33002796D01*
X94810001Y-33002799D01*
X94865185Y-33169331D01*
X94865187Y-33169336D01*
X94957289Y-33318657D01*
X95050951Y-33412319D01*
X95084436Y-33473642D01*
X95079452Y-33543334D01*
X95050951Y-33587681D01*
X94957289Y-33681342D01*
X94865187Y-33830663D01*
X94865185Y-33830668D01*
X94863194Y-33836677D01*
X94810001Y-33997203D01*
X94810001Y-33997204D01*
X94810000Y-33997204D01*
X94799500Y-34099983D01*
X94799500Y-34900001D01*
X94799501Y-34900019D01*
X94810000Y-35002796D01*
X94810001Y-35002799D01*
X94865185Y-35169331D01*
X94865187Y-35169336D01*
X94957289Y-35318657D01*
X95063181Y-35424549D01*
X95096666Y-35485872D01*
X95099500Y-35512230D01*
X95099500Y-40588696D01*
X95134103Y-40762658D01*
X95134105Y-40762666D01*
X95168046Y-40844606D01*
X95168046Y-40844607D01*
X95201984Y-40926542D01*
X95201985Y-40926544D01*
X95261063Y-41014960D01*
X95261064Y-41014961D01*
X95300534Y-41074034D01*
X97425966Y-43199466D01*
X97485036Y-43238933D01*
X97485039Y-43238936D01*
X97544391Y-43278594D01*
X97589196Y-43332206D01*
X97599500Y-43381696D01*
X97599500Y-46116471D01*
X97579815Y-46183510D01*
X97527011Y-46229265D01*
X97457853Y-46239209D01*
X97394297Y-46210184D01*
X97356523Y-46151406D01*
X97355294Y-46146912D01*
X97329156Y-46043699D01*
X97235924Y-45831151D01*
X97230057Y-45822171D01*
X97108983Y-45636852D01*
X97108980Y-45636849D01*
X97108979Y-45636847D01*
X96951784Y-45466087D01*
X96951779Y-45466083D01*
X96951777Y-45466081D01*
X96768634Y-45323535D01*
X96768628Y-45323531D01*
X96564504Y-45213064D01*
X96564495Y-45213061D01*
X96344984Y-45137702D01*
X96173282Y-45109050D01*
X96116049Y-45099500D01*
X95883951Y-45099500D01*
X95838164Y-45107140D01*
X95655015Y-45137702D01*
X95435504Y-45213061D01*
X95435495Y-45213064D01*
X95231371Y-45323531D01*
X95231365Y-45323535D01*
X95048222Y-45466081D01*
X95048219Y-45466084D01*
X94891016Y-45636852D01*
X94764075Y-45831151D01*
X94670842Y-46043699D01*
X94613866Y-46268691D01*
X94613864Y-46268702D01*
X94594700Y-46499993D01*
X94594700Y-46500006D01*
X94613864Y-46731297D01*
X94613866Y-46731308D01*
X94670842Y-46956300D01*
X94764075Y-47168848D01*
X94891016Y-47363147D01*
X94891019Y-47363151D01*
X94891021Y-47363153D01*
X95048216Y-47533913D01*
X95051655Y-47536589D01*
X95092472Y-47593295D01*
X95099500Y-47634448D01*
X95099500Y-54987769D01*
X95079815Y-55054808D01*
X95063182Y-55075450D01*
X94957287Y-55181345D01*
X94865187Y-55330663D01*
X94865185Y-55330668D01*
X94865025Y-55331151D01*
X94810001Y-55497203D01*
X94810001Y-55497204D01*
X94810000Y-55497204D01*
X94799500Y-55599983D01*
X94799500Y-56400001D01*
X94799501Y-56400019D01*
X94810000Y-56502796D01*
X94810001Y-56502799D01*
X94865185Y-56669331D01*
X94865187Y-56669336D01*
X94957289Y-56818657D01*
X95050951Y-56912319D01*
X95084436Y-56973642D01*
X95079452Y-57043334D01*
X95050951Y-57087681D01*
X94957289Y-57181342D01*
X94865187Y-57330663D01*
X94865185Y-57330668D01*
X94846168Y-57388057D01*
X94810001Y-57497203D01*
X94810001Y-57497204D01*
X94810000Y-57497204D01*
X94799500Y-57599983D01*
X94799500Y-58400001D01*
X94799501Y-58400019D01*
X94810000Y-58502796D01*
X94810001Y-58502799D01*
X94846167Y-58611940D01*
X94865186Y-58669334D01*
X94957288Y-58818656D01*
X95026451Y-58887819D01*
X95059935Y-58949143D01*
X95054950Y-59018834D01*
X95013079Y-59074768D01*
X94947614Y-59099184D01*
X94938769Y-59099500D01*
X94466868Y-59099500D01*
X94399829Y-59079815D01*
X94354074Y-59027011D01*
X94343579Y-58962244D01*
X94344988Y-58949142D01*
X94350500Y-58897873D01*
X94350499Y-57702128D01*
X94344091Y-57642517D01*
X94337914Y-57625956D01*
X94293797Y-57507671D01*
X94293793Y-57507664D01*
X94207547Y-57392455D01*
X94207544Y-57392452D01*
X94092335Y-57306206D01*
X94092328Y-57306202D01*
X93957482Y-57255908D01*
X93957483Y-57255908D01*
X93897883Y-57249501D01*
X93897881Y-57249500D01*
X93897873Y-57249500D01*
X93897864Y-57249500D01*
X91302129Y-57249500D01*
X91302123Y-57249501D01*
X91242516Y-57255908D01*
X91107671Y-57306202D01*
X91107665Y-57306206D01*
X91098810Y-57312835D01*
X91033346Y-57337252D01*
X90965073Y-57322400D01*
X90915668Y-57272995D01*
X90900500Y-57213568D01*
X90900500Y-54911308D01*
X90900499Y-54911305D01*
X90900239Y-54910000D01*
X90883040Y-54823530D01*
X90865895Y-54737334D01*
X90800339Y-54579071D01*
X90798695Y-54574474D01*
X90795516Y-54569717D01*
X90699464Y-54425965D01*
X90574035Y-54300536D01*
X88536819Y-52263319D01*
X88503334Y-52201996D01*
X88500500Y-52175638D01*
X88500500Y-32874499D01*
X88520185Y-32807460D01*
X88572989Y-32761705D01*
X88624500Y-32750499D01*
X88697871Y-32750499D01*
X88697872Y-32750499D01*
X88757483Y-32744091D01*
X88892331Y-32693796D01*
X89007546Y-32607546D01*
X89093796Y-32492331D01*
X89144091Y-32357483D01*
X89150500Y-32297873D01*
X89150499Y-31102128D01*
X89144091Y-31042517D01*
X89143579Y-31037753D01*
X89155986Y-30968994D01*
X89203597Y-30917857D01*
X89266869Y-30900500D01*
X89588693Y-30900500D01*
X89588694Y-30900499D01*
X89762666Y-30865895D01*
X89844606Y-30831953D01*
X89926547Y-30798013D01*
X90017359Y-30737334D01*
X90017361Y-30737333D01*
X90036251Y-30724710D01*
X90074036Y-30699464D01*
X90637819Y-30135679D01*
X90699142Y-30102195D01*
X90768833Y-30107179D01*
G37*
%TD.AperFunction*%
%TA.AperFunction,NonConductor*%
G36*
X97317859Y-58611940D02*
G01*
X97362385Y-58663325D01*
X97365184Y-58669330D01*
X97365186Y-58669334D01*
X97365188Y-58669336D01*
X97457289Y-58818657D01*
X97563181Y-58924549D01*
X97596666Y-58985872D01*
X97599500Y-59012230D01*
X97599500Y-59575638D01*
X97579815Y-59642677D01*
X97563181Y-59663319D01*
X96463319Y-60763181D01*
X96401996Y-60796666D01*
X96375638Y-60799500D01*
X96273363Y-60799500D01*
X96206324Y-60779815D01*
X96160569Y-60727011D01*
X96150625Y-60657853D01*
X96179650Y-60594297D01*
X96185682Y-60587819D01*
X96699461Y-60074038D01*
X96699462Y-60074037D01*
X96699463Y-60074036D01*
X96699464Y-60074035D01*
X96772605Y-59964572D01*
X96798013Y-59926547D01*
X96817895Y-59878547D01*
X96865895Y-59762666D01*
X96900500Y-59588692D01*
X96900500Y-59411308D01*
X96900500Y-59012230D01*
X96920185Y-58945191D01*
X96936819Y-58924549D01*
X96973549Y-58887819D01*
X97042712Y-58818656D01*
X97134814Y-58669334D01*
X97134817Y-58669322D01*
X97137615Y-58663325D01*
X97183785Y-58610884D01*
X97250977Y-58591728D01*
X97317859Y-58611940D01*
G37*
%TD.AperFunction*%
%TA.AperFunction,NonConductor*%
G36*
X112642677Y-52920185D02*
G01*
X112663319Y-52936819D01*
X113063181Y-53336680D01*
X113096666Y-53398003D01*
X113099500Y-53424361D01*
X113099500Y-54987769D01*
X113079815Y-55054808D01*
X113063182Y-55075450D01*
X112957287Y-55181345D01*
X112865183Y-55330670D01*
X112862383Y-55336677D01*
X112816212Y-55389117D01*
X112749019Y-55408271D01*
X112682138Y-55388057D01*
X112637617Y-55336677D01*
X112634816Y-55330670D01*
X112634812Y-55330663D01*
X112542712Y-55181344D01*
X112418656Y-55057288D01*
X112282734Y-54973451D01*
X112269336Y-54965187D01*
X112269331Y-54965185D01*
X112267862Y-54964698D01*
X112102797Y-54910001D01*
X112102795Y-54910000D01*
X112000010Y-54899500D01*
X110999998Y-54899500D01*
X110999980Y-54899501D01*
X110897203Y-54910000D01*
X110897200Y-54910001D01*
X110730668Y-54965185D01*
X110730663Y-54965187D01*
X110581342Y-55057289D01*
X110575451Y-55063181D01*
X110514128Y-55096666D01*
X110487770Y-55099500D01*
X106628991Y-55099500D01*
X106561952Y-55079815D01*
X106537762Y-55059483D01*
X106451787Y-54966090D01*
X106451777Y-54966081D01*
X106268634Y-54823535D01*
X106268628Y-54823531D01*
X106064504Y-54713064D01*
X106064495Y-54713061D01*
X105844984Y-54637702D01*
X105673282Y-54609050D01*
X105616049Y-54599500D01*
X105383951Y-54599500D01*
X105338164Y-54607140D01*
X105155015Y-54637702D01*
X104935504Y-54713061D01*
X104935495Y-54713064D01*
X104731371Y-54823531D01*
X104731365Y-54823535D01*
X104548222Y-54966081D01*
X104548219Y-54966084D01*
X104548216Y-54966086D01*
X104548216Y-54966087D01*
X104503992Y-55014127D01*
X104391016Y-55136852D01*
X104264075Y-55331151D01*
X104170842Y-55543699D01*
X104113866Y-55768691D01*
X104113864Y-55768702D01*
X104094700Y-55999993D01*
X104094700Y-56000006D01*
X104113864Y-56231297D01*
X104113866Y-56231308D01*
X104170842Y-56456300D01*
X104264075Y-56668848D01*
X104391016Y-56863147D01*
X104391019Y-56863151D01*
X104391021Y-56863153D01*
X104548216Y-57033913D01*
X104548219Y-57033915D01*
X104548222Y-57033918D01*
X104731365Y-57176464D01*
X104731371Y-57176468D01*
X104731374Y-57176470D01*
X104935497Y-57286936D01*
X105038800Y-57322400D01*
X105155015Y-57362297D01*
X105155017Y-57362297D01*
X105155019Y-57362298D01*
X105383951Y-57400500D01*
X105383952Y-57400500D01*
X105434206Y-57400500D01*
X105501245Y-57420185D01*
X105503637Y-57422946D01*
X105538106Y-57403631D01*
X105565794Y-57400500D01*
X105616048Y-57400500D01*
X105616049Y-57400500D01*
X105844981Y-57362298D01*
X106064503Y-57286936D01*
X106268626Y-57176470D01*
X106451784Y-57033913D01*
X106483833Y-56999098D01*
X106537762Y-56940517D01*
X106597649Y-56904526D01*
X106628991Y-56900500D01*
X110438770Y-56900500D01*
X110505809Y-56920185D01*
X110551564Y-56972989D01*
X110561508Y-57042147D01*
X110532483Y-57105703D01*
X110526451Y-57112181D01*
X110457289Y-57181342D01*
X110365187Y-57330663D01*
X110365185Y-57330668D01*
X110346168Y-57388057D01*
X110310001Y-57497203D01*
X110310001Y-57497204D01*
X110310000Y-57497204D01*
X110299500Y-57599983D01*
X110299500Y-58400001D01*
X110299501Y-58400019D01*
X110310000Y-58502796D01*
X110310001Y-58502799D01*
X110365185Y-58669331D01*
X110365187Y-58669336D01*
X110457289Y-58818657D01*
X110563181Y-58924549D01*
X110596666Y-58985872D01*
X110599500Y-59012230D01*
X110599500Y-59588696D01*
X110634103Y-59762659D01*
X110634106Y-59762669D01*
X110649792Y-59800536D01*
X110649793Y-59800539D01*
X110701984Y-59926542D01*
X110701986Y-59926545D01*
X110701987Y-59926547D01*
X110727393Y-59964569D01*
X110727396Y-59964573D01*
X110800537Y-60074038D01*
X110800538Y-60074039D01*
X111300536Y-60574035D01*
X111383984Y-60657483D01*
X111425966Y-60699465D01*
X111573448Y-60798010D01*
X111573449Y-60798010D01*
X111573453Y-60798013D01*
X111614575Y-60815046D01*
X111737334Y-60865895D01*
X111911303Y-60900499D01*
X111911307Y-60900500D01*
X111911308Y-60900500D01*
X111911309Y-60900500D01*
X115533132Y-60900500D01*
X115600171Y-60920185D01*
X115645926Y-60972989D01*
X115656421Y-61037756D01*
X115649500Y-61102118D01*
X115649500Y-62297870D01*
X115649501Y-62297876D01*
X115655908Y-62357483D01*
X115706202Y-62492328D01*
X115706206Y-62492335D01*
X115792452Y-62607544D01*
X115792455Y-62607547D01*
X115907664Y-62693793D01*
X115907671Y-62693797D01*
X116042517Y-62744091D01*
X116042516Y-62744091D01*
X116049444Y-62744835D01*
X116102127Y-62750500D01*
X118676638Y-62750499D01*
X118743677Y-62770184D01*
X118789432Y-62822987D01*
X118799376Y-62892146D01*
X118770351Y-62955702D01*
X118764320Y-62962180D01*
X118663317Y-63063182D01*
X118601997Y-63096666D01*
X118575638Y-63099500D01*
X105565794Y-63099500D01*
X105498755Y-63079815D01*
X105496362Y-63077053D01*
X105461894Y-63096369D01*
X105434206Y-63099500D01*
X91424361Y-63099500D01*
X91357322Y-63079815D01*
X91336684Y-63063185D01*
X91235678Y-62962179D01*
X91202195Y-62900856D01*
X91207179Y-62831165D01*
X91249051Y-62775232D01*
X91314516Y-62750815D01*
X91323333Y-62750499D01*
X93897872Y-62750499D01*
X93957483Y-62744091D01*
X94092331Y-62693796D01*
X94150819Y-62650011D01*
X94183920Y-62625233D01*
X94249385Y-62600816D01*
X94258231Y-62600500D01*
X96888693Y-62600500D01*
X96888694Y-62600499D01*
X97062666Y-62565895D01*
X97144606Y-62531953D01*
X97226547Y-62498013D01*
X97226549Y-62498011D01*
X97226552Y-62498010D01*
X97314955Y-62438939D01*
X97314955Y-62438938D01*
X97314959Y-62438936D01*
X97374036Y-62399464D01*
X99199464Y-60574036D01*
X99238936Y-60514959D01*
X99298013Y-60426547D01*
X99331953Y-60344606D01*
X99365895Y-60262666D01*
X99368414Y-60250000D01*
X102894747Y-60250000D01*
X102913741Y-60564023D01*
X102913741Y-60564028D01*
X102913742Y-60564029D01*
X102970451Y-60873478D01*
X102970452Y-60873482D01*
X102970453Y-60873486D01*
X103064039Y-61173816D01*
X103064043Y-61173827D01*
X103064044Y-61173830D01*
X103064046Y-61173835D01*
X103193163Y-61460721D01*
X103355919Y-61729952D01*
X103355924Y-61729960D01*
X103549942Y-61977605D01*
X103772394Y-62200057D01*
X104020039Y-62394075D01*
X104020044Y-62394078D01*
X104020048Y-62394081D01*
X104289279Y-62556837D01*
X104576165Y-62685954D01*
X104576175Y-62685957D01*
X104576183Y-62685960D01*
X104683471Y-62719392D01*
X104876522Y-62779549D01*
X105185971Y-62836258D01*
X105441693Y-62851726D01*
X105503596Y-62874043D01*
X105530859Y-62856523D01*
X105558305Y-62851726D01*
X105814029Y-62836258D01*
X106123478Y-62779549D01*
X106398679Y-62693793D01*
X106423816Y-62685960D01*
X106423817Y-62685959D01*
X106423835Y-62685954D01*
X106710721Y-62556837D01*
X106979952Y-62394081D01*
X107227602Y-62200060D01*
X107450060Y-61977602D01*
X107644081Y-61729952D01*
X107806837Y-61460721D01*
X107935954Y-61173835D01*
X108029549Y-60873478D01*
X108086258Y-60564029D01*
X108105253Y-60250000D01*
X108086258Y-59935971D01*
X108029549Y-59626522D01*
X107962486Y-59411308D01*
X107935960Y-59326183D01*
X107935956Y-59326172D01*
X107935954Y-59326165D01*
X107806837Y-59039279D01*
X107644081Y-58770048D01*
X107644078Y-58770044D01*
X107644075Y-58770039D01*
X107450057Y-58522394D01*
X107227605Y-58299942D01*
X106979960Y-58105924D01*
X106979952Y-58105919D01*
X106710721Y-57943163D01*
X106423835Y-57814046D01*
X106423830Y-57814044D01*
X106423827Y-57814043D01*
X106423816Y-57814039D01*
X106123486Y-57720453D01*
X106123482Y-57720452D01*
X106123478Y-57720451D01*
X105814029Y-57663742D01*
X105814028Y-57663741D01*
X105814023Y-57663741D01*
X105599861Y-57650787D01*
X105558306Y-57648273D01*
X105496403Y-57625956D01*
X105469141Y-57643477D01*
X105441694Y-57648273D01*
X105403199Y-57650602D01*
X105185976Y-57663741D01*
X105185971Y-57663742D01*
X104876522Y-57720451D01*
X104876519Y-57720451D01*
X104876513Y-57720453D01*
X104576183Y-57814039D01*
X104576172Y-57814043D01*
X104289283Y-57943161D01*
X104289281Y-57943162D01*
X104020039Y-58105924D01*
X103772394Y-58299942D01*
X103549942Y-58522394D01*
X103355924Y-58770039D01*
X103278646Y-58897873D01*
X103205523Y-59018834D01*
X103193162Y-59039281D01*
X103193161Y-59039283D01*
X103064043Y-59326172D01*
X103064039Y-59326183D01*
X102970453Y-59626513D01*
X102970451Y-59626519D01*
X102970451Y-59626522D01*
X102963708Y-59663319D01*
X102913741Y-59935976D01*
X102894747Y-60250000D01*
X99368414Y-60250000D01*
X99400500Y-60088692D01*
X99400500Y-59911308D01*
X99400500Y-59012230D01*
X99420185Y-58945191D01*
X99436819Y-58924549D01*
X99473549Y-58887819D01*
X99542712Y-58818656D01*
X99634814Y-58669334D01*
X99689999Y-58502797D01*
X99700500Y-58400009D01*
X99700499Y-57599992D01*
X99689999Y-57497203D01*
X99634814Y-57330666D01*
X99542712Y-57181344D01*
X99449049Y-57087681D01*
X99415564Y-57026358D01*
X99420548Y-56956666D01*
X99449049Y-56912319D01*
X99460868Y-56900500D01*
X99542712Y-56818656D01*
X99634814Y-56669334D01*
X99689999Y-56502797D01*
X99700500Y-56400009D01*
X99700499Y-55599992D01*
X99689999Y-55497203D01*
X99634814Y-55330666D01*
X99542712Y-55181344D01*
X99436818Y-55075450D01*
X99403334Y-55014127D01*
X99400500Y-54987769D01*
X99400500Y-53024500D01*
X99420185Y-52957461D01*
X99472989Y-52911706D01*
X99524500Y-52900500D01*
X112575638Y-52900500D01*
X112642677Y-52920185D01*
G37*
%TD.AperFunction*%
%TA.AperFunction,NonConductor*%
G36*
X124463182Y-62502421D02*
G01*
X124496666Y-62563745D01*
X124499500Y-62590102D01*
X124499500Y-64875500D01*
X124479815Y-64942539D01*
X124427011Y-64988294D01*
X124375500Y-64999500D01*
X119533772Y-64999500D01*
X119466733Y-64979815D01*
X119420978Y-64927011D01*
X119411034Y-64857853D01*
X119440059Y-64794297D01*
X119464880Y-64772399D01*
X119514955Y-64738939D01*
X119514955Y-64738938D01*
X119514959Y-64738936D01*
X119574036Y-64699464D01*
X120699464Y-63574035D01*
X120699853Y-63573453D01*
X120798013Y-63426547D01*
X120817895Y-63378547D01*
X120865895Y-63262666D01*
X120900500Y-63088691D01*
X120900500Y-62911308D01*
X120900500Y-62786431D01*
X120920185Y-62719392D01*
X120972989Y-62673637D01*
X121042147Y-62663693D01*
X121098813Y-62687166D01*
X121107669Y-62693796D01*
X121107670Y-62693796D01*
X121107671Y-62693797D01*
X121242517Y-62744091D01*
X121242516Y-62744091D01*
X121249444Y-62744835D01*
X121302127Y-62750500D01*
X123897872Y-62750499D01*
X123957483Y-62744091D01*
X124092331Y-62693796D01*
X124207546Y-62607546D01*
X124276234Y-62515789D01*
X124332167Y-62473920D01*
X124401859Y-62468936D01*
X124463182Y-62502421D01*
G37*
%TD.AperFunction*%
%TA.AperFunction,NonConductor*%
G36*
X85705703Y-62496389D02*
G01*
X85723762Y-62515786D01*
X85792454Y-62607546D01*
X85816081Y-62625233D01*
X85907664Y-62693793D01*
X85907671Y-62693797D01*
X86042517Y-62744091D01*
X86042516Y-62744091D01*
X86049444Y-62744835D01*
X86102127Y-62750500D01*
X88697872Y-62750499D01*
X88757483Y-62744091D01*
X88892331Y-62693796D01*
X88901186Y-62687166D01*
X88966649Y-62662747D01*
X89034923Y-62677596D01*
X89084330Y-62727000D01*
X89099500Y-62786431D01*
X89099500Y-63088696D01*
X89134103Y-63262659D01*
X89134106Y-63262669D01*
X89149792Y-63300536D01*
X89149793Y-63300539D01*
X89201984Y-63426542D01*
X89201985Y-63426544D01*
X89261063Y-63514960D01*
X89300537Y-63574038D01*
X89300540Y-63574041D01*
X90300536Y-64574035D01*
X90425962Y-64699461D01*
X90425966Y-64699465D01*
X90535118Y-64772398D01*
X90579923Y-64826010D01*
X90588630Y-64895335D01*
X90558476Y-64958362D01*
X90499033Y-64995082D01*
X90466227Y-64999500D01*
X85624500Y-64999500D01*
X85557461Y-64979815D01*
X85511706Y-64927011D01*
X85500500Y-64875500D01*
X85500500Y-62590102D01*
X85520185Y-62523063D01*
X85572989Y-62477308D01*
X85642147Y-62467364D01*
X85705703Y-62496389D01*
G37*
%TD.AperFunction*%
M02*
