%TF.GenerationSoftware,KiCad,Pcbnew,8.0.1*%
%TF.CreationDate,2024-07-06T10:32:20+03:00*%
%TF.ProjectId,led_tester,6c65645f-7465-4737-9465-722e6b696361,rev?*%
%TF.SameCoordinates,Original*%
%TF.FileFunction,Legend,Top*%
%TF.FilePolarity,Positive*%
%FSLAX46Y46*%
G04 Gerber Fmt 4.6, Leading zero omitted, Abs format (unit mm)*
G04 Created by KiCad (PCBNEW 8.0.1) date 2024-07-06 10:32:20*
%MOMM*%
%LPD*%
G01*
G04 APERTURE LIST*
G04 Aperture macros list*
%AMRoundRect*
0 Rectangle with rounded corners*
0 $1 Rounding radius*
0 $2 $3 $4 $5 $6 $7 $8 $9 X,Y pos of 4 corners*
0 Add a 4 corners polygon primitive as box body*
4,1,4,$2,$3,$4,$5,$6,$7,$8,$9,$2,$3,0*
0 Add four circle primitives for the rounded corners*
1,1,$1+$1,$2,$3*
1,1,$1+$1,$4,$5*
1,1,$1+$1,$6,$7*
1,1,$1+$1,$8,$9*
0 Add four rect primitives between the rounded corners*
20,1,$1+$1,$2,$3,$4,$5,0*
20,1,$1+$1,$4,$5,$6,$7,0*
20,1,$1+$1,$6,$7,$8,$9,0*
20,1,$1+$1,$8,$9,$2,$3,0*%
G04 Aperture macros list end*
%ADD10C,0.150000*%
%ADD11C,0.120000*%
%ADD12R,2.500000X1.100000*%
%ADD13RoundRect,0.250000X0.450000X-0.350000X0.450000X0.350000X-0.450000X0.350000X-0.450000X-0.350000X0*%
%ADD14RoundRect,0.250000X-0.450000X0.350000X-0.450000X-0.350000X0.450000X-0.350000X0.450000X0.350000X0*%
%ADD15R,1.700000X1.700000*%
%ADD16O,1.700000X1.700000*%
G04 APERTURE END LIST*
D10*
X89261905Y-56954819D02*
X89261905Y-55954819D01*
X89261905Y-55954819D02*
X89500000Y-55954819D01*
X89500000Y-55954819D02*
X89642857Y-56002438D01*
X89642857Y-56002438D02*
X89738095Y-56097676D01*
X89738095Y-56097676D02*
X89785714Y-56192914D01*
X89785714Y-56192914D02*
X89833333Y-56383390D01*
X89833333Y-56383390D02*
X89833333Y-56526247D01*
X89833333Y-56526247D02*
X89785714Y-56716723D01*
X89785714Y-56716723D02*
X89738095Y-56811961D01*
X89738095Y-56811961D02*
X89642857Y-56907200D01*
X89642857Y-56907200D02*
X89500000Y-56954819D01*
X89500000Y-56954819D02*
X89261905Y-56954819D01*
X90166667Y-55954819D02*
X90833333Y-55954819D01*
X90833333Y-55954819D02*
X90404762Y-56954819D01*
X119261905Y-63954819D02*
X119261905Y-62954819D01*
X119261905Y-62954819D02*
X119500000Y-62954819D01*
X119500000Y-62954819D02*
X119642857Y-63002438D01*
X119642857Y-63002438D02*
X119738095Y-63097676D01*
X119738095Y-63097676D02*
X119785714Y-63192914D01*
X119785714Y-63192914D02*
X119833333Y-63383390D01*
X119833333Y-63383390D02*
X119833333Y-63526247D01*
X119833333Y-63526247D02*
X119785714Y-63716723D01*
X119785714Y-63716723D02*
X119738095Y-63811961D01*
X119738095Y-63811961D02*
X119642857Y-63907200D01*
X119642857Y-63907200D02*
X119500000Y-63954819D01*
X119500000Y-63954819D02*
X119261905Y-63954819D01*
X120690476Y-63288152D02*
X120690476Y-63954819D01*
X120452381Y-62907200D02*
X120214286Y-63621485D01*
X120214286Y-63621485D02*
X120833333Y-63621485D01*
X119261905Y-33954819D02*
X119261905Y-32954819D01*
X119261905Y-32954819D02*
X119500000Y-32954819D01*
X119500000Y-32954819D02*
X119642857Y-33002438D01*
X119642857Y-33002438D02*
X119738095Y-33097676D01*
X119738095Y-33097676D02*
X119785714Y-33192914D01*
X119785714Y-33192914D02*
X119833333Y-33383390D01*
X119833333Y-33383390D02*
X119833333Y-33526247D01*
X119833333Y-33526247D02*
X119785714Y-33716723D01*
X119785714Y-33716723D02*
X119738095Y-33811961D01*
X119738095Y-33811961D02*
X119642857Y-33907200D01*
X119642857Y-33907200D02*
X119500000Y-33954819D01*
X119500000Y-33954819D02*
X119261905Y-33954819D01*
X120214286Y-33050057D02*
X120261905Y-33002438D01*
X120261905Y-33002438D02*
X120357143Y-32954819D01*
X120357143Y-32954819D02*
X120595238Y-32954819D01*
X120595238Y-32954819D02*
X120690476Y-33002438D01*
X120690476Y-33002438D02*
X120738095Y-33050057D01*
X120738095Y-33050057D02*
X120785714Y-33145295D01*
X120785714Y-33145295D02*
X120785714Y-33240533D01*
X120785714Y-33240533D02*
X120738095Y-33383390D01*
X120738095Y-33383390D02*
X120166667Y-33954819D01*
X120166667Y-33954819D02*
X120785714Y-33954819D01*
X89261905Y-26954819D02*
X89261905Y-25954819D01*
X89261905Y-25954819D02*
X89500000Y-25954819D01*
X89500000Y-25954819D02*
X89642857Y-26002438D01*
X89642857Y-26002438D02*
X89738095Y-26097676D01*
X89738095Y-26097676D02*
X89785714Y-26192914D01*
X89785714Y-26192914D02*
X89833333Y-26383390D01*
X89833333Y-26383390D02*
X89833333Y-26526247D01*
X89833333Y-26526247D02*
X89785714Y-26716723D01*
X89785714Y-26716723D02*
X89738095Y-26811961D01*
X89738095Y-26811961D02*
X89642857Y-26907200D01*
X89642857Y-26907200D02*
X89500000Y-26954819D01*
X89500000Y-26954819D02*
X89261905Y-26954819D01*
X90785714Y-26954819D02*
X90214286Y-26954819D01*
X90500000Y-26954819D02*
X90500000Y-25954819D01*
X90500000Y-25954819D02*
X90404762Y-26097676D01*
X90404762Y-26097676D02*
X90309524Y-26192914D01*
X90309524Y-26192914D02*
X90214286Y-26240533D01*
X110304819Y-33666666D02*
X109828628Y-33999999D01*
X110304819Y-34238094D02*
X109304819Y-34238094D01*
X109304819Y-34238094D02*
X109304819Y-33857142D01*
X109304819Y-33857142D02*
X109352438Y-33761904D01*
X109352438Y-33761904D02*
X109400057Y-33714285D01*
X109400057Y-33714285D02*
X109495295Y-33666666D01*
X109495295Y-33666666D02*
X109638152Y-33666666D01*
X109638152Y-33666666D02*
X109733390Y-33714285D01*
X109733390Y-33714285D02*
X109781009Y-33761904D01*
X109781009Y-33761904D02*
X109828628Y-33857142D01*
X109828628Y-33857142D02*
X109828628Y-34238094D01*
X109304819Y-32761904D02*
X109304819Y-33238094D01*
X109304819Y-33238094D02*
X109781009Y-33285713D01*
X109781009Y-33285713D02*
X109733390Y-33238094D01*
X109733390Y-33238094D02*
X109685771Y-33142856D01*
X109685771Y-33142856D02*
X109685771Y-32904761D01*
X109685771Y-32904761D02*
X109733390Y-32809523D01*
X109733390Y-32809523D02*
X109781009Y-32761904D01*
X109781009Y-32761904D02*
X109876247Y-32714285D01*
X109876247Y-32714285D02*
X110114342Y-32714285D01*
X110114342Y-32714285D02*
X110209580Y-32761904D01*
X110209580Y-32761904D02*
X110257200Y-32809523D01*
X110257200Y-32809523D02*
X110304819Y-32904761D01*
X110304819Y-32904761D02*
X110304819Y-33142856D01*
X110304819Y-33142856D02*
X110257200Y-33238094D01*
X110257200Y-33238094D02*
X110209580Y-33285713D01*
X113604819Y-57166666D02*
X113128628Y-57499999D01*
X113604819Y-57738094D02*
X112604819Y-57738094D01*
X112604819Y-57738094D02*
X112604819Y-57357142D01*
X112604819Y-57357142D02*
X112652438Y-57261904D01*
X112652438Y-57261904D02*
X112700057Y-57214285D01*
X112700057Y-57214285D02*
X112795295Y-57166666D01*
X112795295Y-57166666D02*
X112938152Y-57166666D01*
X112938152Y-57166666D02*
X113033390Y-57214285D01*
X113033390Y-57214285D02*
X113081009Y-57261904D01*
X113081009Y-57261904D02*
X113128628Y-57357142D01*
X113128628Y-57357142D02*
X113128628Y-57738094D01*
X113033390Y-56595237D02*
X112985771Y-56690475D01*
X112985771Y-56690475D02*
X112938152Y-56738094D01*
X112938152Y-56738094D02*
X112842914Y-56785713D01*
X112842914Y-56785713D02*
X112795295Y-56785713D01*
X112795295Y-56785713D02*
X112700057Y-56738094D01*
X112700057Y-56738094D02*
X112652438Y-56690475D01*
X112652438Y-56690475D02*
X112604819Y-56595237D01*
X112604819Y-56595237D02*
X112604819Y-56404761D01*
X112604819Y-56404761D02*
X112652438Y-56309523D01*
X112652438Y-56309523D02*
X112700057Y-56261904D01*
X112700057Y-56261904D02*
X112795295Y-56214285D01*
X112795295Y-56214285D02*
X112842914Y-56214285D01*
X112842914Y-56214285D02*
X112938152Y-56261904D01*
X112938152Y-56261904D02*
X112985771Y-56309523D01*
X112985771Y-56309523D02*
X113033390Y-56404761D01*
X113033390Y-56404761D02*
X113033390Y-56595237D01*
X113033390Y-56595237D02*
X113081009Y-56690475D01*
X113081009Y-56690475D02*
X113128628Y-56738094D01*
X113128628Y-56738094D02*
X113223866Y-56785713D01*
X113223866Y-56785713D02*
X113414342Y-56785713D01*
X113414342Y-56785713D02*
X113509580Y-56738094D01*
X113509580Y-56738094D02*
X113557200Y-56690475D01*
X113557200Y-56690475D02*
X113604819Y-56595237D01*
X113604819Y-56595237D02*
X113604819Y-56404761D01*
X113604819Y-56404761D02*
X113557200Y-56309523D01*
X113557200Y-56309523D02*
X113509580Y-56261904D01*
X113509580Y-56261904D02*
X113414342Y-56214285D01*
X113414342Y-56214285D02*
X113223866Y-56214285D01*
X113223866Y-56214285D02*
X113128628Y-56261904D01*
X113128628Y-56261904D02*
X113081009Y-56309523D01*
X113081009Y-56309523D02*
X113033390Y-56404761D01*
X97304819Y-33666666D02*
X96828628Y-33999999D01*
X97304819Y-34238094D02*
X96304819Y-34238094D01*
X96304819Y-34238094D02*
X96304819Y-33857142D01*
X96304819Y-33857142D02*
X96352438Y-33761904D01*
X96352438Y-33761904D02*
X96400057Y-33714285D01*
X96400057Y-33714285D02*
X96495295Y-33666666D01*
X96495295Y-33666666D02*
X96638152Y-33666666D01*
X96638152Y-33666666D02*
X96733390Y-33714285D01*
X96733390Y-33714285D02*
X96781009Y-33761904D01*
X96781009Y-33761904D02*
X96828628Y-33857142D01*
X96828628Y-33857142D02*
X96828628Y-34238094D01*
X96638152Y-32809523D02*
X97304819Y-32809523D01*
X96257200Y-33047618D02*
X96971485Y-33285713D01*
X96971485Y-33285713D02*
X96971485Y-32666666D01*
X100604819Y-57166666D02*
X100128628Y-57499999D01*
X100604819Y-57738094D02*
X99604819Y-57738094D01*
X99604819Y-57738094D02*
X99604819Y-57357142D01*
X99604819Y-57357142D02*
X99652438Y-57261904D01*
X99652438Y-57261904D02*
X99700057Y-57214285D01*
X99700057Y-57214285D02*
X99795295Y-57166666D01*
X99795295Y-57166666D02*
X99938152Y-57166666D01*
X99938152Y-57166666D02*
X100033390Y-57214285D01*
X100033390Y-57214285D02*
X100081009Y-57261904D01*
X100081009Y-57261904D02*
X100128628Y-57357142D01*
X100128628Y-57357142D02*
X100128628Y-57738094D01*
X100604819Y-56214285D02*
X100604819Y-56785713D01*
X100604819Y-56499999D02*
X99604819Y-56499999D01*
X99604819Y-56499999D02*
X99747676Y-56595237D01*
X99747676Y-56595237D02*
X99842914Y-56690475D01*
X99842914Y-56690475D02*
X99890533Y-56785713D01*
X112804819Y-33666666D02*
X112328628Y-33999999D01*
X112804819Y-34238094D02*
X111804819Y-34238094D01*
X111804819Y-34238094D02*
X111804819Y-33857142D01*
X111804819Y-33857142D02*
X111852438Y-33761904D01*
X111852438Y-33761904D02*
X111900057Y-33714285D01*
X111900057Y-33714285D02*
X111995295Y-33666666D01*
X111995295Y-33666666D02*
X112138152Y-33666666D01*
X112138152Y-33666666D02*
X112233390Y-33714285D01*
X112233390Y-33714285D02*
X112281009Y-33761904D01*
X112281009Y-33761904D02*
X112328628Y-33857142D01*
X112328628Y-33857142D02*
X112328628Y-34238094D01*
X111804819Y-32809523D02*
X111804819Y-32999999D01*
X111804819Y-32999999D02*
X111852438Y-33095237D01*
X111852438Y-33095237D02*
X111900057Y-33142856D01*
X111900057Y-33142856D02*
X112042914Y-33238094D01*
X112042914Y-33238094D02*
X112233390Y-33285713D01*
X112233390Y-33285713D02*
X112614342Y-33285713D01*
X112614342Y-33285713D02*
X112709580Y-33238094D01*
X112709580Y-33238094D02*
X112757200Y-33190475D01*
X112757200Y-33190475D02*
X112804819Y-33095237D01*
X112804819Y-33095237D02*
X112804819Y-32904761D01*
X112804819Y-32904761D02*
X112757200Y-32809523D01*
X112757200Y-32809523D02*
X112709580Y-32761904D01*
X112709580Y-32761904D02*
X112614342Y-32714285D01*
X112614342Y-32714285D02*
X112376247Y-32714285D01*
X112376247Y-32714285D02*
X112281009Y-32761904D01*
X112281009Y-32761904D02*
X112233390Y-32809523D01*
X112233390Y-32809523D02*
X112185771Y-32904761D01*
X112185771Y-32904761D02*
X112185771Y-33095237D01*
X112185771Y-33095237D02*
X112233390Y-33190475D01*
X112233390Y-33190475D02*
X112281009Y-33238094D01*
X112281009Y-33238094D02*
X112376247Y-33285713D01*
X115059819Y-46833333D02*
X115774104Y-46833333D01*
X115774104Y-46833333D02*
X115916961Y-46880952D01*
X115916961Y-46880952D02*
X116012200Y-46976190D01*
X116012200Y-46976190D02*
X116059819Y-47119047D01*
X116059819Y-47119047D02*
X116059819Y-47214285D01*
X115155057Y-46404761D02*
X115107438Y-46357142D01*
X115107438Y-46357142D02*
X115059819Y-46261904D01*
X115059819Y-46261904D02*
X115059819Y-46023809D01*
X115059819Y-46023809D02*
X115107438Y-45928571D01*
X115107438Y-45928571D02*
X115155057Y-45880952D01*
X115155057Y-45880952D02*
X115250295Y-45833333D01*
X115250295Y-45833333D02*
X115345533Y-45833333D01*
X115345533Y-45833333D02*
X115488390Y-45880952D01*
X115488390Y-45880952D02*
X116059819Y-46452380D01*
X116059819Y-46452380D02*
X116059819Y-45833333D01*
X94804819Y-33666666D02*
X94328628Y-33999999D01*
X94804819Y-34238094D02*
X93804819Y-34238094D01*
X93804819Y-34238094D02*
X93804819Y-33857142D01*
X93804819Y-33857142D02*
X93852438Y-33761904D01*
X93852438Y-33761904D02*
X93900057Y-33714285D01*
X93900057Y-33714285D02*
X93995295Y-33666666D01*
X93995295Y-33666666D02*
X94138152Y-33666666D01*
X94138152Y-33666666D02*
X94233390Y-33714285D01*
X94233390Y-33714285D02*
X94281009Y-33761904D01*
X94281009Y-33761904D02*
X94328628Y-33857142D01*
X94328628Y-33857142D02*
X94328628Y-34238094D01*
X93804819Y-33333332D02*
X93804819Y-32714285D01*
X93804819Y-32714285D02*
X94185771Y-33047618D01*
X94185771Y-33047618D02*
X94185771Y-32904761D01*
X94185771Y-32904761D02*
X94233390Y-32809523D01*
X94233390Y-32809523D02*
X94281009Y-32761904D01*
X94281009Y-32761904D02*
X94376247Y-32714285D01*
X94376247Y-32714285D02*
X94614342Y-32714285D01*
X94614342Y-32714285D02*
X94709580Y-32761904D01*
X94709580Y-32761904D02*
X94757200Y-32809523D01*
X94757200Y-32809523D02*
X94804819Y-32904761D01*
X94804819Y-32904761D02*
X94804819Y-33190475D01*
X94804819Y-33190475D02*
X94757200Y-33285713D01*
X94757200Y-33285713D02*
X94709580Y-33333332D01*
X115059819Y-42833333D02*
X115774104Y-42833333D01*
X115774104Y-42833333D02*
X115916961Y-42880952D01*
X115916961Y-42880952D02*
X116012200Y-42976190D01*
X116012200Y-42976190D02*
X116059819Y-43119047D01*
X116059819Y-43119047D02*
X116059819Y-43214285D01*
X116059819Y-41833333D02*
X116059819Y-42404761D01*
X116059819Y-42119047D02*
X115059819Y-42119047D01*
X115059819Y-42119047D02*
X115202676Y-42214285D01*
X115202676Y-42214285D02*
X115297914Y-42309523D01*
X115297914Y-42309523D02*
X115345533Y-42404761D01*
X98104819Y-57166666D02*
X97628628Y-57499999D01*
X98104819Y-57738094D02*
X97104819Y-57738094D01*
X97104819Y-57738094D02*
X97104819Y-57357142D01*
X97104819Y-57357142D02*
X97152438Y-57261904D01*
X97152438Y-57261904D02*
X97200057Y-57214285D01*
X97200057Y-57214285D02*
X97295295Y-57166666D01*
X97295295Y-57166666D02*
X97438152Y-57166666D01*
X97438152Y-57166666D02*
X97533390Y-57214285D01*
X97533390Y-57214285D02*
X97581009Y-57261904D01*
X97581009Y-57261904D02*
X97628628Y-57357142D01*
X97628628Y-57357142D02*
X97628628Y-57738094D01*
X97200057Y-56785713D02*
X97152438Y-56738094D01*
X97152438Y-56738094D02*
X97104819Y-56642856D01*
X97104819Y-56642856D02*
X97104819Y-56404761D01*
X97104819Y-56404761D02*
X97152438Y-56309523D01*
X97152438Y-56309523D02*
X97200057Y-56261904D01*
X97200057Y-56261904D02*
X97295295Y-56214285D01*
X97295295Y-56214285D02*
X97390533Y-56214285D01*
X97390533Y-56214285D02*
X97533390Y-56261904D01*
X97533390Y-56261904D02*
X98104819Y-56833332D01*
X98104819Y-56833332D02*
X98104819Y-56214285D01*
X117166666Y-40084819D02*
X117166666Y-40799104D01*
X117166666Y-40799104D02*
X117119047Y-40941961D01*
X117119047Y-40941961D02*
X117023809Y-41037200D01*
X117023809Y-41037200D02*
X116880952Y-41084819D01*
X116880952Y-41084819D02*
X116785714Y-41084819D01*
X117547619Y-40084819D02*
X118166666Y-40084819D01*
X118166666Y-40084819D02*
X117833333Y-40465771D01*
X117833333Y-40465771D02*
X117976190Y-40465771D01*
X117976190Y-40465771D02*
X118071428Y-40513390D01*
X118071428Y-40513390D02*
X118119047Y-40561009D01*
X118119047Y-40561009D02*
X118166666Y-40656247D01*
X118166666Y-40656247D02*
X118166666Y-40894342D01*
X118166666Y-40894342D02*
X118119047Y-40989580D01*
X118119047Y-40989580D02*
X118071428Y-41037200D01*
X118071428Y-41037200D02*
X117976190Y-41084819D01*
X117976190Y-41084819D02*
X117690476Y-41084819D01*
X117690476Y-41084819D02*
X117595238Y-41037200D01*
X117595238Y-41037200D02*
X117547619Y-40989580D01*
X116104819Y-57166666D02*
X115628628Y-57499999D01*
X116104819Y-57738094D02*
X115104819Y-57738094D01*
X115104819Y-57738094D02*
X115104819Y-57357142D01*
X115104819Y-57357142D02*
X115152438Y-57261904D01*
X115152438Y-57261904D02*
X115200057Y-57214285D01*
X115200057Y-57214285D02*
X115295295Y-57166666D01*
X115295295Y-57166666D02*
X115438152Y-57166666D01*
X115438152Y-57166666D02*
X115533390Y-57214285D01*
X115533390Y-57214285D02*
X115581009Y-57261904D01*
X115581009Y-57261904D02*
X115628628Y-57357142D01*
X115628628Y-57357142D02*
X115628628Y-57738094D01*
X115104819Y-56833332D02*
X115104819Y-56166666D01*
X115104819Y-56166666D02*
X116104819Y-56595237D01*
D11*
%TO.C,D7*%
X86400000Y-57300000D02*
X92500000Y-57300000D01*
X86400000Y-58400000D02*
X86400000Y-57300000D01*
X92500000Y-62700000D02*
X87500000Y-62700000D01*
%TO.C,D4*%
X123600000Y-62700000D02*
X117500000Y-62700000D01*
X123600000Y-61600000D02*
X123600000Y-62700000D01*
X117500000Y-57300000D02*
X122500000Y-57300000D01*
%TO.C,D2*%
X123600000Y-32700000D02*
X117500000Y-32700000D01*
X123600000Y-31600000D02*
X123600000Y-32700000D01*
X117500000Y-27300000D02*
X122500000Y-27300000D01*
%TO.C,D1*%
X86400000Y-27300000D02*
X92500000Y-27300000D01*
X86400000Y-28400000D02*
X86400000Y-27300000D01*
X92500000Y-32700000D02*
X87500000Y-32700000D01*
%TO.C,R5*%
X110765000Y-33727064D02*
X110765000Y-33272936D01*
X112235000Y-33727064D02*
X112235000Y-33272936D01*
%TO.C,R8*%
X110765000Y-56772936D02*
X110765000Y-57227064D01*
X112235000Y-56772936D02*
X112235000Y-57227064D01*
%TO.C,R4*%
X97765000Y-33727064D02*
X97765000Y-33272936D01*
X99235000Y-33727064D02*
X99235000Y-33272936D01*
%TO.C,R1*%
X97765000Y-56772936D02*
X97765000Y-57227064D01*
X99235000Y-56772936D02*
X99235000Y-57227064D01*
%TO.C,R6*%
X113265000Y-33727064D02*
X113265000Y-33272936D01*
X114735000Y-33727064D02*
X114735000Y-33272936D01*
%TO.C,J2*%
X109405000Y-45170000D02*
X109405000Y-47830000D01*
X112005000Y-45170000D02*
X109405000Y-45170000D01*
X112005000Y-45170000D02*
X112005000Y-47830000D01*
X112005000Y-47830000D02*
X109405000Y-47830000D01*
X113275000Y-45170000D02*
X114605000Y-45170000D01*
X114605000Y-45170000D02*
X114605000Y-46500000D01*
%TO.C,R3*%
X95265000Y-33727064D02*
X95265000Y-33272936D01*
X96735000Y-33727064D02*
X96735000Y-33272936D01*
%TO.C,J1*%
X109405000Y-41170000D02*
X109405000Y-43830000D01*
X112005000Y-41170000D02*
X109405000Y-41170000D01*
X112005000Y-41170000D02*
X112005000Y-43830000D01*
X112005000Y-43830000D02*
X109405000Y-43830000D01*
X113275000Y-41170000D02*
X114605000Y-41170000D01*
X114605000Y-41170000D02*
X114605000Y-42500000D01*
%TO.C,R2*%
X95265000Y-56772936D02*
X95265000Y-57227064D01*
X96735000Y-56772936D02*
X96735000Y-57227064D01*
%TO.C,J3*%
X116170000Y-41630000D02*
X117500000Y-41630000D01*
X116170000Y-42960000D02*
X116170000Y-41630000D01*
X116170000Y-44230000D02*
X116170000Y-46830000D01*
X116170000Y-44230000D02*
X118830000Y-44230000D01*
X116170000Y-46830000D02*
X118830000Y-46830000D01*
X118830000Y-44230000D02*
X118830000Y-46830000D01*
%TO.C,R7*%
X113265000Y-56772936D02*
X113265000Y-57227064D01*
X114735000Y-56772936D02*
X114735000Y-57227064D01*
%TD*%
%LPC*%
D12*
%TO.C,D7*%
X87400000Y-58300000D03*
X87400000Y-60000000D03*
X87400000Y-61700000D03*
X92600000Y-61700000D03*
X92600000Y-60000000D03*
X92600000Y-58300000D03*
%TD*%
%TO.C,D4*%
X122600000Y-61700000D03*
X122600000Y-60000000D03*
X122600000Y-58300000D03*
X117400000Y-58300000D03*
X117400000Y-60000000D03*
X117400000Y-61700000D03*
%TD*%
%TO.C,D2*%
X122600000Y-31700000D03*
X122600000Y-30000000D03*
X122600000Y-28300000D03*
X117400000Y-28300000D03*
X117400000Y-30000000D03*
X117400000Y-31700000D03*
%TD*%
%TO.C,D1*%
X87400000Y-28300000D03*
X87400000Y-30000000D03*
X87400000Y-31700000D03*
X92600000Y-31700000D03*
X92600000Y-30000000D03*
X92600000Y-28300000D03*
%TD*%
D13*
%TO.C,R5*%
X111500000Y-34500000D03*
X111500000Y-32500000D03*
%TD*%
D14*
%TO.C,R8*%
X111500000Y-56000000D03*
X111500000Y-58000000D03*
%TD*%
D13*
%TO.C,R4*%
X98500000Y-34500000D03*
X98500000Y-32500000D03*
%TD*%
D14*
%TO.C,R1*%
X98500000Y-56000000D03*
X98500000Y-58000000D03*
%TD*%
D13*
%TO.C,R6*%
X114000000Y-34500000D03*
X114000000Y-32500000D03*
%TD*%
D15*
%TO.C,J2*%
X113275000Y-46500000D03*
D16*
X110735000Y-46500000D03*
%TD*%
D13*
%TO.C,R3*%
X96000000Y-34500000D03*
X96000000Y-32500000D03*
%TD*%
D15*
%TO.C,J1*%
X113275000Y-42500000D03*
D16*
X110735000Y-42500000D03*
%TD*%
D14*
%TO.C,R2*%
X96000000Y-56000000D03*
X96000000Y-58000000D03*
%TD*%
D15*
%TO.C,J3*%
X117500000Y-42960000D03*
D16*
X117500000Y-45500000D03*
%TD*%
D14*
%TO.C,R7*%
X114000000Y-56000000D03*
X114000000Y-58000000D03*
%TD*%
%LPD*%
M02*
