%TF.GenerationSoftware,KiCad,Pcbnew,8.0.0*%
%TF.CreationDate,2025-04-05T00:05:52+03:00*%
%TF.ProjectId,esp_stepper,6573705f-7374-4657-9070-65722e6b6963,rev?*%
%TF.SameCoordinates,Original*%
%TF.FileFunction,Legend,Top*%
%TF.FilePolarity,Positive*%
%FSLAX46Y46*%
G04 Gerber Fmt 4.6, Leading zero omitted, Abs format (unit mm)*
G04 Created by KiCad (PCBNEW 8.0.0) date 2025-04-05 00:05:52*
%MOMM*%
%LPD*%
G01*
G04 APERTURE LIST*
G04 Aperture macros list*
%AMRoundRect*
0 Rectangle with rounded corners*
0 $1 Rounding radius*
0 $2 $3 $4 $5 $6 $7 $8 $9 X,Y pos of 4 corners*
0 Add a 4 corners polygon primitive as box body*
4,1,4,$2,$3,$4,$5,$6,$7,$8,$9,$2,$3,0*
0 Add four circle primitives for the rounded corners*
1,1,$1+$1,$2,$3*
1,1,$1+$1,$4,$5*
1,1,$1+$1,$6,$7*
1,1,$1+$1,$8,$9*
0 Add four rect primitives between the rounded corners*
20,1,$1+$1,$2,$3,$4,$5,0*
20,1,$1+$1,$4,$5,$6,$7,0*
20,1,$1+$1,$6,$7,$8,$9,0*
20,1,$1+$1,$8,$9,$2,$3,0*%
G04 Aperture macros list end*
%ADD10C,0.150000*%
%ADD11C,0.120000*%
%ADD12R,1.800000X1.800000*%
%ADD13C,1.800000*%
%ADD14R,2.600000X2.600000*%
%ADD15C,2.600000*%
%ADD16R,1.800000X2.600000*%
%ADD17O,1.800000X2.600000*%
%ADD18RoundRect,0.102000X0.900000X-0.900000X0.900000X0.900000X-0.900000X0.900000X-0.900000X-0.900000X0*%
%ADD19C,2.004000*%
%ADD20R,1.600000X1.600000*%
%ADD21C,1.600000*%
%ADD22R,1.700000X1.700000*%
%ADD23O,1.700000X1.700000*%
%ADD24RoundRect,0.250000X-0.450000X0.350000X-0.450000X-0.350000X0.450000X-0.350000X0.450000X0.350000X0*%
%ADD25RoundRect,0.250000X-0.350000X-0.450000X0.350000X-0.450000X0.350000X0.450000X-0.350000X0.450000X0*%
%ADD26R,2.600000X1.950000*%
%ADD27RoundRect,0.250000X-2.050000X-0.300000X2.050000X-0.300000X2.050000X0.300000X-2.050000X0.300000X0*%
%ADD28RoundRect,0.250002X-4.449998X-5.149998X4.449998X-5.149998X4.449998X5.149998X-4.449998X5.149998X0*%
%ADD29RoundRect,0.250000X0.337500X0.475000X-0.337500X0.475000X-0.337500X-0.475000X0.337500X-0.475000X0*%
%ADD30RoundRect,0.250000X0.900000X-1.500000X0.900000X1.500000X-0.900000X1.500000X-0.900000X-1.500000X0*%
G04 APERTURE END LIST*
D10*
X96011437Y-130468666D02*
X95535246Y-130801999D01*
X96011437Y-131040094D02*
X95011437Y-131040094D01*
X95011437Y-131040094D02*
X95011437Y-130659142D01*
X95011437Y-130659142D02*
X95059056Y-130563904D01*
X95059056Y-130563904D02*
X95106675Y-130516285D01*
X95106675Y-130516285D02*
X95201913Y-130468666D01*
X95201913Y-130468666D02*
X95344770Y-130468666D01*
X95344770Y-130468666D02*
X95440008Y-130516285D01*
X95440008Y-130516285D02*
X95487627Y-130563904D01*
X95487627Y-130563904D02*
X95535246Y-130659142D01*
X95535246Y-130659142D02*
X95535246Y-131040094D01*
X95011437Y-129563904D02*
X95011437Y-130040094D01*
X95011437Y-130040094D02*
X95487627Y-130087713D01*
X95487627Y-130087713D02*
X95440008Y-130040094D01*
X95440008Y-130040094D02*
X95392389Y-129944856D01*
X95392389Y-129944856D02*
X95392389Y-129706761D01*
X95392389Y-129706761D02*
X95440008Y-129611523D01*
X95440008Y-129611523D02*
X95487627Y-129563904D01*
X95487627Y-129563904D02*
X95582865Y-129516285D01*
X95582865Y-129516285D02*
X95820960Y-129516285D01*
X95820960Y-129516285D02*
X95916198Y-129563904D01*
X95916198Y-129563904D02*
X95963818Y-129611523D01*
X95963818Y-129611523D02*
X96011437Y-129706761D01*
X96011437Y-129706761D02*
X96011437Y-129944856D01*
X96011437Y-129944856D02*
X95963818Y-130040094D01*
X95963818Y-130040094D02*
X95916198Y-130087713D01*
X98155951Y-81454819D02*
X97822618Y-80978628D01*
X97584523Y-81454819D02*
X97584523Y-80454819D01*
X97584523Y-80454819D02*
X97965475Y-80454819D01*
X97965475Y-80454819D02*
X98060713Y-80502438D01*
X98060713Y-80502438D02*
X98108332Y-80550057D01*
X98108332Y-80550057D02*
X98155951Y-80645295D01*
X98155951Y-80645295D02*
X98155951Y-80788152D01*
X98155951Y-80788152D02*
X98108332Y-80883390D01*
X98108332Y-80883390D02*
X98060713Y-80931009D01*
X98060713Y-80931009D02*
X97965475Y-80978628D01*
X97965475Y-80978628D02*
X97584523Y-80978628D01*
X99108332Y-81454819D02*
X98536904Y-81454819D01*
X98822618Y-81454819D02*
X98822618Y-80454819D01*
X98822618Y-80454819D02*
X98727380Y-80597676D01*
X98727380Y-80597676D02*
X98632142Y-80692914D01*
X98632142Y-80692914D02*
X98536904Y-80740533D01*
X127479951Y-81931470D02*
X127003761Y-81931470D01*
X127003761Y-81931470D02*
X127003761Y-80931470D01*
X128337094Y-81931470D02*
X127765666Y-81931470D01*
X128051380Y-81931470D02*
X128051380Y-80931470D01*
X128051380Y-80931470D02*
X127956142Y-81074327D01*
X127956142Y-81074327D02*
X127860904Y-81169565D01*
X127860904Y-81169565D02*
X127765666Y-81217184D01*
X98155951Y-72454819D02*
X97822618Y-71978628D01*
X97584523Y-72454819D02*
X97584523Y-71454819D01*
X97584523Y-71454819D02*
X97965475Y-71454819D01*
X97965475Y-71454819D02*
X98060713Y-71502438D01*
X98060713Y-71502438D02*
X98108332Y-71550057D01*
X98108332Y-71550057D02*
X98155951Y-71645295D01*
X98155951Y-71645295D02*
X98155951Y-71788152D01*
X98155951Y-71788152D02*
X98108332Y-71883390D01*
X98108332Y-71883390D02*
X98060713Y-71931009D01*
X98060713Y-71931009D02*
X97965475Y-71978628D01*
X97965475Y-71978628D02*
X97584523Y-71978628D01*
X98489285Y-71454819D02*
X99155951Y-71454819D01*
X99155951Y-71454819D02*
X98727380Y-72454819D01*
X143935713Y-71707470D02*
X143935713Y-72516993D01*
X143935713Y-72516993D02*
X143983332Y-72612231D01*
X143983332Y-72612231D02*
X144030951Y-72659851D01*
X144030951Y-72659851D02*
X144126189Y-72707470D01*
X144126189Y-72707470D02*
X144316665Y-72707470D01*
X144316665Y-72707470D02*
X144411903Y-72659851D01*
X144411903Y-72659851D02*
X144459522Y-72612231D01*
X144459522Y-72612231D02*
X144507141Y-72516993D01*
X144507141Y-72516993D02*
X144507141Y-71707470D01*
X145411903Y-72040803D02*
X145411903Y-72707470D01*
X145173808Y-71659851D02*
X144935713Y-72374136D01*
X144935713Y-72374136D02*
X145554760Y-72374136D01*
X133222437Y-84875666D02*
X132746246Y-85208999D01*
X133222437Y-85447094D02*
X132222437Y-85447094D01*
X132222437Y-85447094D02*
X132222437Y-85066142D01*
X132222437Y-85066142D02*
X132270056Y-84970904D01*
X132270056Y-84970904D02*
X132317675Y-84923285D01*
X132317675Y-84923285D02*
X132412913Y-84875666D01*
X132412913Y-84875666D02*
X132555770Y-84875666D01*
X132555770Y-84875666D02*
X132651008Y-84923285D01*
X132651008Y-84923285D02*
X132698627Y-84970904D01*
X132698627Y-84970904D02*
X132746246Y-85066142D01*
X132746246Y-85066142D02*
X132746246Y-85447094D01*
X133222437Y-84399475D02*
X133222437Y-84208999D01*
X133222437Y-84208999D02*
X133174818Y-84113761D01*
X133174818Y-84113761D02*
X133127198Y-84066142D01*
X133127198Y-84066142D02*
X132984341Y-83970904D01*
X132984341Y-83970904D02*
X132793865Y-83923285D01*
X132793865Y-83923285D02*
X132412913Y-83923285D01*
X132412913Y-83923285D02*
X132317675Y-83970904D01*
X132317675Y-83970904D02*
X132270056Y-84018523D01*
X132270056Y-84018523D02*
X132222437Y-84113761D01*
X132222437Y-84113761D02*
X132222437Y-84304237D01*
X132222437Y-84304237D02*
X132270056Y-84399475D01*
X132270056Y-84399475D02*
X132317675Y-84447094D01*
X132317675Y-84447094D02*
X132412913Y-84494713D01*
X132412913Y-84494713D02*
X132651008Y-84494713D01*
X132651008Y-84494713D02*
X132746246Y-84447094D01*
X132746246Y-84447094D02*
X132793865Y-84399475D01*
X132793865Y-84399475D02*
X132841484Y-84304237D01*
X132841484Y-84304237D02*
X132841484Y-84113761D01*
X132841484Y-84113761D02*
X132793865Y-84018523D01*
X132793865Y-84018523D02*
X132746246Y-83970904D01*
X132746246Y-83970904D02*
X132651008Y-83923285D01*
X107155951Y-72454819D02*
X106822618Y-71978628D01*
X106584523Y-72454819D02*
X106584523Y-71454819D01*
X106584523Y-71454819D02*
X106965475Y-71454819D01*
X106965475Y-71454819D02*
X107060713Y-71502438D01*
X107060713Y-71502438D02*
X107108332Y-71550057D01*
X107108332Y-71550057D02*
X107155951Y-71645295D01*
X107155951Y-71645295D02*
X107155951Y-71788152D01*
X107155951Y-71788152D02*
X107108332Y-71883390D01*
X107108332Y-71883390D02*
X107060713Y-71931009D01*
X107060713Y-71931009D02*
X106965475Y-71978628D01*
X106965475Y-71978628D02*
X106584523Y-71978628D01*
X107727380Y-71883390D02*
X107632142Y-71835771D01*
X107632142Y-71835771D02*
X107584523Y-71788152D01*
X107584523Y-71788152D02*
X107536904Y-71692914D01*
X107536904Y-71692914D02*
X107536904Y-71645295D01*
X107536904Y-71645295D02*
X107584523Y-71550057D01*
X107584523Y-71550057D02*
X107632142Y-71502438D01*
X107632142Y-71502438D02*
X107727380Y-71454819D01*
X107727380Y-71454819D02*
X107917856Y-71454819D01*
X107917856Y-71454819D02*
X108013094Y-71502438D01*
X108013094Y-71502438D02*
X108060713Y-71550057D01*
X108060713Y-71550057D02*
X108108332Y-71645295D01*
X108108332Y-71645295D02*
X108108332Y-71692914D01*
X108108332Y-71692914D02*
X108060713Y-71788152D01*
X108060713Y-71788152D02*
X108013094Y-71835771D01*
X108013094Y-71835771D02*
X107917856Y-71883390D01*
X107917856Y-71883390D02*
X107727380Y-71883390D01*
X107727380Y-71883390D02*
X107632142Y-71931009D01*
X107632142Y-71931009D02*
X107584523Y-71978628D01*
X107584523Y-71978628D02*
X107536904Y-72073866D01*
X107536904Y-72073866D02*
X107536904Y-72264342D01*
X107536904Y-72264342D02*
X107584523Y-72359580D01*
X107584523Y-72359580D02*
X107632142Y-72407200D01*
X107632142Y-72407200D02*
X107727380Y-72454819D01*
X107727380Y-72454819D02*
X107917856Y-72454819D01*
X107917856Y-72454819D02*
X108013094Y-72407200D01*
X108013094Y-72407200D02*
X108060713Y-72359580D01*
X108060713Y-72359580D02*
X108108332Y-72264342D01*
X108108332Y-72264342D02*
X108108332Y-72073866D01*
X108108332Y-72073866D02*
X108060713Y-71978628D01*
X108060713Y-71978628D02*
X108013094Y-71931009D01*
X108013094Y-71931009D02*
X107917856Y-71883390D01*
X125602437Y-130341666D02*
X125126246Y-130674999D01*
X125602437Y-130913094D02*
X124602437Y-130913094D01*
X124602437Y-130913094D02*
X124602437Y-130532142D01*
X124602437Y-130532142D02*
X124650056Y-130436904D01*
X124650056Y-130436904D02*
X124697675Y-130389285D01*
X124697675Y-130389285D02*
X124792913Y-130341666D01*
X124792913Y-130341666D02*
X124935770Y-130341666D01*
X124935770Y-130341666D02*
X125031008Y-130389285D01*
X125031008Y-130389285D02*
X125078627Y-130436904D01*
X125078627Y-130436904D02*
X125126246Y-130532142D01*
X125126246Y-130532142D02*
X125126246Y-130913094D01*
X124697675Y-129960713D02*
X124650056Y-129913094D01*
X124650056Y-129913094D02*
X124602437Y-129817856D01*
X124602437Y-129817856D02*
X124602437Y-129579761D01*
X124602437Y-129579761D02*
X124650056Y-129484523D01*
X124650056Y-129484523D02*
X124697675Y-129436904D01*
X124697675Y-129436904D02*
X124792913Y-129389285D01*
X124792913Y-129389285D02*
X124888151Y-129389285D01*
X124888151Y-129389285D02*
X125031008Y-129436904D01*
X125031008Y-129436904D02*
X125602437Y-130008332D01*
X125602437Y-130008332D02*
X125602437Y-129389285D01*
X92905951Y-136859580D02*
X92858332Y-136907200D01*
X92858332Y-136907200D02*
X92715475Y-136954819D01*
X92715475Y-136954819D02*
X92620237Y-136954819D01*
X92620237Y-136954819D02*
X92477380Y-136907200D01*
X92477380Y-136907200D02*
X92382142Y-136811961D01*
X92382142Y-136811961D02*
X92334523Y-136716723D01*
X92334523Y-136716723D02*
X92286904Y-136526247D01*
X92286904Y-136526247D02*
X92286904Y-136383390D01*
X92286904Y-136383390D02*
X92334523Y-136192914D01*
X92334523Y-136192914D02*
X92382142Y-136097676D01*
X92382142Y-136097676D02*
X92477380Y-136002438D01*
X92477380Y-136002438D02*
X92620237Y-135954819D01*
X92620237Y-135954819D02*
X92715475Y-135954819D01*
X92715475Y-135954819D02*
X92858332Y-136002438D01*
X92858332Y-136002438D02*
X92905951Y-136050057D01*
X93810713Y-135954819D02*
X93334523Y-135954819D01*
X93334523Y-135954819D02*
X93286904Y-136431009D01*
X93286904Y-136431009D02*
X93334523Y-136383390D01*
X93334523Y-136383390D02*
X93429761Y-136335771D01*
X93429761Y-136335771D02*
X93667856Y-136335771D01*
X93667856Y-136335771D02*
X93763094Y-136383390D01*
X93763094Y-136383390D02*
X93810713Y-136431009D01*
X93810713Y-136431009D02*
X93858332Y-136526247D01*
X93858332Y-136526247D02*
X93858332Y-136764342D01*
X93858332Y-136764342D02*
X93810713Y-136859580D01*
X93810713Y-136859580D02*
X93763094Y-136907200D01*
X93763094Y-136907200D02*
X93667856Y-136954819D01*
X93667856Y-136954819D02*
X93429761Y-136954819D01*
X93429761Y-136954819D02*
X93334523Y-136907200D01*
X93334523Y-136907200D02*
X93286904Y-136859580D01*
X102107437Y-130341666D02*
X101631246Y-130674999D01*
X102107437Y-130913094D02*
X101107437Y-130913094D01*
X101107437Y-130913094D02*
X101107437Y-130532142D01*
X101107437Y-130532142D02*
X101155056Y-130436904D01*
X101155056Y-130436904D02*
X101202675Y-130389285D01*
X101202675Y-130389285D02*
X101297913Y-130341666D01*
X101297913Y-130341666D02*
X101440770Y-130341666D01*
X101440770Y-130341666D02*
X101536008Y-130389285D01*
X101536008Y-130389285D02*
X101583627Y-130436904D01*
X101583627Y-130436904D02*
X101631246Y-130532142D01*
X101631246Y-130532142D02*
X101631246Y-130913094D01*
X101440770Y-129484523D02*
X102107437Y-129484523D01*
X101059818Y-129722618D02*
X101774103Y-129960713D01*
X101774103Y-129960713D02*
X101774103Y-129341666D01*
X111155951Y-135109580D02*
X111108332Y-135157200D01*
X111108332Y-135157200D02*
X110965475Y-135204819D01*
X110965475Y-135204819D02*
X110870237Y-135204819D01*
X110870237Y-135204819D02*
X110727380Y-135157200D01*
X110727380Y-135157200D02*
X110632142Y-135061961D01*
X110632142Y-135061961D02*
X110584523Y-134966723D01*
X110584523Y-134966723D02*
X110536904Y-134776247D01*
X110536904Y-134776247D02*
X110536904Y-134633390D01*
X110536904Y-134633390D02*
X110584523Y-134442914D01*
X110584523Y-134442914D02*
X110632142Y-134347676D01*
X110632142Y-134347676D02*
X110727380Y-134252438D01*
X110727380Y-134252438D02*
X110870237Y-134204819D01*
X110870237Y-134204819D02*
X110965475Y-134204819D01*
X110965475Y-134204819D02*
X111108332Y-134252438D01*
X111108332Y-134252438D02*
X111155951Y-134300057D01*
X112013094Y-134538152D02*
X112013094Y-135204819D01*
X111774999Y-134157200D02*
X111536904Y-134871485D01*
X111536904Y-134871485D02*
X112155951Y-134871485D01*
X130825437Y-85716857D02*
X130349246Y-86050190D01*
X130825437Y-86288285D02*
X129825437Y-86288285D01*
X129825437Y-86288285D02*
X129825437Y-85907333D01*
X129825437Y-85907333D02*
X129873056Y-85812095D01*
X129873056Y-85812095D02*
X129920675Y-85764476D01*
X129920675Y-85764476D02*
X130015913Y-85716857D01*
X130015913Y-85716857D02*
X130158770Y-85716857D01*
X130158770Y-85716857D02*
X130254008Y-85764476D01*
X130254008Y-85764476D02*
X130301627Y-85812095D01*
X130301627Y-85812095D02*
X130349246Y-85907333D01*
X130349246Y-85907333D02*
X130349246Y-86288285D01*
X130825437Y-84764476D02*
X130825437Y-85335904D01*
X130825437Y-85050190D02*
X129825437Y-85050190D01*
X129825437Y-85050190D02*
X129968294Y-85145428D01*
X129968294Y-85145428D02*
X130063532Y-85240666D01*
X130063532Y-85240666D02*
X130111151Y-85335904D01*
X129825437Y-84145428D02*
X129825437Y-84050190D01*
X129825437Y-84050190D02*
X129873056Y-83954952D01*
X129873056Y-83954952D02*
X129920675Y-83907333D01*
X129920675Y-83907333D02*
X130015913Y-83859714D01*
X130015913Y-83859714D02*
X130206389Y-83812095D01*
X130206389Y-83812095D02*
X130444484Y-83812095D01*
X130444484Y-83812095D02*
X130634960Y-83859714D01*
X130634960Y-83859714D02*
X130730198Y-83907333D01*
X130730198Y-83907333D02*
X130777818Y-83954952D01*
X130777818Y-83954952D02*
X130825437Y-84050190D01*
X130825437Y-84050190D02*
X130825437Y-84145428D01*
X130825437Y-84145428D02*
X130777818Y-84240666D01*
X130777818Y-84240666D02*
X130730198Y-84288285D01*
X130730198Y-84288285D02*
X130634960Y-84335904D01*
X130634960Y-84335904D02*
X130444484Y-84383523D01*
X130444484Y-84383523D02*
X130206389Y-84383523D01*
X130206389Y-84383523D02*
X130015913Y-84335904D01*
X130015913Y-84335904D02*
X129920675Y-84288285D01*
X129920675Y-84288285D02*
X129873056Y-84240666D01*
X129873056Y-84240666D02*
X129825437Y-84145428D01*
X122497937Y-67136594D02*
X121497937Y-67136594D01*
X121497937Y-67136594D02*
X121497937Y-66898499D01*
X121497937Y-66898499D02*
X121545556Y-66755642D01*
X121545556Y-66755642D02*
X121640794Y-66660404D01*
X121640794Y-66660404D02*
X121736032Y-66612785D01*
X121736032Y-66612785D02*
X121926508Y-66565166D01*
X121926508Y-66565166D02*
X122069365Y-66565166D01*
X122069365Y-66565166D02*
X122259841Y-66612785D01*
X122259841Y-66612785D02*
X122355079Y-66660404D01*
X122355079Y-66660404D02*
X122450318Y-66755642D01*
X122450318Y-66755642D02*
X122497937Y-66898499D01*
X122497937Y-66898499D02*
X122497937Y-67136594D01*
X122497937Y-65612785D02*
X122497937Y-66184213D01*
X122497937Y-65898499D02*
X121497937Y-65898499D01*
X121497937Y-65898499D02*
X121640794Y-65993737D01*
X121640794Y-65993737D02*
X121736032Y-66088975D01*
X121736032Y-66088975D02*
X121783651Y-66184213D01*
X107155951Y-81454819D02*
X106822618Y-80978628D01*
X106584523Y-81454819D02*
X106584523Y-80454819D01*
X106584523Y-80454819D02*
X106965475Y-80454819D01*
X106965475Y-80454819D02*
X107060713Y-80502438D01*
X107060713Y-80502438D02*
X107108332Y-80550057D01*
X107108332Y-80550057D02*
X107155951Y-80645295D01*
X107155951Y-80645295D02*
X107155951Y-80788152D01*
X107155951Y-80788152D02*
X107108332Y-80883390D01*
X107108332Y-80883390D02*
X107060713Y-80931009D01*
X107060713Y-80931009D02*
X106965475Y-80978628D01*
X106965475Y-80978628D02*
X106584523Y-80978628D01*
X108013094Y-80454819D02*
X107822618Y-80454819D01*
X107822618Y-80454819D02*
X107727380Y-80502438D01*
X107727380Y-80502438D02*
X107679761Y-80550057D01*
X107679761Y-80550057D02*
X107584523Y-80692914D01*
X107584523Y-80692914D02*
X107536904Y-80883390D01*
X107536904Y-80883390D02*
X107536904Y-81264342D01*
X107536904Y-81264342D02*
X107584523Y-81359580D01*
X107584523Y-81359580D02*
X107632142Y-81407200D01*
X107632142Y-81407200D02*
X107727380Y-81454819D01*
X107727380Y-81454819D02*
X107917856Y-81454819D01*
X107917856Y-81454819D02*
X108013094Y-81407200D01*
X108013094Y-81407200D02*
X108060713Y-81359580D01*
X108060713Y-81359580D02*
X108108332Y-81264342D01*
X108108332Y-81264342D02*
X108108332Y-81026247D01*
X108108332Y-81026247D02*
X108060713Y-80931009D01*
X108060713Y-80931009D02*
X108013094Y-80883390D01*
X108013094Y-80883390D02*
X107917856Y-80835771D01*
X107917856Y-80835771D02*
X107727380Y-80835771D01*
X107727380Y-80835771D02*
X107632142Y-80883390D01*
X107632142Y-80883390D02*
X107584523Y-80931009D01*
X107584523Y-80931009D02*
X107536904Y-81026247D01*
X119155951Y-135109580D02*
X119108332Y-135157200D01*
X119108332Y-135157200D02*
X118965475Y-135204819D01*
X118965475Y-135204819D02*
X118870237Y-135204819D01*
X118870237Y-135204819D02*
X118727380Y-135157200D01*
X118727380Y-135157200D02*
X118632142Y-135061961D01*
X118632142Y-135061961D02*
X118584523Y-134966723D01*
X118584523Y-134966723D02*
X118536904Y-134776247D01*
X118536904Y-134776247D02*
X118536904Y-134633390D01*
X118536904Y-134633390D02*
X118584523Y-134442914D01*
X118584523Y-134442914D02*
X118632142Y-134347676D01*
X118632142Y-134347676D02*
X118727380Y-134252438D01*
X118727380Y-134252438D02*
X118870237Y-134204819D01*
X118870237Y-134204819D02*
X118965475Y-134204819D01*
X118965475Y-134204819D02*
X119108332Y-134252438D01*
X119108332Y-134252438D02*
X119155951Y-134300057D01*
X120013094Y-134204819D02*
X119822618Y-134204819D01*
X119822618Y-134204819D02*
X119727380Y-134252438D01*
X119727380Y-134252438D02*
X119679761Y-134300057D01*
X119679761Y-134300057D02*
X119584523Y-134442914D01*
X119584523Y-134442914D02*
X119536904Y-134633390D01*
X119536904Y-134633390D02*
X119536904Y-135014342D01*
X119536904Y-135014342D02*
X119584523Y-135109580D01*
X119584523Y-135109580D02*
X119632142Y-135157200D01*
X119632142Y-135157200D02*
X119727380Y-135204819D01*
X119727380Y-135204819D02*
X119917856Y-135204819D01*
X119917856Y-135204819D02*
X120013094Y-135157200D01*
X120013094Y-135157200D02*
X120060713Y-135109580D01*
X120060713Y-135109580D02*
X120108332Y-135014342D01*
X120108332Y-135014342D02*
X120108332Y-134776247D01*
X120108332Y-134776247D02*
X120060713Y-134681009D01*
X120060713Y-134681009D02*
X120013094Y-134633390D01*
X120013094Y-134633390D02*
X119917856Y-134585771D01*
X119917856Y-134585771D02*
X119727380Y-134585771D01*
X119727380Y-134585771D02*
X119632142Y-134633390D01*
X119632142Y-134633390D02*
X119584523Y-134681009D01*
X119584523Y-134681009D02*
X119536904Y-134776247D01*
X119379437Y-130468666D02*
X118903246Y-130801999D01*
X119379437Y-131040094D02*
X118379437Y-131040094D01*
X118379437Y-131040094D02*
X118379437Y-130659142D01*
X118379437Y-130659142D02*
X118427056Y-130563904D01*
X118427056Y-130563904D02*
X118474675Y-130516285D01*
X118474675Y-130516285D02*
X118569913Y-130468666D01*
X118569913Y-130468666D02*
X118712770Y-130468666D01*
X118712770Y-130468666D02*
X118808008Y-130516285D01*
X118808008Y-130516285D02*
X118855627Y-130563904D01*
X118855627Y-130563904D02*
X118903246Y-130659142D01*
X118903246Y-130659142D02*
X118903246Y-131040094D01*
X118379437Y-130135332D02*
X118379437Y-129516285D01*
X118379437Y-129516285D02*
X118760389Y-129849618D01*
X118760389Y-129849618D02*
X118760389Y-129706761D01*
X118760389Y-129706761D02*
X118808008Y-129611523D01*
X118808008Y-129611523D02*
X118855627Y-129563904D01*
X118855627Y-129563904D02*
X118950865Y-129516285D01*
X118950865Y-129516285D02*
X119188960Y-129516285D01*
X119188960Y-129516285D02*
X119284198Y-129563904D01*
X119284198Y-129563904D02*
X119331818Y-129611523D01*
X119331818Y-129611523D02*
X119379437Y-129706761D01*
X119379437Y-129706761D02*
X119379437Y-129992475D01*
X119379437Y-129992475D02*
X119331818Y-130087713D01*
X119331818Y-130087713D02*
X119284198Y-130135332D01*
X134368451Y-135109580D02*
X134320832Y-135157200D01*
X134320832Y-135157200D02*
X134177975Y-135204819D01*
X134177975Y-135204819D02*
X134082737Y-135204819D01*
X134082737Y-135204819D02*
X133939880Y-135157200D01*
X133939880Y-135157200D02*
X133844642Y-135061961D01*
X133844642Y-135061961D02*
X133797023Y-134966723D01*
X133797023Y-134966723D02*
X133749404Y-134776247D01*
X133749404Y-134776247D02*
X133749404Y-134633390D01*
X133749404Y-134633390D02*
X133797023Y-134442914D01*
X133797023Y-134442914D02*
X133844642Y-134347676D01*
X133844642Y-134347676D02*
X133939880Y-134252438D01*
X133939880Y-134252438D02*
X134082737Y-134204819D01*
X134082737Y-134204819D02*
X134177975Y-134204819D01*
X134177975Y-134204819D02*
X134320832Y-134252438D01*
X134320832Y-134252438D02*
X134368451Y-134300057D01*
X134701785Y-134204819D02*
X135320832Y-134204819D01*
X135320832Y-134204819D02*
X134987499Y-134585771D01*
X134987499Y-134585771D02*
X135130356Y-134585771D01*
X135130356Y-134585771D02*
X135225594Y-134633390D01*
X135225594Y-134633390D02*
X135273213Y-134681009D01*
X135273213Y-134681009D02*
X135320832Y-134776247D01*
X135320832Y-134776247D02*
X135320832Y-135014342D01*
X135320832Y-135014342D02*
X135273213Y-135109580D01*
X135273213Y-135109580D02*
X135225594Y-135157200D01*
X135225594Y-135157200D02*
X135130356Y-135204819D01*
X135130356Y-135204819D02*
X134844642Y-135204819D01*
X134844642Y-135204819D02*
X134749404Y-135157200D01*
X134749404Y-135157200D02*
X134701785Y-135109580D01*
D11*
%TO.C,R5*%
X98069618Y-130217936D02*
X98069618Y-130672064D01*
X96599618Y-130217936D02*
X96599618Y-130672064D01*
%TO.C,R1*%
X95095554Y-80265000D02*
X95549682Y-80265000D01*
X95095554Y-81735000D02*
X95549682Y-81735000D01*
%TO.C,L1*%
X126252618Y-72569651D02*
X128552618Y-72569651D01*
X128552618Y-72569651D02*
X128552618Y-79969651D01*
X128552618Y-79969651D02*
X126252618Y-79969651D01*
X121152618Y-72569651D02*
X123452618Y-72569651D01*
X121152618Y-79969651D02*
X121152618Y-72569651D01*
X123452618Y-79969651D02*
X121152618Y-79969651D01*
%TO.C,R7*%
X95095554Y-71265000D02*
X95549682Y-71265000D01*
X95095554Y-72735000D02*
X95549682Y-72735000D01*
%TO.C,U4*%
X141237618Y-73702651D02*
X139872618Y-73702651D01*
X139872618Y-73702651D02*
X139872618Y-74652651D01*
X139872618Y-84102651D02*
X139872618Y-83152651D01*
X141237618Y-84102651D02*
X139872618Y-84102651D01*
X137047618Y-74692651D02*
X136707618Y-74222651D01*
X137387618Y-74222651D01*
X137047618Y-74692651D01*
G36*
X137047618Y-74692651D02*
G01*
X136707618Y-74222651D01*
X137387618Y-74222651D01*
X137047618Y-74692651D01*
G37*
%TO.C,R9*%
X133502618Y-81560936D02*
X133502618Y-82015064D01*
X132032618Y-81560936D02*
X132032618Y-82015064D01*
%TO.C,R8*%
X104095554Y-71265000D02*
X104549682Y-71265000D01*
X104095554Y-72735000D02*
X104549682Y-72735000D01*
%TO.C,R2*%
X123977618Y-130217936D02*
X123977618Y-130672064D01*
X122507618Y-130217936D02*
X122507618Y-130672064D01*
%TO.C,C5*%
X96333870Y-135765000D02*
X95811366Y-135765000D01*
X96333870Y-137235000D02*
X95811366Y-137235000D01*
%TO.C,R4*%
X100482618Y-130217936D02*
X100482618Y-130672064D01*
X99012618Y-130217936D02*
X99012618Y-130672064D01*
%TO.C,C4*%
X111546370Y-135765000D02*
X111023866Y-135765000D01*
X111546370Y-137235000D02*
X111023866Y-137235000D01*
%TO.C,R10*%
X131216618Y-81544936D02*
X131216618Y-81999064D01*
X129746618Y-81544936D02*
X129746618Y-81999064D01*
%TO.C,D1*%
X127193118Y-71108500D02*
X127193118Y-63698500D01*
X122893118Y-71108500D02*
X127193118Y-71108500D01*
X122893118Y-71108500D02*
X122893118Y-63698500D01*
%TO.C,R6*%
X104095554Y-80265000D02*
X104549682Y-80265000D01*
X104095554Y-81735000D02*
X104549682Y-81735000D01*
%TO.C,C6*%
X119583870Y-135765000D02*
X119061366Y-135765000D01*
X119583870Y-137235000D02*
X119061366Y-137235000D01*
%TO.C,R3*%
X121437618Y-130201936D02*
X121437618Y-130656064D01*
X119967618Y-130201936D02*
X119967618Y-130656064D01*
%TO.C,C3*%
X134833870Y-135765000D02*
X134311366Y-135765000D01*
X134833870Y-137235000D02*
X134311366Y-137235000D01*
%TD*%
%LPC*%
D12*
%TO.C,D5*%
X105597618Y-67500000D03*
D13*
X103057618Y-67500000D03*
%TD*%
D12*
%TO.C,D3*%
X105597618Y-76500000D03*
D13*
X103057618Y-76500000D03*
%TD*%
D14*
%TO.C,J1*%
X111322618Y-147805000D03*
D15*
X106322618Y-147805000D03*
X101322618Y-147805000D03*
X96322618Y-147805000D03*
%TD*%
D16*
%TO.C,U5*%
X91430538Y-88070000D03*
D17*
X93970538Y-88070000D03*
X96510538Y-88070000D03*
X99050538Y-88070000D03*
X101590538Y-88070000D03*
X104130538Y-88070000D03*
X106670538Y-88070000D03*
X109210538Y-88070000D03*
X111750538Y-88070000D03*
X114290538Y-88070000D03*
X116830538Y-88070000D03*
X119370538Y-88070000D03*
X121910538Y-88070000D03*
X124450538Y-88070000D03*
X126990538Y-88070000D03*
X129530538Y-88070000D03*
X132070538Y-88070000D03*
X134610538Y-88070000D03*
X137150538Y-88070000D03*
X139687818Y-88066320D03*
X142227818Y-88066320D03*
X144767818Y-88066320D03*
X144770538Y-110930000D03*
X142230538Y-110930000D03*
X139690538Y-110930000D03*
X137150538Y-110930000D03*
X134610538Y-110930000D03*
X132070538Y-110930000D03*
X129530538Y-110930000D03*
X126990538Y-110930000D03*
X124450538Y-110930000D03*
X121910538Y-110930000D03*
X119370538Y-110930000D03*
X116830538Y-110930000D03*
X114290538Y-110930000D03*
X111750538Y-110930000D03*
X109210538Y-110930000D03*
X106670538Y-110930000D03*
X104130538Y-110930000D03*
X101590538Y-110930000D03*
X99050538Y-110930000D03*
X96510538Y-110930000D03*
X93970538Y-110930000D03*
X91430538Y-110930000D03*
%TD*%
D18*
%TO.C,U1*%
X112712618Y-126650000D03*
D19*
X110172618Y-126650000D03*
X107632618Y-126650000D03*
X105092618Y-126650000D03*
X102552618Y-126650000D03*
X100012618Y-126650000D03*
X97472618Y-126650000D03*
X94932618Y-126650000D03*
D18*
X94932618Y-139350000D03*
D19*
X97472618Y-139350000D03*
X100012618Y-139350000D03*
X102552618Y-139350000D03*
X105092618Y-139350000D03*
X107632618Y-139350000D03*
X110172618Y-139350000D03*
X112712618Y-139350000D03*
%TD*%
D20*
%TO.C,C1*%
X136272618Y-69305302D03*
D21*
X136272618Y-64305302D03*
%TD*%
D22*
%TO.C,J10*%
X140572618Y-123830000D03*
D23*
X140572618Y-121290000D03*
X140572618Y-118750000D03*
%TD*%
D20*
%TO.C,C8*%
X87993967Y-135625651D03*
D21*
X87993967Y-130625651D03*
%TD*%
D14*
%TO.C,J3*%
X134572618Y-147805000D03*
D15*
X129572618Y-147805000D03*
X124572618Y-147805000D03*
X119572618Y-147805000D03*
%TD*%
D20*
%TO.C,C2*%
X115622618Y-77840651D03*
D21*
X115622618Y-72840651D03*
%TD*%
D22*
%TO.C,J4*%
X98604618Y-120775000D03*
D23*
X98604618Y-118235000D03*
%TD*%
D22*
%TO.C,J5*%
X102414618Y-120775000D03*
D23*
X102414618Y-118235000D03*
%TD*%
D22*
%TO.C,J6*%
X124258618Y-120750000D03*
D23*
X124258618Y-118210000D03*
%TD*%
D12*
%TO.C,D4*%
X96597618Y-67500000D03*
D13*
X94057618Y-67500000D03*
%TD*%
D22*
%TO.C,J8*%
X145072618Y-123830000D03*
D23*
X145072618Y-121290000D03*
X145072618Y-118750000D03*
%TD*%
D22*
%TO.C,J7*%
X120572618Y-120750000D03*
D23*
X120572618Y-118210000D03*
%TD*%
D18*
%TO.C,U2*%
X135962618Y-126650000D03*
D19*
X133422618Y-126650000D03*
X130882618Y-126650000D03*
X128342618Y-126650000D03*
X125802618Y-126650000D03*
X123262618Y-126650000D03*
X120722618Y-126650000D03*
X118182618Y-126650000D03*
D18*
X118182618Y-139350000D03*
D19*
X120722618Y-139350000D03*
X123262618Y-139350000D03*
X125802618Y-139350000D03*
X128342618Y-139350000D03*
X130882618Y-139350000D03*
X133422618Y-139350000D03*
X135962618Y-139350000D03*
%TD*%
D20*
%TO.C,C7*%
X143181618Y-147690651D03*
D21*
X143181618Y-142690651D03*
%TD*%
D12*
%TO.C,D2*%
X96597618Y-76500000D03*
D13*
X94057618Y-76500000D03*
%TD*%
D22*
%TO.C,J9*%
X145072618Y-134080000D03*
D23*
X145072618Y-131540000D03*
X145072618Y-129000000D03*
%TD*%
D14*
%TO.C,J2*%
X145727618Y-66597651D03*
D15*
X150807618Y-66597651D03*
%TD*%
D22*
%TO.C,J11*%
X140572618Y-134080000D03*
D23*
X140572618Y-131540000D03*
X140572618Y-129000000D03*
%TD*%
D24*
%TO.C,R5*%
X97334618Y-129445000D03*
X97334618Y-131445000D03*
%TD*%
D25*
%TO.C,R1*%
X94322618Y-81000000D03*
X96322618Y-81000000D03*
%TD*%
D26*
%TO.C,L1*%
X124852618Y-73269651D03*
X124852618Y-79269651D03*
%TD*%
D25*
%TO.C,R7*%
X94322618Y-72000000D03*
X96322618Y-72000000D03*
%TD*%
D27*
%TO.C,U4*%
X137047618Y-75502651D03*
X137047618Y-77202651D03*
X137047618Y-78902651D03*
D28*
X146197618Y-78902651D03*
D27*
X137047618Y-80602651D03*
X137047618Y-82302651D03*
%TD*%
D24*
%TO.C,R9*%
X132767618Y-80788000D03*
X132767618Y-82788000D03*
%TD*%
D25*
%TO.C,R8*%
X103322618Y-72000000D03*
X105322618Y-72000000D03*
%TD*%
D24*
%TO.C,R2*%
X123242618Y-129445000D03*
X123242618Y-131445000D03*
%TD*%
D29*
%TO.C,C5*%
X97110118Y-136500000D03*
X95035118Y-136500000D03*
%TD*%
D24*
%TO.C,R4*%
X99747618Y-129445000D03*
X99747618Y-131445000D03*
%TD*%
D29*
%TO.C,C4*%
X112322618Y-136500000D03*
X110247618Y-136500000D03*
%TD*%
D24*
%TO.C,R10*%
X130481618Y-80772000D03*
X130481618Y-82772000D03*
%TD*%
D30*
%TO.C,D1*%
X125043118Y-69098500D03*
X125043118Y-63698500D03*
%TD*%
D25*
%TO.C,R6*%
X103322618Y-81000000D03*
X105322618Y-81000000D03*
%TD*%
D29*
%TO.C,C6*%
X120360118Y-136500000D03*
X118285118Y-136500000D03*
%TD*%
D24*
%TO.C,R3*%
X120702618Y-129429000D03*
X120702618Y-131429000D03*
%TD*%
D29*
%TO.C,C3*%
X135610118Y-136500000D03*
X133535118Y-136500000D03*
%TD*%
%LPD*%
M02*
