%TF.GenerationSoftware,KiCad,Pcbnew,8.0.0*%
%TF.CreationDate,2025-04-05T00:05:52+03:00*%
%TF.ProjectId,esp_stepper,6573705f-7374-4657-9070-65722e6b6963,rev?*%
%TF.SameCoordinates,Original*%
%TF.FileFunction,Copper,L2,Bot*%
%TF.FilePolarity,Positive*%
%FSLAX46Y46*%
G04 Gerber Fmt 4.6, Leading zero omitted, Abs format (unit mm)*
G04 Created by KiCad (PCBNEW 8.0.0) date 2025-04-05 00:05:52*
%MOMM*%
%LPD*%
G01*
G04 APERTURE LIST*
%TA.AperFunction,ComponentPad*%
%ADD10R,1.800000X1.800000*%
%TD*%
%TA.AperFunction,ComponentPad*%
%ADD11C,1.800000*%
%TD*%
%TA.AperFunction,ComponentPad*%
%ADD12R,2.600000X2.600000*%
%TD*%
%TA.AperFunction,ComponentPad*%
%ADD13C,2.600000*%
%TD*%
%TA.AperFunction,ComponentPad*%
%ADD14R,1.800000X2.600000*%
%TD*%
%TA.AperFunction,ComponentPad*%
%ADD15O,1.800000X2.600000*%
%TD*%
%TA.AperFunction,ComponentPad*%
%ADD16R,1.600000X1.600000*%
%TD*%
%TA.AperFunction,ComponentPad*%
%ADD17C,1.600000*%
%TD*%
%TA.AperFunction,ComponentPad*%
%ADD18R,1.700000X1.700000*%
%TD*%
%TA.AperFunction,ComponentPad*%
%ADD19O,1.700000X1.700000*%
%TD*%
%TA.AperFunction,ViaPad*%
%ADD20C,1.600000*%
%TD*%
%TA.AperFunction,ViaPad*%
%ADD21C,4.200000*%
%TD*%
%TA.AperFunction,Conductor*%
%ADD22C,0.600000*%
%TD*%
%TA.AperFunction,Conductor*%
%ADD23C,0.400000*%
%TD*%
G04 APERTURE END LIST*
D10*
%TO.P,D5,1,K*%
%TO.N,GND*%
X105597618Y-67500000D03*
D11*
%TO.P,D5,2,A*%
%TO.N,Net-(D5-A)*%
X103057618Y-67500000D03*
%TD*%
D10*
%TO.P,D3,1,K*%
%TO.N,GND*%
X105597618Y-76500000D03*
D11*
%TO.P,D3,2,A*%
%TO.N,Net-(D3-A)*%
X103057618Y-76500000D03*
%TD*%
D12*
%TO.P,J1,1,Pin_1*%
%TO.N,/1_2B*%
X111322618Y-147805000D03*
D13*
%TO.P,J1,2,Pin_2*%
%TO.N,/1_1B*%
X106322618Y-147805000D03*
%TO.P,J1,3,Pin_3*%
%TO.N,/1_1A*%
X101322618Y-147805000D03*
%TO.P,J1,4,Pin_4*%
%TO.N,/1_2A*%
X96322618Y-147805000D03*
%TD*%
D14*
%TO.P,U5,1,3V3*%
%TO.N,Net-(U5-3V3-Pad1)*%
X91430538Y-88070000D03*
D15*
%TO.P,U5,2,3V3*%
X93970538Y-88070000D03*
%TO.P,U5,3,CHIP_PU*%
%TO.N,unconnected-(U5-CHIP_PU-Pad3)*%
X96510538Y-88070000D03*
%TO.P,U5,4,GPIO4/ADC1_CH3*%
%TO.N,/LED1*%
X99050538Y-88070000D03*
%TO.P,U5,5,GPIO5/ADC1_CH4*%
%TO.N,/LED3*%
X101590538Y-88070000D03*
%TO.P,U5,6,GPIO6/ADC1_CH5*%
%TO.N,/LED2*%
X104130538Y-88070000D03*
%TO.P,U5,7,GPIO7/ADC1_CH6*%
%TO.N,/LED4*%
X106670538Y-88070000D03*
%TO.P,U5,8,GPIO15/ADC2_CH4/32K_P*%
%TO.N,unconnected-(U5-GPIO15{slash}ADC2_CH4{slash}32K_P-Pad8)*%
X109210538Y-88070000D03*
%TO.P,U5,9,GPIO16/ADC2_CH5/32K_N*%
%TO.N,unconnected-(U5-GPIO16{slash}ADC2_CH5{slash}32K_N-Pad9)*%
X111750538Y-88070000D03*
%TO.P,U5,10,GPIO17/ADC2_CH6*%
%TO.N,unconnected-(U5-GPIO17{slash}ADC2_CH6-Pad10)*%
X114290538Y-88070000D03*
%TO.P,U5,11,GPIO18/ADC2_CH7*%
%TO.N,unconnected-(U5-GPIO18{slash}ADC2_CH7-Pad11)*%
X116830538Y-88070000D03*
%TO.P,U5,12,GPIO8/ADC1_CH7*%
%TO.N,unconnected-(U5-GPIO8{slash}ADC1_CH7-Pad12)*%
X119370538Y-88070000D03*
%TO.P,U5,13,GPIO3/ADC1_CH2*%
%TO.N,unconnected-(U5-GPIO3{slash}ADC1_CH2-Pad13)*%
X121910538Y-88070000D03*
%TO.P,U5,14,GPIO46*%
%TO.N,unconnected-(U5-GPIO46-Pad14)*%
X124450538Y-88070000D03*
%TO.P,U5,15,GPIO9/ADC1_CH8*%
%TO.N,unconnected-(U5-GPIO9{slash}ADC1_CH8-Pad15)*%
X126990538Y-88070000D03*
%TO.P,U5,16,GPIO10/ADC1_CH9*%
%TO.N,unconnected-(U5-GPIO10{slash}ADC1_CH9-Pad16)*%
X129530538Y-88070000D03*
%TO.P,U5,17,GPIO11/ADC2_CH0*%
%TO.N,unconnected-(U5-GPIO11{slash}ADC2_CH0-Pad17)*%
X132070538Y-88070000D03*
%TO.P,U5,18,GPIO12/ADC2_CH1*%
%TO.N,/IO_1*%
X134610538Y-88070000D03*
%TO.P,U5,19,GPIO13/ADC2_CH2*%
%TO.N,/IO_4*%
X137150538Y-88070000D03*
%TO.P,U5,20,GPIO14/ADC2_CH3*%
%TO.N,/IO_2*%
X139687818Y-88066320D03*
%TO.P,U5,21,5V*%
%TO.N,+5V*%
X142227818Y-88066320D03*
%TO.P,U5,22,GND*%
%TO.N,GND*%
X144767818Y-88066320D03*
%TO.P,U5,23,GND*%
X144770538Y-110930000D03*
%TO.P,U5,24,GND*%
X142230538Y-110930000D03*
%TO.P,U5,25,GPIO19/USB_D-*%
%TO.N,/IO_3*%
X139690538Y-110930000D03*
%TO.P,U5,26,GPIO20/USB_D+*%
%TO.N,/2_DIR*%
X137150538Y-110930000D03*
%TO.P,U5,27,GPIO21*%
%TO.N,/2_STEP*%
X134610538Y-110930000D03*
%TO.P,U5,28,GPIO47*%
%TO.N,/2_UART1*%
X132070538Y-110930000D03*
%TO.P,U5,29,GPIO48*%
%TO.N,/2_UART2*%
X129530538Y-110930000D03*
%TO.P,U5,30,GPIO45*%
%TO.N,unconnected-(U5-GPIO45-Pad30)*%
X126990538Y-110930000D03*
%TO.P,U5,31,GPIO0*%
%TO.N,unconnected-(U5-GPIO0-Pad31)*%
X124450538Y-110930000D03*
%TO.P,U5,32,GPIO35*%
%TO.N,/2_MS2*%
X121910538Y-110930000D03*
%TO.P,U5,33,GPIO36*%
%TO.N,/2_MS1*%
X119370538Y-110930000D03*
%TO.P,U5,34,GPIO37*%
%TO.N,/2_EN*%
X116830538Y-110930000D03*
%TO.P,U5,35,GPIO38*%
%TO.N,/1_DIR*%
X114290538Y-110930000D03*
%TO.P,U5,36,GPIO39/MTCK*%
%TO.N,/1_STEP*%
X111750538Y-110930000D03*
%TO.P,U5,37,GPIO40/MTDO*%
%TO.N,/1_UART1*%
X109210538Y-110930000D03*
%TO.P,U5,38,GPIO41/MTDI*%
%TO.N,/1_UART2*%
X106670538Y-110930000D03*
%TO.P,U5,39,GPIO42/MTMS*%
%TO.N,unconnected-(U5-GPIO42{slash}MTMS-Pad39)*%
X104130538Y-110930000D03*
%TO.P,U5,40,GPIO2/ADC1_CH1*%
%TO.N,unconnected-(U5-GPIO2{slash}ADC1_CH1-Pad40)*%
X101590538Y-110930000D03*
%TO.P,U5,41,GPIO1/ADC1_CH0*%
%TO.N,/1_MS2*%
X99050538Y-110930000D03*
%TO.P,U5,42,GPIO44/U0RXD*%
%TO.N,/1_MS1*%
X96510538Y-110930000D03*
%TO.P,U5,43,GPIO43/U0TXD*%
%TO.N,/1_EN*%
X93970538Y-110930000D03*
%TO.P,U5,44,GND*%
%TO.N,GND*%
X91430538Y-110930000D03*
%TD*%
D10*
%TO.P,U1,JP1_1,DIR*%
%TO.N,/1_DIR*%
X112712618Y-126650000D03*
D11*
%TO.P,U1,JP1_2,STEP*%
%TO.N,/1_STEP*%
X110172618Y-126650000D03*
%TO.P,U1,JP1_3*%
%TO.N,N/C*%
X107632618Y-126650000D03*
%TO.P,U1,JP1_4,PDN/UART1*%
%TO.N,/1_UART1*%
X105092618Y-126650000D03*
%TO.P,U1,JP1_5,PDN/UART2*%
%TO.N,/1_UART2*%
X102552618Y-126650000D03*
%TO.P,U1,JP1_6,MS2*%
%TO.N,/1_MS2*%
X100012618Y-126650000D03*
%TO.P,U1,JP1_7,MS1*%
%TO.N,/1_MS1*%
X97472618Y-126650000D03*
%TO.P,U1,JP1_8,EN*%
%TO.N,/1_EN*%
X94932618Y-126650000D03*
D10*
%TO.P,U1,JP2_1,VM*%
%TO.N,+12V*%
X94932618Y-139350000D03*
D11*
%TO.P,U1,JP2_2,GND*%
%TO.N,GND*%
X97472618Y-139350000D03*
%TO.P,U1,JP2_3,OA2*%
%TO.N,/1_2A*%
X100012618Y-139350000D03*
%TO.P,U1,JP2_4,OA1*%
%TO.N,/1_1A*%
X102552618Y-139350000D03*
%TO.P,U1,JP2_5,OB1*%
%TO.N,/1_1B*%
X105092618Y-139350000D03*
%TO.P,U1,JP2_6,OB2*%
%TO.N,/1_2B*%
X107632618Y-139350000D03*
%TO.P,U1,JP2_7,VIO*%
%TO.N,+5V*%
X110172618Y-139350000D03*
%TO.P,U1,JP2_8,GND*%
%TO.N,GND*%
X112712618Y-139350000D03*
%TD*%
D16*
%TO.P,C1,1*%
%TO.N,+12V*%
X136272618Y-69305302D03*
D17*
%TO.P,C1,2*%
%TO.N,GND*%
X136272618Y-64305302D03*
%TD*%
D18*
%TO.P,J10,1,Pin_1*%
%TO.N,+5V*%
X140572618Y-123830000D03*
D19*
%TO.P,J10,2,Pin_2*%
%TO.N,/IO_3*%
X140572618Y-121290000D03*
%TO.P,J10,3,Pin_3*%
%TO.N,GND*%
X140572618Y-118750000D03*
%TD*%
D16*
%TO.P,C8,1*%
%TO.N,+12V*%
X87993967Y-135625651D03*
D17*
%TO.P,C8,2*%
%TO.N,GND*%
X87993967Y-130625651D03*
%TD*%
D12*
%TO.P,J3,1,Pin_1*%
%TO.N,/2_2B*%
X134572618Y-147805000D03*
D13*
%TO.P,J3,2,Pin_2*%
%TO.N,/2_1B*%
X129572618Y-147805000D03*
%TO.P,J3,3,Pin_3*%
%TO.N,/2_1A*%
X124572618Y-147805000D03*
%TO.P,J3,4,Pin_4*%
%TO.N,/2_2A*%
X119572618Y-147805000D03*
%TD*%
D16*
%TO.P,C2,1*%
%TO.N,+5V*%
X115622618Y-77840651D03*
D17*
%TO.P,C2,2*%
%TO.N,GND*%
X115622618Y-72840651D03*
%TD*%
D18*
%TO.P,J4,1,Pin_1*%
%TO.N,/1_MS1*%
X98604618Y-120775000D03*
D19*
%TO.P,J4,2,Pin_2*%
%TO.N,GND*%
X98604618Y-118235000D03*
%TD*%
D18*
%TO.P,J5,1,Pin_1*%
%TO.N,/1_MS2*%
X102414618Y-120775000D03*
D19*
%TO.P,J5,2,Pin_2*%
%TO.N,GND*%
X102414618Y-118235000D03*
%TD*%
D18*
%TO.P,J6,1,Pin_1*%
%TO.N,/2_MS2*%
X124258618Y-120750000D03*
D19*
%TO.P,J6,2,Pin_2*%
%TO.N,GND*%
X124258618Y-118210000D03*
%TD*%
D10*
%TO.P,D4,1,K*%
%TO.N,GND*%
X96597618Y-67500000D03*
D11*
%TO.P,D4,2,A*%
%TO.N,Net-(D4-A)*%
X94057618Y-67500000D03*
%TD*%
D18*
%TO.P,J8,1,Pin_1*%
%TO.N,+5V*%
X145072618Y-123830000D03*
D19*
%TO.P,J8,2,Pin_2*%
%TO.N,/IO_1*%
X145072618Y-121290000D03*
%TO.P,J8,3,Pin_3*%
%TO.N,GND*%
X145072618Y-118750000D03*
%TD*%
D18*
%TO.P,J7,1,Pin_1*%
%TO.N,/2_MS1*%
X120572618Y-120750000D03*
D19*
%TO.P,J7,2,Pin_2*%
%TO.N,GND*%
X120572618Y-118210000D03*
%TD*%
D10*
%TO.P,U2,JP1_1,DIR*%
%TO.N,/2_DIR*%
X135962618Y-126650000D03*
D11*
%TO.P,U2,JP1_2,STEP*%
%TO.N,/2_STEP*%
X133422618Y-126650000D03*
%TO.P,U2,JP1_3*%
%TO.N,N/C*%
X130882618Y-126650000D03*
%TO.P,U2,JP1_4,PDN/UART1*%
%TO.N,/2_UART1*%
X128342618Y-126650000D03*
%TO.P,U2,JP1_5,PDN/UART2*%
%TO.N,/2_UART2*%
X125802618Y-126650000D03*
%TO.P,U2,JP1_6,MS2*%
%TO.N,/2_MS2*%
X123262618Y-126650000D03*
%TO.P,U2,JP1_7,MS1*%
%TO.N,/2_MS1*%
X120722618Y-126650000D03*
%TO.P,U2,JP1_8,EN*%
%TO.N,/2_EN*%
X118182618Y-126650000D03*
D10*
%TO.P,U2,JP2_1,VM*%
%TO.N,+12V*%
X118182618Y-139350000D03*
D11*
%TO.P,U2,JP2_2,GND*%
%TO.N,GND*%
X120722618Y-139350000D03*
%TO.P,U2,JP2_3,OA2*%
%TO.N,/2_2A*%
X123262618Y-139350000D03*
%TO.P,U2,JP2_4,OA1*%
%TO.N,/2_1A*%
X125802618Y-139350000D03*
%TO.P,U2,JP2_5,OB1*%
%TO.N,/2_1B*%
X128342618Y-139350000D03*
%TO.P,U2,JP2_6,OB2*%
%TO.N,/2_2B*%
X130882618Y-139350000D03*
%TO.P,U2,JP2_7,VIO*%
%TO.N,+5V*%
X133422618Y-139350000D03*
%TO.P,U2,JP2_8,GND*%
%TO.N,GND*%
X135962618Y-139350000D03*
%TD*%
D16*
%TO.P,C7,1*%
%TO.N,+12V*%
X143181618Y-147690651D03*
D17*
%TO.P,C7,2*%
%TO.N,GND*%
X143181618Y-142690651D03*
%TD*%
D10*
%TO.P,D2,1,K*%
%TO.N,GND*%
X96597618Y-76500000D03*
D11*
%TO.P,D2,2,A*%
%TO.N,Net-(D2-A)*%
X94057618Y-76500000D03*
%TD*%
D18*
%TO.P,J9,1,Pin_1*%
%TO.N,+5V*%
X145072618Y-134080000D03*
D19*
%TO.P,J9,2,Pin_2*%
%TO.N,/IO_2*%
X145072618Y-131540000D03*
%TO.P,J9,3,Pin_3*%
%TO.N,GND*%
X145072618Y-129000000D03*
%TD*%
D12*
%TO.P,J2,1,Pin_1*%
%TO.N,+12V*%
X145727618Y-66597651D03*
D13*
%TO.P,J2,2,Pin_2*%
%TO.N,GND*%
X150807618Y-66597651D03*
%TD*%
D18*
%TO.P,J11,1,Pin_1*%
%TO.N,+5V*%
X140572618Y-134080000D03*
D19*
%TO.P,J11,2,Pin_2*%
%TO.N,/IO_4*%
X140572618Y-131540000D03*
%TO.P,J11,3,Pin_3*%
%TO.N,GND*%
X140572618Y-129000000D03*
%TD*%
D20*
%TO.N,GND*%
X148642618Y-128270000D03*
X141784618Y-114808000D03*
X148642618Y-121285000D03*
D21*
X157322618Y-65000000D03*
D20*
X149277618Y-93345000D03*
X142292618Y-101600000D03*
X153468618Y-82804000D03*
X89206618Y-118364000D03*
D21*
X87322618Y-151000000D03*
D20*
X148642618Y-104775000D03*
D21*
X157322618Y-151000000D03*
D20*
X95048618Y-118364000D03*
X139117618Y-98425000D03*
X158040618Y-72390000D03*
X128322618Y-118364000D03*
D21*
X87322618Y-65000000D03*
%TD*%
D22*
%TO.N,GND*%
X148642618Y-121285000D02*
X148642618Y-128270000D01*
D23*
X148642618Y-104775000D02*
X145467618Y-101600000D01*
X145467618Y-101600000D02*
X142292618Y-101600000D01*
X149277618Y-93345000D02*
X144197618Y-98425000D01*
X158040618Y-72390000D02*
X153468618Y-76962000D01*
D22*
X95048618Y-118364000D02*
X89206618Y-118364000D01*
X131878618Y-114808000D02*
X128322618Y-118364000D01*
D23*
X144197618Y-98425000D02*
X139117618Y-98425000D01*
D22*
X141784618Y-114808000D02*
X131878618Y-114808000D01*
D23*
X153468618Y-76962000D02*
X153468618Y-82804000D01*
%TD*%
M02*
