%TF.GenerationSoftware,KiCad,Pcbnew,8.0.0*%
%TF.CreationDate,2025-04-05T00:05:52+03:00*%
%TF.ProjectId,esp_stepper,6573705f-7374-4657-9070-65722e6b6963,rev?*%
%TF.SameCoordinates,Original*%
%TF.FileFunction,Paste,Top*%
%TF.FilePolarity,Positive*%
%FSLAX46Y46*%
G04 Gerber Fmt 4.6, Leading zero omitted, Abs format (unit mm)*
G04 Created by KiCad (PCBNEW 8.0.0) date 2025-04-05 00:05:52*
%MOMM*%
%LPD*%
G01*
G04 APERTURE LIST*
G04 Aperture macros list*
%AMRoundRect*
0 Rectangle with rounded corners*
0 $1 Rounding radius*
0 $2 $3 $4 $5 $6 $7 $8 $9 X,Y pos of 4 corners*
0 Add a 4 corners polygon primitive as box body*
4,1,4,$2,$3,$4,$5,$6,$7,$8,$9,$2,$3,0*
0 Add four circle primitives for the rounded corners*
1,1,$1+$1,$2,$3*
1,1,$1+$1,$4,$5*
1,1,$1+$1,$6,$7*
1,1,$1+$1,$8,$9*
0 Add four rect primitives between the rounded corners*
20,1,$1+$1,$2,$3,$4,$5,0*
20,1,$1+$1,$4,$5,$6,$7,0*
20,1,$1+$1,$6,$7,$8,$9,0*
20,1,$1+$1,$8,$9,$2,$3,0*%
G04 Aperture macros list end*
%ADD10RoundRect,0.250000X-0.450000X0.350000X-0.450000X-0.350000X0.450000X-0.350000X0.450000X0.350000X0*%
%ADD11RoundRect,0.250000X-0.350000X-0.450000X0.350000X-0.450000X0.350000X0.450000X-0.350000X0.450000X0*%
%ADD12R,2.600000X1.950000*%
%ADD13RoundRect,0.250000X-2.050000X-0.300000X2.050000X-0.300000X2.050000X0.300000X-2.050000X0.300000X0*%
%ADD14RoundRect,0.250000X-2.025000X-2.375000X2.025000X-2.375000X2.025000X2.375000X-2.025000X2.375000X0*%
%ADD15RoundRect,0.250000X0.337500X0.475000X-0.337500X0.475000X-0.337500X-0.475000X0.337500X-0.475000X0*%
%ADD16RoundRect,0.250000X0.900000X-1.500000X0.900000X1.500000X-0.900000X1.500000X-0.900000X-1.500000X0*%
G04 APERTURE END LIST*
D10*
%TO.C,R5*%
X97334618Y-129445000D03*
X97334618Y-131445000D03*
%TD*%
D11*
%TO.C,R1*%
X94322618Y-81000000D03*
X96322618Y-81000000D03*
%TD*%
D12*
%TO.C,L1*%
X124852618Y-73269651D03*
X124852618Y-79269651D03*
%TD*%
D11*
%TO.C,R7*%
X94322618Y-72000000D03*
X96322618Y-72000000D03*
%TD*%
D13*
%TO.C,U4*%
X137047618Y-75502651D03*
X137047618Y-77202651D03*
X137047618Y-78902651D03*
D14*
X143772618Y-81677651D03*
X143772618Y-76127651D03*
X148622618Y-81677651D03*
X148622618Y-76127651D03*
D13*
X137047618Y-80602651D03*
X137047618Y-82302651D03*
%TD*%
D10*
%TO.C,R9*%
X132767618Y-80788000D03*
X132767618Y-82788000D03*
%TD*%
D11*
%TO.C,R8*%
X103322618Y-72000000D03*
X105322618Y-72000000D03*
%TD*%
D10*
%TO.C,R2*%
X123242618Y-129445000D03*
X123242618Y-131445000D03*
%TD*%
D15*
%TO.C,C5*%
X97110118Y-136500000D03*
X95035118Y-136500000D03*
%TD*%
D10*
%TO.C,R4*%
X99747618Y-129445000D03*
X99747618Y-131445000D03*
%TD*%
D15*
%TO.C,C4*%
X112322618Y-136500000D03*
X110247618Y-136500000D03*
%TD*%
D10*
%TO.C,R10*%
X130481618Y-80772000D03*
X130481618Y-82772000D03*
%TD*%
D16*
%TO.C,D1*%
X125043118Y-69098500D03*
X125043118Y-63698500D03*
%TD*%
D11*
%TO.C,R6*%
X103322618Y-81000000D03*
X105322618Y-81000000D03*
%TD*%
D15*
%TO.C,C6*%
X120360118Y-136500000D03*
X118285118Y-136500000D03*
%TD*%
D10*
%TO.C,R3*%
X120702618Y-129429000D03*
X120702618Y-131429000D03*
%TD*%
D15*
%TO.C,C3*%
X135610118Y-136500000D03*
X133535118Y-136500000D03*
%TD*%
M02*
