M48
INCH
T1C0.0315
T2C0.0315
T3C0.0354
T4C0.0394
T5C0.0400
T6C0.0512
T7C0.1181
%
G90
G05
T1
X3.5121Y-4.66
X3.7421Y-4.66
X5.0521Y-4.66
X5.4771Y-3.875
X5.5821Y-4.52
X5.6021Y-4.0
X5.8521Y-4.125
X5.8521Y-4.775
X5.8521Y-5.05
X5.8771Y-3.675
X6.0421Y-3.26
X6.2221Y-2.85
T2
X3.4643Y-5.1427
X3.4643Y-5.3396
X3.5996Y-3.4673
X3.5996Y-4.3673
X3.6996Y-3.4673
X3.6996Y-4.3673
X3.7996Y-3.4673
X3.7996Y-4.3673
X3.8996Y-3.4673
X3.8996Y-4.3673
X3.9996Y-3.4673
X3.9996Y-4.3673
X4.0996Y-3.4673
X4.0996Y-4.3673
X4.1996Y-3.4673
X4.1996Y-4.3673
X4.2996Y-3.4673
X4.2996Y-4.3673
X4.3996Y-3.4673
X4.3996Y-4.3673
X4.4996Y-3.4673
X4.4996Y-4.3673
X4.5521Y-2.8677
X4.5521Y-3.0646
X4.5996Y-3.4673
X4.5996Y-4.3673
X4.6996Y-3.4673
X4.6996Y-4.3673
X4.7996Y-3.4673
X4.7996Y-4.3673
X4.8996Y-3.4673
X4.8996Y-4.3673
X4.9996Y-3.4673
X4.9996Y-4.3673
X5.0996Y-3.4673
X5.0996Y-4.3673
X5.1996Y-3.4673
X5.1996Y-4.3673
X5.2996Y-3.4673
X5.2996Y-4.3673
X5.3651Y-2.5317
X5.3651Y-2.7286
X5.3996Y-3.4673
X5.3996Y-4.3673
X5.4995Y-3.4672
X5.4996Y-4.3673
X5.5995Y-3.4672
X5.5996Y-4.3673
X5.6371Y-5.6177
X5.6371Y-5.8146
X5.6995Y-3.4672
X5.6996Y-4.3673
T3
X3.7031Y-2.6575
X3.7031Y-3.0118
X3.8031Y-2.6575
X3.8031Y-3.0118
X4.0574Y-2.6575
X4.0574Y-3.0118
X4.1574Y-2.6575
X4.1574Y-3.0118
T4
X3.8821Y-4.6549
X3.8821Y-4.7549
X4.0321Y-4.6549
X4.0321Y-4.7549
X4.747Y-4.6539
X4.747Y-4.7539
X4.8921Y-4.6539
X4.8921Y-4.7539
X5.5344Y-4.6752
X5.5344Y-4.7752
X5.5344Y-4.8752
X5.5344Y-5.0787
X5.5344Y-5.1787
X5.5344Y-5.2787
X5.7115Y-4.6752
X5.7115Y-4.7752
X5.7115Y-4.8752
X5.7115Y-5.0787
X5.7115Y-5.1787
X5.7115Y-5.2787
T5
X3.7375Y-4.9862
X3.7375Y-5.4862
X3.8375Y-4.9862
X3.8375Y-5.4862
X3.9375Y-4.9862
X3.9375Y-5.4862
X4.0375Y-4.9862
X4.0375Y-5.4862
X4.1375Y-4.9862
X4.1375Y-5.4862
X4.2375Y-4.9862
X4.2375Y-5.4862
X4.3375Y-4.9862
X4.3375Y-5.4862
X4.4375Y-4.9862
X4.4375Y-5.4862
X4.6529Y-4.9862
X4.6529Y-5.4862
X4.7529Y-4.9862
X4.7529Y-5.4862
X4.8529Y-4.9862
X4.8529Y-5.4862
X4.9529Y-4.9862
X4.9529Y-5.4862
X5.0529Y-4.9862
X5.0529Y-5.4862
X5.1529Y-4.9862
X5.1529Y-5.4862
X5.2529Y-4.9862
X5.2529Y-5.4862
X5.3529Y-4.9862
X5.3529Y-5.4862
T6
X3.7922Y-5.8191
X3.9891Y-5.8191
X4.1859Y-5.8191
X4.3828Y-5.8191
X4.7076Y-5.8191
X4.9044Y-5.8191
X5.1013Y-5.8191
X5.2981Y-5.8191
X5.7373Y-2.622
X5.9373Y-2.622
T7
X3.4379Y-2.5591
X3.4379Y-5.9449
X6.1938Y-2.5591
X6.1938Y-5.9449
M30
