%TF.GenerationSoftware,KiCad,Pcbnew,8.0.0*%
%TF.CreationDate,2025-04-05T00:05:52+03:00*%
%TF.ProjectId,esp_stepper,6573705f-7374-4657-9070-65722e6b6963,rev?*%
%TF.SameCoordinates,Original*%
%TF.FileFunction,Soldermask,Bot*%
%TF.FilePolarity,Negative*%
%FSLAX46Y46*%
G04 Gerber Fmt 4.6, Leading zero omitted, Abs format (unit mm)*
G04 Created by KiCad (PCBNEW 8.0.0) date 2025-04-05 00:05:52*
%MOMM*%
%LPD*%
G01*
G04 APERTURE LIST*
G04 Aperture macros list*
%AMRoundRect*
0 Rectangle with rounded corners*
0 $1 Rounding radius*
0 $2 $3 $4 $5 $6 $7 $8 $9 X,Y pos of 4 corners*
0 Add a 4 corners polygon primitive as box body*
4,1,4,$2,$3,$4,$5,$6,$7,$8,$9,$2,$3,0*
0 Add four circle primitives for the rounded corners*
1,1,$1+$1,$2,$3*
1,1,$1+$1,$4,$5*
1,1,$1+$1,$6,$7*
1,1,$1+$1,$8,$9*
0 Add four rect primitives between the rounded corners*
20,1,$1+$1,$2,$3,$4,$5,0*
20,1,$1+$1,$4,$5,$6,$7,0*
20,1,$1+$1,$6,$7,$8,$9,0*
20,1,$1+$1,$8,$9,$2,$3,0*%
G04 Aperture macros list end*
%ADD10R,1.800000X1.800000*%
%ADD11C,1.800000*%
%ADD12R,2.600000X2.600000*%
%ADD13C,2.600000*%
%ADD14R,1.800000X2.600000*%
%ADD15O,1.800000X2.600000*%
%ADD16RoundRect,0.102000X0.900000X-0.900000X0.900000X0.900000X-0.900000X0.900000X-0.900000X-0.900000X0*%
%ADD17C,2.004000*%
%ADD18R,1.600000X1.600000*%
%ADD19C,1.600000*%
%ADD20R,1.700000X1.700000*%
%ADD21O,1.700000X1.700000*%
G04 APERTURE END LIST*
D10*
%TO.C,D5*%
X105597618Y-67500000D03*
D11*
X103057618Y-67500000D03*
%TD*%
D10*
%TO.C,D3*%
X105597618Y-76500000D03*
D11*
X103057618Y-76500000D03*
%TD*%
D12*
%TO.C,J1*%
X111322618Y-147805000D03*
D13*
X106322618Y-147805000D03*
X101322618Y-147805000D03*
X96322618Y-147805000D03*
%TD*%
D14*
%TO.C,U5*%
X91430538Y-88070000D03*
D15*
X93970538Y-88070000D03*
X96510538Y-88070000D03*
X99050538Y-88070000D03*
X101590538Y-88070000D03*
X104130538Y-88070000D03*
X106670538Y-88070000D03*
X109210538Y-88070000D03*
X111750538Y-88070000D03*
X114290538Y-88070000D03*
X116830538Y-88070000D03*
X119370538Y-88070000D03*
X121910538Y-88070000D03*
X124450538Y-88070000D03*
X126990538Y-88070000D03*
X129530538Y-88070000D03*
X132070538Y-88070000D03*
X134610538Y-88070000D03*
X137150538Y-88070000D03*
X139687818Y-88066320D03*
X142227818Y-88066320D03*
X144767818Y-88066320D03*
X144770538Y-110930000D03*
X142230538Y-110930000D03*
X139690538Y-110930000D03*
X137150538Y-110930000D03*
X134610538Y-110930000D03*
X132070538Y-110930000D03*
X129530538Y-110930000D03*
X126990538Y-110930000D03*
X124450538Y-110930000D03*
X121910538Y-110930000D03*
X119370538Y-110930000D03*
X116830538Y-110930000D03*
X114290538Y-110930000D03*
X111750538Y-110930000D03*
X109210538Y-110930000D03*
X106670538Y-110930000D03*
X104130538Y-110930000D03*
X101590538Y-110930000D03*
X99050538Y-110930000D03*
X96510538Y-110930000D03*
X93970538Y-110930000D03*
X91430538Y-110930000D03*
%TD*%
D16*
%TO.C,U1*%
X112712618Y-126650000D03*
D17*
X110172618Y-126650000D03*
X107632618Y-126650000D03*
X105092618Y-126650000D03*
X102552618Y-126650000D03*
X100012618Y-126650000D03*
X97472618Y-126650000D03*
X94932618Y-126650000D03*
D16*
X94932618Y-139350000D03*
D17*
X97472618Y-139350000D03*
X100012618Y-139350000D03*
X102552618Y-139350000D03*
X105092618Y-139350000D03*
X107632618Y-139350000D03*
X110172618Y-139350000D03*
X112712618Y-139350000D03*
%TD*%
D18*
%TO.C,C1*%
X136272618Y-69305302D03*
D19*
X136272618Y-64305302D03*
%TD*%
D20*
%TO.C,J10*%
X140572618Y-123830000D03*
D21*
X140572618Y-121290000D03*
X140572618Y-118750000D03*
%TD*%
D18*
%TO.C,C8*%
X87993967Y-135625651D03*
D19*
X87993967Y-130625651D03*
%TD*%
D12*
%TO.C,J3*%
X134572618Y-147805000D03*
D13*
X129572618Y-147805000D03*
X124572618Y-147805000D03*
X119572618Y-147805000D03*
%TD*%
D18*
%TO.C,C2*%
X115622618Y-77840651D03*
D19*
X115622618Y-72840651D03*
%TD*%
D20*
%TO.C,J4*%
X98604618Y-120775000D03*
D21*
X98604618Y-118235000D03*
%TD*%
D20*
%TO.C,J5*%
X102414618Y-120775000D03*
D21*
X102414618Y-118235000D03*
%TD*%
D20*
%TO.C,J6*%
X124258618Y-120750000D03*
D21*
X124258618Y-118210000D03*
%TD*%
D10*
%TO.C,D4*%
X96597618Y-67500000D03*
D11*
X94057618Y-67500000D03*
%TD*%
D20*
%TO.C,J8*%
X145072618Y-123830000D03*
D21*
X145072618Y-121290000D03*
X145072618Y-118750000D03*
%TD*%
D20*
%TO.C,J7*%
X120572618Y-120750000D03*
D21*
X120572618Y-118210000D03*
%TD*%
D16*
%TO.C,U2*%
X135962618Y-126650000D03*
D17*
X133422618Y-126650000D03*
X130882618Y-126650000D03*
X128342618Y-126650000D03*
X125802618Y-126650000D03*
X123262618Y-126650000D03*
X120722618Y-126650000D03*
X118182618Y-126650000D03*
D16*
X118182618Y-139350000D03*
D17*
X120722618Y-139350000D03*
X123262618Y-139350000D03*
X125802618Y-139350000D03*
X128342618Y-139350000D03*
X130882618Y-139350000D03*
X133422618Y-139350000D03*
X135962618Y-139350000D03*
%TD*%
D18*
%TO.C,C7*%
X143181618Y-147690651D03*
D19*
X143181618Y-142690651D03*
%TD*%
D10*
%TO.C,D2*%
X96597618Y-76500000D03*
D11*
X94057618Y-76500000D03*
%TD*%
D20*
%TO.C,J9*%
X145072618Y-134080000D03*
D21*
X145072618Y-131540000D03*
X145072618Y-129000000D03*
%TD*%
D12*
%TO.C,J2*%
X145727618Y-66597651D03*
D13*
X150807618Y-66597651D03*
%TD*%
D20*
%TO.C,J11*%
X140572618Y-134080000D03*
D21*
X140572618Y-131540000D03*
X140572618Y-129000000D03*
%TD*%
M02*
