M48
INCH
T1C0.0315
T2C0.0350
T3C0.0394
T4C0.0618
T5C0.1181
%
G90
G05
T1
X3.1063Y-4.2402
X3.1358Y-3.6575
X3.4567Y-4.0379
X3.5236Y-4.2126
X3.7126Y-4.063
X3.8031Y-4.9803
X3.815Y-4.4882
X3.9646Y-4.0472
X3.9843Y-3.4843
X4.0236Y-3.3465
X4.122Y-4.7677
X4.1299Y-4.126
X4.1693Y-3.5709
X4.252Y-4.8701
X4.2795Y-3.3228
X4.3307Y-3.5118
X4.6614Y-3.4685
X4.6772Y-4.2283
T2
X3.9781Y-2.9117
X4.0181Y-2.9818
X4.0581Y-2.9117
X4.0981Y-2.9818
X4.1381Y-2.9117
X4.1781Y-2.9818
X4.2181Y-2.9117
X4.2581Y-2.9818
T3
X3.2879Y-4.5645
X3.2879Y-4.6645
X4.479Y-3.7041
X4.479Y-3.8041
T4
X3.7982Y-2.9467
X4.4383Y-2.9467
T5
X2.7165Y-2.8346
X2.7165Y-4.9213
X4.8031Y-2.8346
X4.8031Y-4.9213
T3
G00X2.6339Y-3.5748
M15
G01X2.6339Y-3.6614
M16
G05
G00X2.811Y-3.8071
M15
G01X2.7244Y-3.8071
M16
G05
G00X2.8819Y-3.5669
M15
G01X2.8819Y-3.6693
M16
G05
M30
