%TF.GenerationSoftware,KiCad,Pcbnew,8.0.0*%
%TF.CreationDate,2024-10-07T21:47:18+03:00*%
%TF.ProjectId,laser_com_v1,6c617365-725f-4636-9f6d-5f76312e6b69,rev?*%
%TF.SameCoordinates,Original*%
%TF.FileFunction,Paste,Top*%
%TF.FilePolarity,Positive*%
%FSLAX46Y46*%
G04 Gerber Fmt 4.6, Leading zero omitted, Abs format (unit mm)*
G04 Created by KiCad (PCBNEW 8.0.0) date 2024-10-07 21:47:18*
%MOMM*%
%LPD*%
G01*
G04 APERTURE LIST*
G04 Aperture macros list*
%AMRoundRect*
0 Rectangle with rounded corners*
0 $1 Rounding radius*
0 $2 $3 $4 $5 $6 $7 $8 $9 X,Y pos of 4 corners*
0 Add a 4 corners polygon primitive as box body*
4,1,4,$2,$3,$4,$5,$6,$7,$8,$9,$2,$3,0*
0 Add four circle primitives for the rounded corners*
1,1,$1+$1,$2,$3*
1,1,$1+$1,$4,$5*
1,1,$1+$1,$6,$7*
1,1,$1+$1,$8,$9*
0 Add four rect primitives between the rounded corners*
20,1,$1+$1,$2,$3,$4,$5,0*
20,1,$1+$1,$4,$5,$6,$7,0*
20,1,$1+$1,$6,$7,$8,$9,0*
20,1,$1+$1,$8,$9,$2,$3,0*%
G04 Aperture macros list end*
%ADD10RoundRect,0.250000X-0.350000X-0.450000X0.350000X-0.450000X0.350000X0.450000X-0.350000X0.450000X0*%
%ADD11RoundRect,0.250000X0.350000X0.450000X-0.350000X0.450000X-0.350000X-0.450000X0.350000X-0.450000X0*%
%ADD12RoundRect,0.250000X-0.475000X0.337500X-0.475000X-0.337500X0.475000X-0.337500X0.475000X0.337500X0*%
%ADD13RoundRect,0.250000X-0.337500X-0.475000X0.337500X-0.475000X0.337500X0.475000X-0.337500X0.475000X0*%
%ADD14RoundRect,0.250000X0.337500X0.475000X-0.337500X0.475000X-0.337500X-0.475000X0.337500X-0.475000X0*%
%ADD15RoundRect,0.250000X0.450000X-0.350000X0.450000X0.350000X-0.450000X0.350000X-0.450000X-0.350000X0*%
%ADD16RoundRect,0.250000X0.650000X-1.000000X0.650000X1.000000X-0.650000X1.000000X-0.650000X-1.000000X0*%
%ADD17RoundRect,0.150000X-0.825000X-0.150000X0.825000X-0.150000X0.825000X0.150000X-0.825000X0.150000X0*%
%ADD18RoundRect,0.250000X-0.450000X0.350000X-0.450000X-0.350000X0.450000X-0.350000X0.450000X0.350000X0*%
%ADD19RoundRect,0.250000X0.475000X-0.337500X0.475000X0.337500X-0.475000X0.337500X-0.475000X-0.337500X0*%
%ADD20RoundRect,0.058750X0.651250X0.176250X-0.651250X0.176250X-0.651250X-0.176250X0.651250X-0.176250X0*%
%ADD21RoundRect,0.250001X-0.624999X0.462499X-0.624999X-0.462499X0.624999X-0.462499X0.624999X0.462499X0*%
%ADD22RoundRect,0.162500X0.162500X-0.617500X0.162500X0.617500X-0.162500X0.617500X-0.162500X-0.617500X0*%
%ADD23RoundRect,0.250000X0.425000X-0.450000X0.425000X0.450000X-0.425000X0.450000X-0.425000X-0.450000X0*%
%ADD24R,1.200000X1.200000*%
%ADD25R,1.600000X1.500000*%
%ADD26RoundRect,0.250001X0.462499X0.624999X-0.462499X0.624999X-0.462499X-0.624999X0.462499X-0.624999X0*%
%ADD27RoundRect,0.080000X0.080000X0.160000X-0.080000X0.160000X-0.080000X-0.160000X0.080000X-0.160000X0*%
%ADD28RoundRect,0.062500X0.325000X0.062500X-0.325000X0.062500X-0.325000X-0.062500X0.325000X-0.062500X0*%
%ADD29RoundRect,0.250001X0.624999X-0.462499X0.624999X0.462499X-0.624999X0.462499X-0.624999X-0.462499X0*%
%ADD30RoundRect,0.100000X0.100000X-0.712500X0.100000X0.712500X-0.100000X0.712500X-0.100000X-0.712500X0*%
%ADD31RoundRect,0.250000X-0.325000X-0.450000X0.325000X-0.450000X0.325000X0.450000X-0.325000X0.450000X0*%
%ADD32RoundRect,0.250000X0.625000X-0.375000X0.625000X0.375000X-0.625000X0.375000X-0.625000X-0.375000X0*%
%ADD33RoundRect,0.250000X0.350000X-0.850000X0.350000X0.850000X-0.350000X0.850000X-0.350000X-0.850000X0*%
%ADD34RoundRect,0.250000X1.125000X-1.275000X1.125000X1.275000X-1.125000X1.275000X-1.125000X-1.275000X0*%
%ADD35RoundRect,0.250000X-0.450000X0.325000X-0.450000X-0.325000X0.450000X-0.325000X0.450000X0.325000X0*%
G04 APERTURE END LIST*
D10*
%TO.C,R23*%
X97503375Y-84416625D03*
X99503375Y-84416625D03*
%TD*%
D11*
%TO.C,R8*%
X114766470Y-90848530D03*
X112766470Y-90848530D03*
%TD*%
D12*
%TO.C,C24*%
X97262500Y-90362500D03*
X97262500Y-92437500D03*
%TD*%
D10*
%TO.C,R9*%
X106266470Y-93848530D03*
X108266470Y-93848530D03*
%TD*%
D13*
%TO.C,C1*%
X83725875Y-95813375D03*
X85800875Y-95813375D03*
%TD*%
D11*
%TO.C,R20*%
X98762500Y-111437500D03*
X96762500Y-111437500D03*
%TD*%
D12*
%TO.C,C23*%
X99762500Y-90362500D03*
X99762500Y-92437500D03*
%TD*%
D14*
%TO.C,C5*%
X121553970Y-96348530D03*
X119478970Y-96348530D03*
%TD*%
D15*
%TO.C,R18*%
X102262500Y-115187500D03*
X102262500Y-113187500D03*
%TD*%
%TO.C,R10*%
X110516470Y-101098530D03*
X110516470Y-99098530D03*
%TD*%
D11*
%TO.C,R14*%
X88550000Y-125725000D03*
X86550000Y-125725000D03*
%TD*%
D16*
%TO.C,D2*%
X73345000Y-83875000D03*
X73345000Y-79875000D03*
%TD*%
D17*
%TO.C,U2*%
X87127500Y-117372500D03*
X87127500Y-118642500D03*
X87127500Y-119912500D03*
X87127500Y-121182500D03*
X92077500Y-121182500D03*
X92077500Y-119912500D03*
X92077500Y-118642500D03*
X92077500Y-117372500D03*
%TD*%
D11*
%TO.C,R3*%
X76550875Y-101063375D03*
X74550875Y-101063375D03*
%TD*%
D18*
%TO.C,R4*%
X108016470Y-113598530D03*
X108016470Y-115598530D03*
%TD*%
D12*
%TO.C,C20*%
X104512500Y-113112500D03*
X104512500Y-115187500D03*
%TD*%
D13*
%TO.C,C8*%
X112728970Y-101386030D03*
X114803970Y-101386030D03*
%TD*%
D18*
%TO.C,R6*%
X119266470Y-99098530D03*
X119266470Y-101098530D03*
%TD*%
D12*
%TO.C,C7*%
X110641470Y-106061030D03*
X110641470Y-108136030D03*
%TD*%
D19*
%TO.C,C21*%
X94762500Y-107187500D03*
X94762500Y-105112500D03*
%TD*%
D20*
%TO.C,U4*%
X100927500Y-101162500D03*
X100927500Y-100512500D03*
X100927500Y-99862500D03*
X100927500Y-99212500D03*
X96597500Y-99212500D03*
X96597500Y-99862500D03*
X96597500Y-100512500D03*
X96597500Y-101162500D03*
%TD*%
D21*
%TO.C,L3*%
X110516470Y-93861030D03*
X110516470Y-96836030D03*
%TD*%
D22*
%TO.C,U1*%
X112816470Y-108948530D03*
X113766470Y-108948530D03*
X114716470Y-108948530D03*
X114716470Y-106248530D03*
X112816470Y-106248530D03*
%TD*%
D11*
%TO.C,R2*%
X85800875Y-102563375D03*
X83800875Y-102563375D03*
%TD*%
D14*
%TO.C,C19*%
X97337500Y-119437500D03*
X95262500Y-119437500D03*
%TD*%
D15*
%TO.C,R25*%
X100762500Y-106937500D03*
X100762500Y-104937500D03*
%TD*%
D23*
%TO.C,C11*%
X69845000Y-84225000D03*
X69845000Y-81525000D03*
%TD*%
D11*
%TO.C,R7*%
X121516470Y-94098530D03*
X119516470Y-94098530D03*
%TD*%
D15*
%TO.C,R11*%
X90095000Y-79777500D03*
X90095000Y-77777500D03*
%TD*%
D19*
%TO.C,C13*%
X87595000Y-84062500D03*
X87595000Y-81987500D03*
%TD*%
D24*
%TO.C,RV1*%
X110416470Y-115848530D03*
D25*
X111416470Y-112598530D03*
D24*
X112416470Y-115848530D03*
%TD*%
D14*
%TO.C,C3*%
X81088375Y-101063375D03*
X79013375Y-101063375D03*
%TD*%
%TO.C,C18*%
X101337500Y-121937500D03*
X99262500Y-121937500D03*
%TD*%
D11*
%TO.C,R13*%
X92762500Y-123437500D03*
X90762500Y-123437500D03*
%TD*%
D15*
%TO.C,R21*%
X99800000Y-96400000D03*
X99800000Y-94400000D03*
%TD*%
D14*
%TO.C,C4*%
X116928970Y-111311030D03*
X114853970Y-111311030D03*
%TD*%
D18*
%TO.C,R12*%
X85762500Y-110687500D03*
X85762500Y-112687500D03*
%TD*%
D26*
%TO.C,L1*%
X81038375Y-95313375D03*
X78063375Y-95313375D03*
%TD*%
D12*
%TO.C,C17*%
X93262500Y-113150000D03*
X93262500Y-115225000D03*
%TD*%
D11*
%TO.C,R15*%
X91012500Y-115187500D03*
X89012500Y-115187500D03*
%TD*%
D10*
%TO.C,R26*%
X111253375Y-86666625D03*
X113253375Y-86666625D03*
%TD*%
D27*
%TO.C,U5*%
X80263375Y-98613375D03*
X80263375Y-98013375D03*
X79863375Y-98613375D03*
X79863375Y-98013375D03*
D28*
X81050875Y-99063375D03*
X81050875Y-98563375D03*
X81050875Y-98063375D03*
X81050875Y-97563375D03*
X79075875Y-97563375D03*
X79075875Y-98063375D03*
X79075875Y-98563375D03*
X79075875Y-99063375D03*
%TD*%
D23*
%TO.C,C6*%
X108141470Y-108753530D03*
X108141470Y-106053530D03*
%TD*%
D29*
%TO.C,L2*%
X117016470Y-96836030D03*
X117016470Y-93861030D03*
%TD*%
D30*
%TO.C,U3*%
X96762500Y-108187500D03*
X97412500Y-108187500D03*
X98062500Y-108187500D03*
X98712500Y-108187500D03*
X98712500Y-103962500D03*
X98062500Y-103962500D03*
X97412500Y-103962500D03*
X96762500Y-103962500D03*
%TD*%
D19*
%TO.C,C10*%
X108266470Y-101136030D03*
X108266470Y-99061030D03*
%TD*%
D14*
%TO.C,C15*%
X88550000Y-123437500D03*
X86475000Y-123437500D03*
%TD*%
D15*
%TO.C,R22*%
X97262500Y-96437500D03*
X97262500Y-94437500D03*
%TD*%
D31*
%TO.C,D1*%
X74525875Y-103563375D03*
X76575875Y-103563375D03*
%TD*%
D23*
%TO.C,C14*%
X83285000Y-112765000D03*
X83285000Y-110065000D03*
%TD*%
D10*
%TO.C,R24*%
X97503375Y-86666625D03*
X99503375Y-86666625D03*
%TD*%
D15*
%TO.C,R5*%
X117016470Y-101098530D03*
X117016470Y-99098530D03*
%TD*%
D32*
%TO.C,F1*%
X77400000Y-90300000D03*
X77400000Y-87500000D03*
%TD*%
D13*
%TO.C,C9*%
X106228970Y-96136030D03*
X108303970Y-96136030D03*
%TD*%
D10*
%TO.C,R27*%
X111253375Y-84416625D03*
X113253375Y-84416625D03*
%TD*%
D33*
%TO.C,U6*%
X77340000Y-84150000D03*
D34*
X78095000Y-79525000D03*
X81145000Y-79525000D03*
X78095000Y-76175000D03*
X81145000Y-76175000D03*
D33*
X81900000Y-84150000D03*
%TD*%
D10*
%TO.C,R16*%
X95300000Y-121900000D03*
X97300000Y-121900000D03*
%TD*%
D13*
%TO.C,C16*%
X88975000Y-112725000D03*
X91050000Y-112725000D03*
%TD*%
%TO.C,C22*%
X90725000Y-99937500D03*
X92800000Y-99937500D03*
%TD*%
D35*
%TO.C,D3*%
X90095000Y-82025000D03*
X90095000Y-84075000D03*
%TD*%
D23*
%TO.C,C12*%
X84845000Y-84125000D03*
X84845000Y-81425000D03*
%TD*%
D10*
%TO.C,R1*%
X83800875Y-100313375D03*
X85800875Y-100313375D03*
%TD*%
D15*
%TO.C,R17*%
X102262500Y-119437500D03*
X102262500Y-117437500D03*
%TD*%
D13*
%TO.C,C2*%
X83800875Y-98063375D03*
X85875875Y-98063375D03*
%TD*%
D15*
%TO.C,R19*%
X99762500Y-119437500D03*
X99762500Y-117437500D03*
%TD*%
M02*
