%TF.GenerationSoftware,KiCad,Pcbnew,8.0.0*%
%TF.CreationDate,2024-10-07T21:47:18+03:00*%
%TF.ProjectId,laser_com_v1,6c617365-725f-4636-9f6d-5f76312e6b69,rev?*%
%TF.SameCoordinates,Original*%
%TF.FileFunction,Legend,Top*%
%TF.FilePolarity,Positive*%
%FSLAX46Y46*%
G04 Gerber Fmt 4.6, Leading zero omitted, Abs format (unit mm)*
G04 Created by KiCad (PCBNEW 8.0.0) date 2024-10-07 21:47:18*
%MOMM*%
%LPD*%
G01*
G04 APERTURE LIST*
G04 Aperture macros list*
%AMRoundRect*
0 Rectangle with rounded corners*
0 $1 Rounding radius*
0 $2 $3 $4 $5 $6 $7 $8 $9 X,Y pos of 4 corners*
0 Add a 4 corners polygon primitive as box body*
4,1,4,$2,$3,$4,$5,$6,$7,$8,$9,$2,$3,0*
0 Add four circle primitives for the rounded corners*
1,1,$1+$1,$2,$3*
1,1,$1+$1,$4,$5*
1,1,$1+$1,$6,$7*
1,1,$1+$1,$8,$9*
0 Add four rect primitives between the rounded corners*
20,1,$1+$1,$2,$3,$4,$5,0*
20,1,$1+$1,$4,$5,$6,$7,0*
20,1,$1+$1,$6,$7,$8,$9,0*
20,1,$1+$1,$8,$9,$2,$3,0*%
G04 Aperture macros list end*
%ADD10C,0.150000*%
%ADD11C,0.120000*%
%ADD12C,0.127000*%
%ADD13C,0.200000*%
%ADD14RoundRect,0.250000X-0.350000X-0.450000X0.350000X-0.450000X0.350000X0.450000X-0.350000X0.450000X0*%
%ADD15R,1.700000X1.700000*%
%ADD16O,1.700000X1.700000*%
%ADD17RoundRect,0.250000X0.350000X0.450000X-0.350000X0.450000X-0.350000X-0.450000X0.350000X-0.450000X0*%
%ADD18RoundRect,0.250000X-0.475000X0.337500X-0.475000X-0.337500X0.475000X-0.337500X0.475000X0.337500X0*%
%ADD19RoundRect,0.250000X-0.337500X-0.475000X0.337500X-0.475000X0.337500X0.475000X-0.337500X0.475000X0*%
%ADD20RoundRect,0.250000X0.337500X0.475000X-0.337500X0.475000X-0.337500X-0.475000X0.337500X-0.475000X0*%
%ADD21RoundRect,0.250000X0.450000X-0.350000X0.450000X0.350000X-0.450000X0.350000X-0.450000X-0.350000X0*%
%ADD22C,3.250000*%
%ADD23R,1.500000X1.500000*%
%ADD24C,1.500000*%
%ADD25C,2.300000*%
%ADD26RoundRect,0.250000X0.650000X-1.000000X0.650000X1.000000X-0.650000X1.000000X-0.650000X-1.000000X0*%
%ADD27RoundRect,0.150000X-0.825000X-0.150000X0.825000X-0.150000X0.825000X0.150000X-0.825000X0.150000X0*%
%ADD28RoundRect,0.250000X-0.450000X0.350000X-0.450000X-0.350000X0.450000X-0.350000X0.450000X0.350000X0*%
%ADD29RoundRect,0.250000X0.475000X-0.337500X0.475000X0.337500X-0.475000X0.337500X-0.475000X-0.337500X0*%
%ADD30RoundRect,0.084250X0.727750X0.252750X-0.727750X0.252750X-0.727750X-0.252750X0.727750X-0.252750X0*%
%ADD31RoundRect,0.250001X-0.624999X0.462499X-0.624999X-0.462499X0.624999X-0.462499X0.624999X0.462499X0*%
%ADD32RoundRect,0.162500X0.162500X-0.617500X0.162500X0.617500X-0.162500X0.617500X-0.162500X-0.617500X0*%
%ADD33R,2.000000X4.600000*%
%ADD34O,2.000000X4.200000*%
%ADD35O,4.200000X2.000000*%
%ADD36RoundRect,0.250000X0.425000X-0.450000X0.425000X0.450000X-0.425000X0.450000X-0.425000X-0.450000X0*%
%ADD37R,1.200000X1.200000*%
%ADD38R,1.600000X1.500000*%
%ADD39RoundRect,0.250001X0.462499X0.624999X-0.462499X0.624999X-0.462499X-0.624999X0.462499X-0.624999X0*%
%ADD40RoundRect,0.062500X0.325000X0.062500X-0.325000X0.062500X-0.325000X-0.062500X0.325000X-0.062500X0*%
%ADD41R,0.800000X1.200000*%
%ADD42RoundRect,0.250001X0.624999X-0.462499X0.624999X0.462499X-0.624999X0.462499X-0.624999X-0.462499X0*%
%ADD43RoundRect,0.100000X0.100000X-0.712500X0.100000X0.712500X-0.100000X0.712500X-0.100000X-0.712500X0*%
%ADD44RoundRect,0.250000X-0.325000X-0.450000X0.325000X-0.450000X0.325000X0.450000X-0.325000X0.450000X0*%
%ADD45RoundRect,0.250000X0.625000X-0.375000X0.625000X0.375000X-0.625000X0.375000X-0.625000X-0.375000X0*%
%ADD46RoundRect,0.250000X0.350000X-0.850000X0.350000X0.850000X-0.350000X0.850000X-0.350000X-0.850000X0*%
%ADD47RoundRect,0.249997X2.650003X-2.950003X2.650003X2.950003X-2.650003X2.950003X-2.650003X-2.950003X0*%
%ADD48RoundRect,0.250000X-0.450000X0.325000X-0.450000X-0.325000X0.450000X-0.325000X0.450000X0.325000X0*%
G04 APERTURE END LIST*
D10*
X94360517Y-84871444D02*
X94027184Y-84395253D01*
X93789089Y-84871444D02*
X93789089Y-83871444D01*
X93789089Y-83871444D02*
X94170041Y-83871444D01*
X94170041Y-83871444D02*
X94265279Y-83919063D01*
X94265279Y-83919063D02*
X94312898Y-83966682D01*
X94312898Y-83966682D02*
X94360517Y-84061920D01*
X94360517Y-84061920D02*
X94360517Y-84204777D01*
X94360517Y-84204777D02*
X94312898Y-84300015D01*
X94312898Y-84300015D02*
X94265279Y-84347634D01*
X94265279Y-84347634D02*
X94170041Y-84395253D01*
X94170041Y-84395253D02*
X93789089Y-84395253D01*
X94741470Y-83966682D02*
X94789089Y-83919063D01*
X94789089Y-83919063D02*
X94884327Y-83871444D01*
X94884327Y-83871444D02*
X95122422Y-83871444D01*
X95122422Y-83871444D02*
X95217660Y-83919063D01*
X95217660Y-83919063D02*
X95265279Y-83966682D01*
X95265279Y-83966682D02*
X95312898Y-84061920D01*
X95312898Y-84061920D02*
X95312898Y-84157158D01*
X95312898Y-84157158D02*
X95265279Y-84300015D01*
X95265279Y-84300015D02*
X94693851Y-84871444D01*
X94693851Y-84871444D02*
X95312898Y-84871444D01*
X95646232Y-83871444D02*
X96265279Y-83871444D01*
X96265279Y-83871444D02*
X95931946Y-84252396D01*
X95931946Y-84252396D02*
X96074803Y-84252396D01*
X96074803Y-84252396D02*
X96170041Y-84300015D01*
X96170041Y-84300015D02*
X96217660Y-84347634D01*
X96217660Y-84347634D02*
X96265279Y-84442872D01*
X96265279Y-84442872D02*
X96265279Y-84680967D01*
X96265279Y-84680967D02*
X96217660Y-84776205D01*
X96217660Y-84776205D02*
X96170041Y-84823825D01*
X96170041Y-84823825D02*
X96074803Y-84871444D01*
X96074803Y-84871444D02*
X95789089Y-84871444D01*
X95789089Y-84871444D02*
X95693851Y-84823825D01*
X95693851Y-84823825D02*
X95646232Y-84776205D01*
X113099803Y-99803349D02*
X112623613Y-99803349D01*
X112623613Y-99803349D02*
X112623613Y-98803349D01*
X113433137Y-99803349D02*
X113433137Y-98803349D01*
X113433137Y-98803349D02*
X113671232Y-98803349D01*
X113671232Y-98803349D02*
X113814089Y-98850968D01*
X113814089Y-98850968D02*
X113909327Y-98946206D01*
X113909327Y-98946206D02*
X113956946Y-99041444D01*
X113956946Y-99041444D02*
X114004565Y-99231920D01*
X114004565Y-99231920D02*
X114004565Y-99374777D01*
X114004565Y-99374777D02*
X113956946Y-99565253D01*
X113956946Y-99565253D02*
X113909327Y-99660491D01*
X113909327Y-99660491D02*
X113814089Y-99755730D01*
X113814089Y-99755730D02*
X113671232Y-99803349D01*
X113671232Y-99803349D02*
X113433137Y-99803349D01*
X114956946Y-99803349D02*
X114385518Y-99803349D01*
X114671232Y-99803349D02*
X114671232Y-98803349D01*
X114671232Y-98803349D02*
X114575994Y-98946206D01*
X114575994Y-98946206D02*
X114480756Y-99041444D01*
X114480756Y-99041444D02*
X114385518Y-99089063D01*
X113599803Y-89553349D02*
X113266470Y-89077158D01*
X113028375Y-89553349D02*
X113028375Y-88553349D01*
X113028375Y-88553349D02*
X113409327Y-88553349D01*
X113409327Y-88553349D02*
X113504565Y-88600968D01*
X113504565Y-88600968D02*
X113552184Y-88648587D01*
X113552184Y-88648587D02*
X113599803Y-88743825D01*
X113599803Y-88743825D02*
X113599803Y-88886682D01*
X113599803Y-88886682D02*
X113552184Y-88981920D01*
X113552184Y-88981920D02*
X113504565Y-89029539D01*
X113504565Y-89029539D02*
X113409327Y-89077158D01*
X113409327Y-89077158D02*
X113028375Y-89077158D01*
X114171232Y-88981920D02*
X114075994Y-88934301D01*
X114075994Y-88934301D02*
X114028375Y-88886682D01*
X114028375Y-88886682D02*
X113980756Y-88791444D01*
X113980756Y-88791444D02*
X113980756Y-88743825D01*
X113980756Y-88743825D02*
X114028375Y-88648587D01*
X114028375Y-88648587D02*
X114075994Y-88600968D01*
X114075994Y-88600968D02*
X114171232Y-88553349D01*
X114171232Y-88553349D02*
X114361708Y-88553349D01*
X114361708Y-88553349D02*
X114456946Y-88600968D01*
X114456946Y-88600968D02*
X114504565Y-88648587D01*
X114504565Y-88648587D02*
X114552184Y-88743825D01*
X114552184Y-88743825D02*
X114552184Y-88791444D01*
X114552184Y-88791444D02*
X114504565Y-88886682D01*
X114504565Y-88886682D02*
X114456946Y-88934301D01*
X114456946Y-88934301D02*
X114361708Y-88981920D01*
X114361708Y-88981920D02*
X114171232Y-88981920D01*
X114171232Y-88981920D02*
X114075994Y-89029539D01*
X114075994Y-89029539D02*
X114028375Y-89077158D01*
X114028375Y-89077158D02*
X113980756Y-89172396D01*
X113980756Y-89172396D02*
X113980756Y-89362872D01*
X113980756Y-89362872D02*
X114028375Y-89458110D01*
X114028375Y-89458110D02*
X114075994Y-89505730D01*
X114075994Y-89505730D02*
X114171232Y-89553349D01*
X114171232Y-89553349D02*
X114361708Y-89553349D01*
X114361708Y-89553349D02*
X114456946Y-89505730D01*
X114456946Y-89505730D02*
X114504565Y-89458110D01*
X114504565Y-89458110D02*
X114552184Y-89362872D01*
X114552184Y-89362872D02*
X114552184Y-89172396D01*
X114552184Y-89172396D02*
X114504565Y-89077158D01*
X114504565Y-89077158D02*
X114456946Y-89029539D01*
X114456946Y-89029539D02*
X114361708Y-88981920D01*
X95872080Y-92042857D02*
X95919700Y-92090476D01*
X95919700Y-92090476D02*
X95967319Y-92233333D01*
X95967319Y-92233333D02*
X95967319Y-92328571D01*
X95967319Y-92328571D02*
X95919700Y-92471428D01*
X95919700Y-92471428D02*
X95824461Y-92566666D01*
X95824461Y-92566666D02*
X95729223Y-92614285D01*
X95729223Y-92614285D02*
X95538747Y-92661904D01*
X95538747Y-92661904D02*
X95395890Y-92661904D01*
X95395890Y-92661904D02*
X95205414Y-92614285D01*
X95205414Y-92614285D02*
X95110176Y-92566666D01*
X95110176Y-92566666D02*
X95014938Y-92471428D01*
X95014938Y-92471428D02*
X94967319Y-92328571D01*
X94967319Y-92328571D02*
X94967319Y-92233333D01*
X94967319Y-92233333D02*
X95014938Y-92090476D01*
X95014938Y-92090476D02*
X95062557Y-92042857D01*
X95062557Y-91661904D02*
X95014938Y-91614285D01*
X95014938Y-91614285D02*
X94967319Y-91519047D01*
X94967319Y-91519047D02*
X94967319Y-91280952D01*
X94967319Y-91280952D02*
X95014938Y-91185714D01*
X95014938Y-91185714D02*
X95062557Y-91138095D01*
X95062557Y-91138095D02*
X95157795Y-91090476D01*
X95157795Y-91090476D02*
X95253033Y-91090476D01*
X95253033Y-91090476D02*
X95395890Y-91138095D01*
X95395890Y-91138095D02*
X95967319Y-91709523D01*
X95967319Y-91709523D02*
X95967319Y-91090476D01*
X95300652Y-90233333D02*
X95967319Y-90233333D01*
X94919700Y-90471428D02*
X95633985Y-90709523D01*
X95633985Y-90709523D02*
X95633985Y-90090476D01*
X104099803Y-94303349D02*
X103766470Y-93827158D01*
X103528375Y-94303349D02*
X103528375Y-93303349D01*
X103528375Y-93303349D02*
X103909327Y-93303349D01*
X103909327Y-93303349D02*
X104004565Y-93350968D01*
X104004565Y-93350968D02*
X104052184Y-93398587D01*
X104052184Y-93398587D02*
X104099803Y-93493825D01*
X104099803Y-93493825D02*
X104099803Y-93636682D01*
X104099803Y-93636682D02*
X104052184Y-93731920D01*
X104052184Y-93731920D02*
X104004565Y-93779539D01*
X104004565Y-93779539D02*
X103909327Y-93827158D01*
X103909327Y-93827158D02*
X103528375Y-93827158D01*
X104575994Y-94303349D02*
X104766470Y-94303349D01*
X104766470Y-94303349D02*
X104861708Y-94255730D01*
X104861708Y-94255730D02*
X104909327Y-94208110D01*
X104909327Y-94208110D02*
X105004565Y-94065253D01*
X105004565Y-94065253D02*
X105052184Y-93874777D01*
X105052184Y-93874777D02*
X105052184Y-93493825D01*
X105052184Y-93493825D02*
X105004565Y-93398587D01*
X105004565Y-93398587D02*
X104956946Y-93350968D01*
X104956946Y-93350968D02*
X104861708Y-93303349D01*
X104861708Y-93303349D02*
X104671232Y-93303349D01*
X104671232Y-93303349D02*
X104575994Y-93350968D01*
X104575994Y-93350968D02*
X104528375Y-93398587D01*
X104528375Y-93398587D02*
X104480756Y-93493825D01*
X104480756Y-93493825D02*
X104480756Y-93731920D01*
X104480756Y-93731920D02*
X104528375Y-93827158D01*
X104528375Y-93827158D02*
X104575994Y-93874777D01*
X104575994Y-93874777D02*
X104671232Y-93922396D01*
X104671232Y-93922396D02*
X104861708Y-93922396D01*
X104861708Y-93922396D02*
X104956946Y-93874777D01*
X104956946Y-93874777D02*
X105004565Y-93827158D01*
X105004565Y-93827158D02*
X105052184Y-93731920D01*
X87634208Y-96172955D02*
X87586589Y-96220575D01*
X87586589Y-96220575D02*
X87443732Y-96268194D01*
X87443732Y-96268194D02*
X87348494Y-96268194D01*
X87348494Y-96268194D02*
X87205637Y-96220575D01*
X87205637Y-96220575D02*
X87110399Y-96125336D01*
X87110399Y-96125336D02*
X87062780Y-96030098D01*
X87062780Y-96030098D02*
X87015161Y-95839622D01*
X87015161Y-95839622D02*
X87015161Y-95696765D01*
X87015161Y-95696765D02*
X87062780Y-95506289D01*
X87062780Y-95506289D02*
X87110399Y-95411051D01*
X87110399Y-95411051D02*
X87205637Y-95315813D01*
X87205637Y-95315813D02*
X87348494Y-95268194D01*
X87348494Y-95268194D02*
X87443732Y-95268194D01*
X87443732Y-95268194D02*
X87586589Y-95315813D01*
X87586589Y-95315813D02*
X87634208Y-95363432D01*
X88586589Y-96268194D02*
X88015161Y-96268194D01*
X88300875Y-96268194D02*
X88300875Y-95268194D01*
X88300875Y-95268194D02*
X88205637Y-95411051D01*
X88205637Y-95411051D02*
X88110399Y-95506289D01*
X88110399Y-95506289D02*
X88015161Y-95553908D01*
X95717319Y-112080357D02*
X95241128Y-112413690D01*
X95717319Y-112651785D02*
X94717319Y-112651785D01*
X94717319Y-112651785D02*
X94717319Y-112270833D01*
X94717319Y-112270833D02*
X94764938Y-112175595D01*
X94764938Y-112175595D02*
X94812557Y-112127976D01*
X94812557Y-112127976D02*
X94907795Y-112080357D01*
X94907795Y-112080357D02*
X95050652Y-112080357D01*
X95050652Y-112080357D02*
X95145890Y-112127976D01*
X95145890Y-112127976D02*
X95193509Y-112175595D01*
X95193509Y-112175595D02*
X95241128Y-112270833D01*
X95241128Y-112270833D02*
X95241128Y-112651785D01*
X94812557Y-111699404D02*
X94764938Y-111651785D01*
X94764938Y-111651785D02*
X94717319Y-111556547D01*
X94717319Y-111556547D02*
X94717319Y-111318452D01*
X94717319Y-111318452D02*
X94764938Y-111223214D01*
X94764938Y-111223214D02*
X94812557Y-111175595D01*
X94812557Y-111175595D02*
X94907795Y-111127976D01*
X94907795Y-111127976D02*
X95003033Y-111127976D01*
X95003033Y-111127976D02*
X95145890Y-111175595D01*
X95145890Y-111175595D02*
X95717319Y-111747023D01*
X95717319Y-111747023D02*
X95717319Y-111127976D01*
X94717319Y-110508928D02*
X94717319Y-110413690D01*
X94717319Y-110413690D02*
X94764938Y-110318452D01*
X94764938Y-110318452D02*
X94812557Y-110270833D01*
X94812557Y-110270833D02*
X94907795Y-110223214D01*
X94907795Y-110223214D02*
X95098271Y-110175595D01*
X95098271Y-110175595D02*
X95336366Y-110175595D01*
X95336366Y-110175595D02*
X95526842Y-110223214D01*
X95526842Y-110223214D02*
X95622080Y-110270833D01*
X95622080Y-110270833D02*
X95669700Y-110318452D01*
X95669700Y-110318452D02*
X95717319Y-110413690D01*
X95717319Y-110413690D02*
X95717319Y-110508928D01*
X95717319Y-110508928D02*
X95669700Y-110604166D01*
X95669700Y-110604166D02*
X95622080Y-110651785D01*
X95622080Y-110651785D02*
X95526842Y-110699404D01*
X95526842Y-110699404D02*
X95336366Y-110747023D01*
X95336366Y-110747023D02*
X95098271Y-110747023D01*
X95098271Y-110747023D02*
X94907795Y-110699404D01*
X94907795Y-110699404D02*
X94812557Y-110651785D01*
X94812557Y-110651785D02*
X94764938Y-110604166D01*
X94764938Y-110604166D02*
X94717319Y-110508928D01*
X81467319Y-117925594D02*
X80467319Y-117925594D01*
X80467319Y-117925594D02*
X80467319Y-117687499D01*
X80467319Y-117687499D02*
X80514938Y-117544642D01*
X80514938Y-117544642D02*
X80610176Y-117449404D01*
X80610176Y-117449404D02*
X80705414Y-117401785D01*
X80705414Y-117401785D02*
X80895890Y-117354166D01*
X80895890Y-117354166D02*
X81038747Y-117354166D01*
X81038747Y-117354166D02*
X81229223Y-117401785D01*
X81229223Y-117401785D02*
X81324461Y-117449404D01*
X81324461Y-117449404D02*
X81419700Y-117544642D01*
X81419700Y-117544642D02*
X81467319Y-117687499D01*
X81467319Y-117687499D02*
X81467319Y-117925594D01*
X80800652Y-116497023D02*
X81467319Y-116497023D01*
X80419700Y-116735118D02*
X81133985Y-116973213D01*
X81133985Y-116973213D02*
X81133985Y-116354166D01*
X101802080Y-92042857D02*
X101849700Y-92090476D01*
X101849700Y-92090476D02*
X101897319Y-92233333D01*
X101897319Y-92233333D02*
X101897319Y-92328571D01*
X101897319Y-92328571D02*
X101849700Y-92471428D01*
X101849700Y-92471428D02*
X101754461Y-92566666D01*
X101754461Y-92566666D02*
X101659223Y-92614285D01*
X101659223Y-92614285D02*
X101468747Y-92661904D01*
X101468747Y-92661904D02*
X101325890Y-92661904D01*
X101325890Y-92661904D02*
X101135414Y-92614285D01*
X101135414Y-92614285D02*
X101040176Y-92566666D01*
X101040176Y-92566666D02*
X100944938Y-92471428D01*
X100944938Y-92471428D02*
X100897319Y-92328571D01*
X100897319Y-92328571D02*
X100897319Y-92233333D01*
X100897319Y-92233333D02*
X100944938Y-92090476D01*
X100944938Y-92090476D02*
X100992557Y-92042857D01*
X100992557Y-91661904D02*
X100944938Y-91614285D01*
X100944938Y-91614285D02*
X100897319Y-91519047D01*
X100897319Y-91519047D02*
X100897319Y-91280952D01*
X100897319Y-91280952D02*
X100944938Y-91185714D01*
X100944938Y-91185714D02*
X100992557Y-91138095D01*
X100992557Y-91138095D02*
X101087795Y-91090476D01*
X101087795Y-91090476D02*
X101183033Y-91090476D01*
X101183033Y-91090476D02*
X101325890Y-91138095D01*
X101325890Y-91138095D02*
X101897319Y-91709523D01*
X101897319Y-91709523D02*
X101897319Y-91090476D01*
X100897319Y-90757142D02*
X100897319Y-90138095D01*
X100897319Y-90138095D02*
X101278271Y-90471428D01*
X101278271Y-90471428D02*
X101278271Y-90328571D01*
X101278271Y-90328571D02*
X101325890Y-90233333D01*
X101325890Y-90233333D02*
X101373509Y-90185714D01*
X101373509Y-90185714D02*
X101468747Y-90138095D01*
X101468747Y-90138095D02*
X101706842Y-90138095D01*
X101706842Y-90138095D02*
X101802080Y-90185714D01*
X101802080Y-90185714D02*
X101849700Y-90233333D01*
X101849700Y-90233333D02*
X101897319Y-90328571D01*
X101897319Y-90328571D02*
X101897319Y-90614285D01*
X101897319Y-90614285D02*
X101849700Y-90709523D01*
X101849700Y-90709523D02*
X101802080Y-90757142D01*
X123349803Y-96708110D02*
X123302184Y-96755730D01*
X123302184Y-96755730D02*
X123159327Y-96803349D01*
X123159327Y-96803349D02*
X123064089Y-96803349D01*
X123064089Y-96803349D02*
X122921232Y-96755730D01*
X122921232Y-96755730D02*
X122825994Y-96660491D01*
X122825994Y-96660491D02*
X122778375Y-96565253D01*
X122778375Y-96565253D02*
X122730756Y-96374777D01*
X122730756Y-96374777D02*
X122730756Y-96231920D01*
X122730756Y-96231920D02*
X122778375Y-96041444D01*
X122778375Y-96041444D02*
X122825994Y-95946206D01*
X122825994Y-95946206D02*
X122921232Y-95850968D01*
X122921232Y-95850968D02*
X123064089Y-95803349D01*
X123064089Y-95803349D02*
X123159327Y-95803349D01*
X123159327Y-95803349D02*
X123302184Y-95850968D01*
X123302184Y-95850968D02*
X123349803Y-95898587D01*
X124254565Y-95803349D02*
X123778375Y-95803349D01*
X123778375Y-95803349D02*
X123730756Y-96279539D01*
X123730756Y-96279539D02*
X123778375Y-96231920D01*
X123778375Y-96231920D02*
X123873613Y-96184301D01*
X123873613Y-96184301D02*
X124111708Y-96184301D01*
X124111708Y-96184301D02*
X124206946Y-96231920D01*
X124206946Y-96231920D02*
X124254565Y-96279539D01*
X124254565Y-96279539D02*
X124302184Y-96374777D01*
X124302184Y-96374777D02*
X124302184Y-96612872D01*
X124302184Y-96612872D02*
X124254565Y-96708110D01*
X124254565Y-96708110D02*
X124206946Y-96755730D01*
X124206946Y-96755730D02*
X124111708Y-96803349D01*
X124111708Y-96803349D02*
X123873613Y-96803349D01*
X123873613Y-96803349D02*
X123778375Y-96755730D01*
X123778375Y-96755730D02*
X123730756Y-96708110D01*
X102717319Y-111330357D02*
X102241128Y-111663690D01*
X102717319Y-111901785D02*
X101717319Y-111901785D01*
X101717319Y-111901785D02*
X101717319Y-111520833D01*
X101717319Y-111520833D02*
X101764938Y-111425595D01*
X101764938Y-111425595D02*
X101812557Y-111377976D01*
X101812557Y-111377976D02*
X101907795Y-111330357D01*
X101907795Y-111330357D02*
X102050652Y-111330357D01*
X102050652Y-111330357D02*
X102145890Y-111377976D01*
X102145890Y-111377976D02*
X102193509Y-111425595D01*
X102193509Y-111425595D02*
X102241128Y-111520833D01*
X102241128Y-111520833D02*
X102241128Y-111901785D01*
X102717319Y-110377976D02*
X102717319Y-110949404D01*
X102717319Y-110663690D02*
X101717319Y-110663690D01*
X101717319Y-110663690D02*
X101860176Y-110758928D01*
X101860176Y-110758928D02*
X101955414Y-110854166D01*
X101955414Y-110854166D02*
X102003033Y-110949404D01*
X102145890Y-109806547D02*
X102098271Y-109901785D01*
X102098271Y-109901785D02*
X102050652Y-109949404D01*
X102050652Y-109949404D02*
X101955414Y-109997023D01*
X101955414Y-109997023D02*
X101907795Y-109997023D01*
X101907795Y-109997023D02*
X101812557Y-109949404D01*
X101812557Y-109949404D02*
X101764938Y-109901785D01*
X101764938Y-109901785D02*
X101717319Y-109806547D01*
X101717319Y-109806547D02*
X101717319Y-109616071D01*
X101717319Y-109616071D02*
X101764938Y-109520833D01*
X101764938Y-109520833D02*
X101812557Y-109473214D01*
X101812557Y-109473214D02*
X101907795Y-109425595D01*
X101907795Y-109425595D02*
X101955414Y-109425595D01*
X101955414Y-109425595D02*
X102050652Y-109473214D01*
X102050652Y-109473214D02*
X102098271Y-109520833D01*
X102098271Y-109520833D02*
X102145890Y-109616071D01*
X102145890Y-109616071D02*
X102145890Y-109806547D01*
X102145890Y-109806547D02*
X102193509Y-109901785D01*
X102193509Y-109901785D02*
X102241128Y-109949404D01*
X102241128Y-109949404D02*
X102336366Y-109997023D01*
X102336366Y-109997023D02*
X102526842Y-109997023D01*
X102526842Y-109997023D02*
X102622080Y-109949404D01*
X102622080Y-109949404D02*
X102669700Y-109901785D01*
X102669700Y-109901785D02*
X102717319Y-109806547D01*
X102717319Y-109806547D02*
X102717319Y-109616071D01*
X102717319Y-109616071D02*
X102669700Y-109520833D01*
X102669700Y-109520833D02*
X102622080Y-109473214D01*
X102622080Y-109473214D02*
X102526842Y-109425595D01*
X102526842Y-109425595D02*
X102336366Y-109425595D01*
X102336366Y-109425595D02*
X102241128Y-109473214D01*
X102241128Y-109473214D02*
X102193509Y-109520833D01*
X102193509Y-109520833D02*
X102145890Y-109616071D01*
X104270041Y-63911444D02*
X104270041Y-64625729D01*
X104270041Y-64625729D02*
X104222422Y-64768586D01*
X104222422Y-64768586D02*
X104127184Y-64863825D01*
X104127184Y-64863825D02*
X103984327Y-64911444D01*
X103984327Y-64911444D02*
X103889089Y-64911444D01*
X105270041Y-64911444D02*
X104698613Y-64911444D01*
X104984327Y-64911444D02*
X104984327Y-63911444D01*
X104984327Y-63911444D02*
X104889089Y-64054301D01*
X104889089Y-64054301D02*
X104793851Y-64149539D01*
X104793851Y-64149539D02*
X104698613Y-64197158D01*
X110971289Y-104241387D02*
X110495098Y-104574720D01*
X110971289Y-104812815D02*
X109971289Y-104812815D01*
X109971289Y-104812815D02*
X109971289Y-104431863D01*
X109971289Y-104431863D02*
X110018908Y-104336625D01*
X110018908Y-104336625D02*
X110066527Y-104289006D01*
X110066527Y-104289006D02*
X110161765Y-104241387D01*
X110161765Y-104241387D02*
X110304622Y-104241387D01*
X110304622Y-104241387D02*
X110399860Y-104289006D01*
X110399860Y-104289006D02*
X110447479Y-104336625D01*
X110447479Y-104336625D02*
X110495098Y-104431863D01*
X110495098Y-104431863D02*
X110495098Y-104812815D01*
X110971289Y-103289006D02*
X110971289Y-103860434D01*
X110971289Y-103574720D02*
X109971289Y-103574720D01*
X109971289Y-103574720D02*
X110114146Y-103669958D01*
X110114146Y-103669958D02*
X110209384Y-103765196D01*
X110209384Y-103765196D02*
X110257003Y-103860434D01*
X109971289Y-102669958D02*
X109971289Y-102574720D01*
X109971289Y-102574720D02*
X110018908Y-102479482D01*
X110018908Y-102479482D02*
X110066527Y-102431863D01*
X110066527Y-102431863D02*
X110161765Y-102384244D01*
X110161765Y-102384244D02*
X110352241Y-102336625D01*
X110352241Y-102336625D02*
X110590336Y-102336625D01*
X110590336Y-102336625D02*
X110780812Y-102384244D01*
X110780812Y-102384244D02*
X110876050Y-102431863D01*
X110876050Y-102431863D02*
X110923670Y-102479482D01*
X110923670Y-102479482D02*
X110971289Y-102574720D01*
X110971289Y-102574720D02*
X110971289Y-102669958D01*
X110971289Y-102669958D02*
X110923670Y-102765196D01*
X110923670Y-102765196D02*
X110876050Y-102812815D01*
X110876050Y-102812815D02*
X110780812Y-102860434D01*
X110780812Y-102860434D02*
X110590336Y-102908053D01*
X110590336Y-102908053D02*
X110352241Y-102908053D01*
X110352241Y-102908053D02*
X110161765Y-102860434D01*
X110161765Y-102860434D02*
X110066527Y-102812815D01*
X110066527Y-102812815D02*
X110018908Y-102765196D01*
X110018908Y-102765196D02*
X109971289Y-102669958D01*
X83407142Y-126179819D02*
X83073809Y-125703628D01*
X82835714Y-126179819D02*
X82835714Y-125179819D01*
X82835714Y-125179819D02*
X83216666Y-125179819D01*
X83216666Y-125179819D02*
X83311904Y-125227438D01*
X83311904Y-125227438D02*
X83359523Y-125275057D01*
X83359523Y-125275057D02*
X83407142Y-125370295D01*
X83407142Y-125370295D02*
X83407142Y-125513152D01*
X83407142Y-125513152D02*
X83359523Y-125608390D01*
X83359523Y-125608390D02*
X83311904Y-125656009D01*
X83311904Y-125656009D02*
X83216666Y-125703628D01*
X83216666Y-125703628D02*
X82835714Y-125703628D01*
X84359523Y-126179819D02*
X83788095Y-126179819D01*
X84073809Y-126179819D02*
X84073809Y-125179819D01*
X84073809Y-125179819D02*
X83978571Y-125322676D01*
X83978571Y-125322676D02*
X83883333Y-125417914D01*
X83883333Y-125417914D02*
X83788095Y-125465533D01*
X85216666Y-125513152D02*
X85216666Y-126179819D01*
X84978571Y-125132200D02*
X84740476Y-125846485D01*
X84740476Y-125846485D02*
X85359523Y-125846485D01*
X73799819Y-77863094D02*
X72799819Y-77863094D01*
X72799819Y-77863094D02*
X72799819Y-77624999D01*
X72799819Y-77624999D02*
X72847438Y-77482142D01*
X72847438Y-77482142D02*
X72942676Y-77386904D01*
X72942676Y-77386904D02*
X73037914Y-77339285D01*
X73037914Y-77339285D02*
X73228390Y-77291666D01*
X73228390Y-77291666D02*
X73371247Y-77291666D01*
X73371247Y-77291666D02*
X73561723Y-77339285D01*
X73561723Y-77339285D02*
X73656961Y-77386904D01*
X73656961Y-77386904D02*
X73752200Y-77482142D01*
X73752200Y-77482142D02*
X73799819Y-77624999D01*
X73799819Y-77624999D02*
X73799819Y-77863094D01*
X72895057Y-76910713D02*
X72847438Y-76863094D01*
X72847438Y-76863094D02*
X72799819Y-76767856D01*
X72799819Y-76767856D02*
X72799819Y-76529761D01*
X72799819Y-76529761D02*
X72847438Y-76434523D01*
X72847438Y-76434523D02*
X72895057Y-76386904D01*
X72895057Y-76386904D02*
X72990295Y-76339285D01*
X72990295Y-76339285D02*
X73085533Y-76339285D01*
X73085533Y-76339285D02*
X73228390Y-76386904D01*
X73228390Y-76386904D02*
X73799819Y-76958332D01*
X73799819Y-76958332D02*
X73799819Y-76339285D01*
X84467319Y-121699404D02*
X85276842Y-121699404D01*
X85276842Y-121699404D02*
X85372080Y-121651785D01*
X85372080Y-121651785D02*
X85419700Y-121604166D01*
X85419700Y-121604166D02*
X85467319Y-121508928D01*
X85467319Y-121508928D02*
X85467319Y-121318452D01*
X85467319Y-121318452D02*
X85419700Y-121223214D01*
X85419700Y-121223214D02*
X85372080Y-121175595D01*
X85372080Y-121175595D02*
X85276842Y-121127976D01*
X85276842Y-121127976D02*
X84467319Y-121127976D01*
X84562557Y-120699404D02*
X84514938Y-120651785D01*
X84514938Y-120651785D02*
X84467319Y-120556547D01*
X84467319Y-120556547D02*
X84467319Y-120318452D01*
X84467319Y-120318452D02*
X84514938Y-120223214D01*
X84514938Y-120223214D02*
X84562557Y-120175595D01*
X84562557Y-120175595D02*
X84657795Y-120127976D01*
X84657795Y-120127976D02*
X84753033Y-120127976D01*
X84753033Y-120127976D02*
X84895890Y-120175595D01*
X84895890Y-120175595D02*
X85467319Y-120747023D01*
X85467319Y-120747023D02*
X85467319Y-120127976D01*
X72634208Y-101518194D02*
X72300875Y-101042003D01*
X72062780Y-101518194D02*
X72062780Y-100518194D01*
X72062780Y-100518194D02*
X72443732Y-100518194D01*
X72443732Y-100518194D02*
X72538970Y-100565813D01*
X72538970Y-100565813D02*
X72586589Y-100613432D01*
X72586589Y-100613432D02*
X72634208Y-100708670D01*
X72634208Y-100708670D02*
X72634208Y-100851527D01*
X72634208Y-100851527D02*
X72586589Y-100946765D01*
X72586589Y-100946765D02*
X72538970Y-100994384D01*
X72538970Y-100994384D02*
X72443732Y-101042003D01*
X72443732Y-101042003D02*
X72062780Y-101042003D01*
X72967542Y-100518194D02*
X73586589Y-100518194D01*
X73586589Y-100518194D02*
X73253256Y-100899146D01*
X73253256Y-100899146D02*
X73396113Y-100899146D01*
X73396113Y-100899146D02*
X73491351Y-100946765D01*
X73491351Y-100946765D02*
X73538970Y-100994384D01*
X73538970Y-100994384D02*
X73586589Y-101089622D01*
X73586589Y-101089622D02*
X73586589Y-101327717D01*
X73586589Y-101327717D02*
X73538970Y-101422955D01*
X73538970Y-101422955D02*
X73491351Y-101470575D01*
X73491351Y-101470575D02*
X73396113Y-101518194D01*
X73396113Y-101518194D02*
X73110399Y-101518194D01*
X73110399Y-101518194D02*
X73015161Y-101470575D01*
X73015161Y-101470575D02*
X72967542Y-101422955D01*
X108471289Y-117765196D02*
X107995098Y-118098529D01*
X108471289Y-118336624D02*
X107471289Y-118336624D01*
X107471289Y-118336624D02*
X107471289Y-117955672D01*
X107471289Y-117955672D02*
X107518908Y-117860434D01*
X107518908Y-117860434D02*
X107566527Y-117812815D01*
X107566527Y-117812815D02*
X107661765Y-117765196D01*
X107661765Y-117765196D02*
X107804622Y-117765196D01*
X107804622Y-117765196D02*
X107899860Y-117812815D01*
X107899860Y-117812815D02*
X107947479Y-117860434D01*
X107947479Y-117860434D02*
X107995098Y-117955672D01*
X107995098Y-117955672D02*
X107995098Y-118336624D01*
X107804622Y-116908053D02*
X108471289Y-116908053D01*
X107423670Y-117146148D02*
X108137955Y-117384243D01*
X108137955Y-117384243D02*
X108137955Y-116765196D01*
X104872080Y-111330357D02*
X104919700Y-111377976D01*
X104919700Y-111377976D02*
X104967319Y-111520833D01*
X104967319Y-111520833D02*
X104967319Y-111616071D01*
X104967319Y-111616071D02*
X104919700Y-111758928D01*
X104919700Y-111758928D02*
X104824461Y-111854166D01*
X104824461Y-111854166D02*
X104729223Y-111901785D01*
X104729223Y-111901785D02*
X104538747Y-111949404D01*
X104538747Y-111949404D02*
X104395890Y-111949404D01*
X104395890Y-111949404D02*
X104205414Y-111901785D01*
X104205414Y-111901785D02*
X104110176Y-111854166D01*
X104110176Y-111854166D02*
X104014938Y-111758928D01*
X104014938Y-111758928D02*
X103967319Y-111616071D01*
X103967319Y-111616071D02*
X103967319Y-111520833D01*
X103967319Y-111520833D02*
X104014938Y-111377976D01*
X104014938Y-111377976D02*
X104062557Y-111330357D01*
X104062557Y-110949404D02*
X104014938Y-110901785D01*
X104014938Y-110901785D02*
X103967319Y-110806547D01*
X103967319Y-110806547D02*
X103967319Y-110568452D01*
X103967319Y-110568452D02*
X104014938Y-110473214D01*
X104014938Y-110473214D02*
X104062557Y-110425595D01*
X104062557Y-110425595D02*
X104157795Y-110377976D01*
X104157795Y-110377976D02*
X104253033Y-110377976D01*
X104253033Y-110377976D02*
X104395890Y-110425595D01*
X104395890Y-110425595D02*
X104967319Y-110997023D01*
X104967319Y-110997023D02*
X104967319Y-110377976D01*
X103967319Y-109758928D02*
X103967319Y-109663690D01*
X103967319Y-109663690D02*
X104014938Y-109568452D01*
X104014938Y-109568452D02*
X104062557Y-109520833D01*
X104062557Y-109520833D02*
X104157795Y-109473214D01*
X104157795Y-109473214D02*
X104348271Y-109425595D01*
X104348271Y-109425595D02*
X104586366Y-109425595D01*
X104586366Y-109425595D02*
X104776842Y-109473214D01*
X104776842Y-109473214D02*
X104872080Y-109520833D01*
X104872080Y-109520833D02*
X104919700Y-109568452D01*
X104919700Y-109568452D02*
X104967319Y-109663690D01*
X104967319Y-109663690D02*
X104967319Y-109758928D01*
X104967319Y-109758928D02*
X104919700Y-109854166D01*
X104919700Y-109854166D02*
X104872080Y-109901785D01*
X104872080Y-109901785D02*
X104776842Y-109949404D01*
X104776842Y-109949404D02*
X104586366Y-109997023D01*
X104586366Y-109997023D02*
X104348271Y-109997023D01*
X104348271Y-109997023D02*
X104157795Y-109949404D01*
X104157795Y-109949404D02*
X104062557Y-109901785D01*
X104062557Y-109901785D02*
X104014938Y-109854166D01*
X104014938Y-109854166D02*
X103967319Y-109758928D01*
X113599803Y-103458110D02*
X113552184Y-103505730D01*
X113552184Y-103505730D02*
X113409327Y-103553349D01*
X113409327Y-103553349D02*
X113314089Y-103553349D01*
X113314089Y-103553349D02*
X113171232Y-103505730D01*
X113171232Y-103505730D02*
X113075994Y-103410491D01*
X113075994Y-103410491D02*
X113028375Y-103315253D01*
X113028375Y-103315253D02*
X112980756Y-103124777D01*
X112980756Y-103124777D02*
X112980756Y-102981920D01*
X112980756Y-102981920D02*
X113028375Y-102791444D01*
X113028375Y-102791444D02*
X113075994Y-102696206D01*
X113075994Y-102696206D02*
X113171232Y-102600968D01*
X113171232Y-102600968D02*
X113314089Y-102553349D01*
X113314089Y-102553349D02*
X113409327Y-102553349D01*
X113409327Y-102553349D02*
X113552184Y-102600968D01*
X113552184Y-102600968D02*
X113599803Y-102648587D01*
X114171232Y-102981920D02*
X114075994Y-102934301D01*
X114075994Y-102934301D02*
X114028375Y-102886682D01*
X114028375Y-102886682D02*
X113980756Y-102791444D01*
X113980756Y-102791444D02*
X113980756Y-102743825D01*
X113980756Y-102743825D02*
X114028375Y-102648587D01*
X114028375Y-102648587D02*
X114075994Y-102600968D01*
X114075994Y-102600968D02*
X114171232Y-102553349D01*
X114171232Y-102553349D02*
X114361708Y-102553349D01*
X114361708Y-102553349D02*
X114456946Y-102600968D01*
X114456946Y-102600968D02*
X114504565Y-102648587D01*
X114504565Y-102648587D02*
X114552184Y-102743825D01*
X114552184Y-102743825D02*
X114552184Y-102791444D01*
X114552184Y-102791444D02*
X114504565Y-102886682D01*
X114504565Y-102886682D02*
X114456946Y-102934301D01*
X114456946Y-102934301D02*
X114361708Y-102981920D01*
X114361708Y-102981920D02*
X114171232Y-102981920D01*
X114171232Y-102981920D02*
X114075994Y-103029539D01*
X114075994Y-103029539D02*
X114028375Y-103077158D01*
X114028375Y-103077158D02*
X113980756Y-103172396D01*
X113980756Y-103172396D02*
X113980756Y-103362872D01*
X113980756Y-103362872D02*
X114028375Y-103458110D01*
X114028375Y-103458110D02*
X114075994Y-103505730D01*
X114075994Y-103505730D02*
X114171232Y-103553349D01*
X114171232Y-103553349D02*
X114361708Y-103553349D01*
X114361708Y-103553349D02*
X114456946Y-103505730D01*
X114456946Y-103505730D02*
X114504565Y-103458110D01*
X114504565Y-103458110D02*
X114552184Y-103362872D01*
X114552184Y-103362872D02*
X114552184Y-103172396D01*
X114552184Y-103172396D02*
X114504565Y-103077158D01*
X114504565Y-103077158D02*
X114456946Y-103029539D01*
X114456946Y-103029539D02*
X114361708Y-102981920D01*
X119721289Y-103265196D02*
X119245098Y-103598529D01*
X119721289Y-103836624D02*
X118721289Y-103836624D01*
X118721289Y-103836624D02*
X118721289Y-103455672D01*
X118721289Y-103455672D02*
X118768908Y-103360434D01*
X118768908Y-103360434D02*
X118816527Y-103312815D01*
X118816527Y-103312815D02*
X118911765Y-103265196D01*
X118911765Y-103265196D02*
X119054622Y-103265196D01*
X119054622Y-103265196D02*
X119149860Y-103312815D01*
X119149860Y-103312815D02*
X119197479Y-103360434D01*
X119197479Y-103360434D02*
X119245098Y-103455672D01*
X119245098Y-103455672D02*
X119245098Y-103836624D01*
X118721289Y-102408053D02*
X118721289Y-102598529D01*
X118721289Y-102598529D02*
X118768908Y-102693767D01*
X118768908Y-102693767D02*
X118816527Y-102741386D01*
X118816527Y-102741386D02*
X118959384Y-102836624D01*
X118959384Y-102836624D02*
X119149860Y-102884243D01*
X119149860Y-102884243D02*
X119530812Y-102884243D01*
X119530812Y-102884243D02*
X119626050Y-102836624D01*
X119626050Y-102836624D02*
X119673670Y-102789005D01*
X119673670Y-102789005D02*
X119721289Y-102693767D01*
X119721289Y-102693767D02*
X119721289Y-102503291D01*
X119721289Y-102503291D02*
X119673670Y-102408053D01*
X119673670Y-102408053D02*
X119626050Y-102360434D01*
X119626050Y-102360434D02*
X119530812Y-102312815D01*
X119530812Y-102312815D02*
X119292717Y-102312815D01*
X119292717Y-102312815D02*
X119197479Y-102360434D01*
X119197479Y-102360434D02*
X119149860Y-102408053D01*
X119149860Y-102408053D02*
X119102241Y-102503291D01*
X119102241Y-102503291D02*
X119102241Y-102693767D01*
X119102241Y-102693767D02*
X119149860Y-102789005D01*
X119149860Y-102789005D02*
X119197479Y-102836624D01*
X119197479Y-102836624D02*
X119292717Y-102884243D01*
X111001050Y-110265196D02*
X111048670Y-110312815D01*
X111048670Y-110312815D02*
X111096289Y-110455672D01*
X111096289Y-110455672D02*
X111096289Y-110550910D01*
X111096289Y-110550910D02*
X111048670Y-110693767D01*
X111048670Y-110693767D02*
X110953431Y-110789005D01*
X110953431Y-110789005D02*
X110858193Y-110836624D01*
X110858193Y-110836624D02*
X110667717Y-110884243D01*
X110667717Y-110884243D02*
X110524860Y-110884243D01*
X110524860Y-110884243D02*
X110334384Y-110836624D01*
X110334384Y-110836624D02*
X110239146Y-110789005D01*
X110239146Y-110789005D02*
X110143908Y-110693767D01*
X110143908Y-110693767D02*
X110096289Y-110550910D01*
X110096289Y-110550910D02*
X110096289Y-110455672D01*
X110096289Y-110455672D02*
X110143908Y-110312815D01*
X110143908Y-110312815D02*
X110191527Y-110265196D01*
X110096289Y-109931862D02*
X110096289Y-109265196D01*
X110096289Y-109265196D02*
X111096289Y-109693767D01*
X93359580Y-106755357D02*
X93407200Y-106802976D01*
X93407200Y-106802976D02*
X93454819Y-106945833D01*
X93454819Y-106945833D02*
X93454819Y-107041071D01*
X93454819Y-107041071D02*
X93407200Y-107183928D01*
X93407200Y-107183928D02*
X93311961Y-107279166D01*
X93311961Y-107279166D02*
X93216723Y-107326785D01*
X93216723Y-107326785D02*
X93026247Y-107374404D01*
X93026247Y-107374404D02*
X92883390Y-107374404D01*
X92883390Y-107374404D02*
X92692914Y-107326785D01*
X92692914Y-107326785D02*
X92597676Y-107279166D01*
X92597676Y-107279166D02*
X92502438Y-107183928D01*
X92502438Y-107183928D02*
X92454819Y-107041071D01*
X92454819Y-107041071D02*
X92454819Y-106945833D01*
X92454819Y-106945833D02*
X92502438Y-106802976D01*
X92502438Y-106802976D02*
X92550057Y-106755357D01*
X92550057Y-106374404D02*
X92502438Y-106326785D01*
X92502438Y-106326785D02*
X92454819Y-106231547D01*
X92454819Y-106231547D02*
X92454819Y-105993452D01*
X92454819Y-105993452D02*
X92502438Y-105898214D01*
X92502438Y-105898214D02*
X92550057Y-105850595D01*
X92550057Y-105850595D02*
X92645295Y-105802976D01*
X92645295Y-105802976D02*
X92740533Y-105802976D01*
X92740533Y-105802976D02*
X92883390Y-105850595D01*
X92883390Y-105850595D02*
X93454819Y-106422023D01*
X93454819Y-106422023D02*
X93454819Y-105802976D01*
X93454819Y-104850595D02*
X93454819Y-105422023D01*
X93454819Y-105136309D02*
X92454819Y-105136309D01*
X92454819Y-105136309D02*
X92597676Y-105231547D01*
X92597676Y-105231547D02*
X92692914Y-105326785D01*
X92692914Y-105326785D02*
X92740533Y-105422023D01*
X102254819Y-100161904D02*
X103064342Y-100161904D01*
X103064342Y-100161904D02*
X103159580Y-100114285D01*
X103159580Y-100114285D02*
X103207200Y-100066666D01*
X103207200Y-100066666D02*
X103254819Y-99971428D01*
X103254819Y-99971428D02*
X103254819Y-99780952D01*
X103254819Y-99780952D02*
X103207200Y-99685714D01*
X103207200Y-99685714D02*
X103159580Y-99638095D01*
X103159580Y-99638095D02*
X103064342Y-99590476D01*
X103064342Y-99590476D02*
X102254819Y-99590476D01*
X102588152Y-98685714D02*
X103254819Y-98685714D01*
X102207200Y-98923809D02*
X102921485Y-99161904D01*
X102921485Y-99161904D02*
X102921485Y-98542857D01*
X110971289Y-92015196D02*
X110971289Y-92491386D01*
X110971289Y-92491386D02*
X109971289Y-92491386D01*
X109971289Y-91777100D02*
X109971289Y-91158053D01*
X109971289Y-91158053D02*
X110352241Y-91491386D01*
X110352241Y-91491386D02*
X110352241Y-91348529D01*
X110352241Y-91348529D02*
X110399860Y-91253291D01*
X110399860Y-91253291D02*
X110447479Y-91205672D01*
X110447479Y-91205672D02*
X110542717Y-91158053D01*
X110542717Y-91158053D02*
X110780812Y-91158053D01*
X110780812Y-91158053D02*
X110876050Y-91205672D01*
X110876050Y-91205672D02*
X110923670Y-91253291D01*
X110923670Y-91253291D02*
X110971289Y-91348529D01*
X110971289Y-91348529D02*
X110971289Y-91634243D01*
X110971289Y-91634243D02*
X110923670Y-91729481D01*
X110923670Y-91729481D02*
X110876050Y-91777100D01*
X115808789Y-108322934D02*
X116618312Y-108322934D01*
X116618312Y-108322934D02*
X116713550Y-108275315D01*
X116713550Y-108275315D02*
X116761170Y-108227696D01*
X116761170Y-108227696D02*
X116808789Y-108132458D01*
X116808789Y-108132458D02*
X116808789Y-107941982D01*
X116808789Y-107941982D02*
X116761170Y-107846744D01*
X116761170Y-107846744D02*
X116713550Y-107799125D01*
X116713550Y-107799125D02*
X116618312Y-107751506D01*
X116618312Y-107751506D02*
X115808789Y-107751506D01*
X116808789Y-106751506D02*
X116808789Y-107322934D01*
X116808789Y-107037220D02*
X115808789Y-107037220D01*
X115808789Y-107037220D02*
X115951646Y-107132458D01*
X115951646Y-107132458D02*
X116046884Y-107227696D01*
X116046884Y-107227696D02*
X116094503Y-107322934D01*
X84634208Y-104668194D02*
X84300875Y-104192003D01*
X84062780Y-104668194D02*
X84062780Y-103668194D01*
X84062780Y-103668194D02*
X84443732Y-103668194D01*
X84443732Y-103668194D02*
X84538970Y-103715813D01*
X84538970Y-103715813D02*
X84586589Y-103763432D01*
X84586589Y-103763432D02*
X84634208Y-103858670D01*
X84634208Y-103858670D02*
X84634208Y-104001527D01*
X84634208Y-104001527D02*
X84586589Y-104096765D01*
X84586589Y-104096765D02*
X84538970Y-104144384D01*
X84538970Y-104144384D02*
X84443732Y-104192003D01*
X84443732Y-104192003D02*
X84062780Y-104192003D01*
X85015161Y-103763432D02*
X85062780Y-103715813D01*
X85062780Y-103715813D02*
X85158018Y-103668194D01*
X85158018Y-103668194D02*
X85396113Y-103668194D01*
X85396113Y-103668194D02*
X85491351Y-103715813D01*
X85491351Y-103715813D02*
X85538970Y-103763432D01*
X85538970Y-103763432D02*
X85586589Y-103858670D01*
X85586589Y-103858670D02*
X85586589Y-103953908D01*
X85586589Y-103953908D02*
X85538970Y-104096765D01*
X85538970Y-104096765D02*
X84967542Y-104668194D01*
X84967542Y-104668194D02*
X85586589Y-104668194D01*
X95619642Y-117797080D02*
X95572023Y-117844700D01*
X95572023Y-117844700D02*
X95429166Y-117892319D01*
X95429166Y-117892319D02*
X95333928Y-117892319D01*
X95333928Y-117892319D02*
X95191071Y-117844700D01*
X95191071Y-117844700D02*
X95095833Y-117749461D01*
X95095833Y-117749461D02*
X95048214Y-117654223D01*
X95048214Y-117654223D02*
X95000595Y-117463747D01*
X95000595Y-117463747D02*
X95000595Y-117320890D01*
X95000595Y-117320890D02*
X95048214Y-117130414D01*
X95048214Y-117130414D02*
X95095833Y-117035176D01*
X95095833Y-117035176D02*
X95191071Y-116939938D01*
X95191071Y-116939938D02*
X95333928Y-116892319D01*
X95333928Y-116892319D02*
X95429166Y-116892319D01*
X95429166Y-116892319D02*
X95572023Y-116939938D01*
X95572023Y-116939938D02*
X95619642Y-116987557D01*
X96572023Y-117892319D02*
X96000595Y-117892319D01*
X96286309Y-117892319D02*
X96286309Y-116892319D01*
X96286309Y-116892319D02*
X96191071Y-117035176D01*
X96191071Y-117035176D02*
X96095833Y-117130414D01*
X96095833Y-117130414D02*
X96000595Y-117178033D01*
X97048214Y-117892319D02*
X97238690Y-117892319D01*
X97238690Y-117892319D02*
X97333928Y-117844700D01*
X97333928Y-117844700D02*
X97381547Y-117797080D01*
X97381547Y-117797080D02*
X97476785Y-117654223D01*
X97476785Y-117654223D02*
X97524404Y-117463747D01*
X97524404Y-117463747D02*
X97524404Y-117082795D01*
X97524404Y-117082795D02*
X97476785Y-116987557D01*
X97476785Y-116987557D02*
X97429166Y-116939938D01*
X97429166Y-116939938D02*
X97333928Y-116892319D01*
X97333928Y-116892319D02*
X97143452Y-116892319D01*
X97143452Y-116892319D02*
X97048214Y-116939938D01*
X97048214Y-116939938D02*
X97000595Y-116987557D01*
X97000595Y-116987557D02*
X96952976Y-117082795D01*
X96952976Y-117082795D02*
X96952976Y-117320890D01*
X96952976Y-117320890D02*
X97000595Y-117416128D01*
X97000595Y-117416128D02*
X97048214Y-117463747D01*
X97048214Y-117463747D02*
X97143452Y-117511366D01*
X97143452Y-117511366D02*
X97333928Y-117511366D01*
X97333928Y-117511366D02*
X97429166Y-117463747D01*
X97429166Y-117463747D02*
X97476785Y-117416128D01*
X97476785Y-117416128D02*
X97524404Y-117320890D01*
X103217319Y-106830357D02*
X102741128Y-107163690D01*
X103217319Y-107401785D02*
X102217319Y-107401785D01*
X102217319Y-107401785D02*
X102217319Y-107020833D01*
X102217319Y-107020833D02*
X102264938Y-106925595D01*
X102264938Y-106925595D02*
X102312557Y-106877976D01*
X102312557Y-106877976D02*
X102407795Y-106830357D01*
X102407795Y-106830357D02*
X102550652Y-106830357D01*
X102550652Y-106830357D02*
X102645890Y-106877976D01*
X102645890Y-106877976D02*
X102693509Y-106925595D01*
X102693509Y-106925595D02*
X102741128Y-107020833D01*
X102741128Y-107020833D02*
X102741128Y-107401785D01*
X102312557Y-106449404D02*
X102264938Y-106401785D01*
X102264938Y-106401785D02*
X102217319Y-106306547D01*
X102217319Y-106306547D02*
X102217319Y-106068452D01*
X102217319Y-106068452D02*
X102264938Y-105973214D01*
X102264938Y-105973214D02*
X102312557Y-105925595D01*
X102312557Y-105925595D02*
X102407795Y-105877976D01*
X102407795Y-105877976D02*
X102503033Y-105877976D01*
X102503033Y-105877976D02*
X102645890Y-105925595D01*
X102645890Y-105925595D02*
X103217319Y-106497023D01*
X103217319Y-106497023D02*
X103217319Y-105877976D01*
X102217319Y-104973214D02*
X102217319Y-105449404D01*
X102217319Y-105449404D02*
X102693509Y-105497023D01*
X102693509Y-105497023D02*
X102645890Y-105449404D01*
X102645890Y-105449404D02*
X102598271Y-105354166D01*
X102598271Y-105354166D02*
X102598271Y-105116071D01*
X102598271Y-105116071D02*
X102645890Y-105020833D01*
X102645890Y-105020833D02*
X102693509Y-104973214D01*
X102693509Y-104973214D02*
X102788747Y-104925595D01*
X102788747Y-104925595D02*
X103026842Y-104925595D01*
X103026842Y-104925595D02*
X103122080Y-104973214D01*
X103122080Y-104973214D02*
X103169700Y-105020833D01*
X103169700Y-105020833D02*
X103217319Y-105116071D01*
X103217319Y-105116071D02*
X103217319Y-105354166D01*
X103217319Y-105354166D02*
X103169700Y-105449404D01*
X103169700Y-105449404D02*
X103122080Y-105497023D01*
X73104819Y-98483333D02*
X73819104Y-98483333D01*
X73819104Y-98483333D02*
X73961961Y-98530952D01*
X73961961Y-98530952D02*
X74057200Y-98626190D01*
X74057200Y-98626190D02*
X74104819Y-98769047D01*
X74104819Y-98769047D02*
X74104819Y-98864285D01*
X73200057Y-98054761D02*
X73152438Y-98007142D01*
X73152438Y-98007142D02*
X73104819Y-97911904D01*
X73104819Y-97911904D02*
X73104819Y-97673809D01*
X73104819Y-97673809D02*
X73152438Y-97578571D01*
X73152438Y-97578571D02*
X73200057Y-97530952D01*
X73200057Y-97530952D02*
X73295295Y-97483333D01*
X73295295Y-97483333D02*
X73390533Y-97483333D01*
X73390533Y-97483333D02*
X73533390Y-97530952D01*
X73533390Y-97530952D02*
X74104819Y-98102380D01*
X74104819Y-98102380D02*
X74104819Y-97483333D01*
X70204580Y-79462857D02*
X70252200Y-79510476D01*
X70252200Y-79510476D02*
X70299819Y-79653333D01*
X70299819Y-79653333D02*
X70299819Y-79748571D01*
X70299819Y-79748571D02*
X70252200Y-79891428D01*
X70252200Y-79891428D02*
X70156961Y-79986666D01*
X70156961Y-79986666D02*
X70061723Y-80034285D01*
X70061723Y-80034285D02*
X69871247Y-80081904D01*
X69871247Y-80081904D02*
X69728390Y-80081904D01*
X69728390Y-80081904D02*
X69537914Y-80034285D01*
X69537914Y-80034285D02*
X69442676Y-79986666D01*
X69442676Y-79986666D02*
X69347438Y-79891428D01*
X69347438Y-79891428D02*
X69299819Y-79748571D01*
X69299819Y-79748571D02*
X69299819Y-79653333D01*
X69299819Y-79653333D02*
X69347438Y-79510476D01*
X69347438Y-79510476D02*
X69395057Y-79462857D01*
X70299819Y-78510476D02*
X70299819Y-79081904D01*
X70299819Y-78796190D02*
X69299819Y-78796190D01*
X69299819Y-78796190D02*
X69442676Y-78891428D01*
X69442676Y-78891428D02*
X69537914Y-78986666D01*
X69537914Y-78986666D02*
X69585533Y-79081904D01*
X70299819Y-77558095D02*
X70299819Y-78129523D01*
X70299819Y-77843809D02*
X69299819Y-77843809D01*
X69299819Y-77843809D02*
X69442676Y-77939047D01*
X69442676Y-77939047D02*
X69537914Y-78034285D01*
X69537914Y-78034285D02*
X69585533Y-78129523D01*
X123349803Y-94553349D02*
X123016470Y-94077158D01*
X122778375Y-94553349D02*
X122778375Y-93553349D01*
X122778375Y-93553349D02*
X123159327Y-93553349D01*
X123159327Y-93553349D02*
X123254565Y-93600968D01*
X123254565Y-93600968D02*
X123302184Y-93648587D01*
X123302184Y-93648587D02*
X123349803Y-93743825D01*
X123349803Y-93743825D02*
X123349803Y-93886682D01*
X123349803Y-93886682D02*
X123302184Y-93981920D01*
X123302184Y-93981920D02*
X123254565Y-94029539D01*
X123254565Y-94029539D02*
X123159327Y-94077158D01*
X123159327Y-94077158D02*
X122778375Y-94077158D01*
X123683137Y-93553349D02*
X124349803Y-93553349D01*
X124349803Y-93553349D02*
X123921232Y-94553349D01*
X90549819Y-76170357D02*
X90073628Y-76503690D01*
X90549819Y-76741785D02*
X89549819Y-76741785D01*
X89549819Y-76741785D02*
X89549819Y-76360833D01*
X89549819Y-76360833D02*
X89597438Y-76265595D01*
X89597438Y-76265595D02*
X89645057Y-76217976D01*
X89645057Y-76217976D02*
X89740295Y-76170357D01*
X89740295Y-76170357D02*
X89883152Y-76170357D01*
X89883152Y-76170357D02*
X89978390Y-76217976D01*
X89978390Y-76217976D02*
X90026009Y-76265595D01*
X90026009Y-76265595D02*
X90073628Y-76360833D01*
X90073628Y-76360833D02*
X90073628Y-76741785D01*
X90549819Y-75217976D02*
X90549819Y-75789404D01*
X90549819Y-75503690D02*
X89549819Y-75503690D01*
X89549819Y-75503690D02*
X89692676Y-75598928D01*
X89692676Y-75598928D02*
X89787914Y-75694166D01*
X89787914Y-75694166D02*
X89835533Y-75789404D01*
X90549819Y-74265595D02*
X90549819Y-74837023D01*
X90549819Y-74551309D02*
X89549819Y-74551309D01*
X89549819Y-74551309D02*
X89692676Y-74646547D01*
X89692676Y-74646547D02*
X89787914Y-74741785D01*
X89787914Y-74741785D02*
X89835533Y-74837023D01*
X87992080Y-80167857D02*
X88039700Y-80215476D01*
X88039700Y-80215476D02*
X88087319Y-80358333D01*
X88087319Y-80358333D02*
X88087319Y-80453571D01*
X88087319Y-80453571D02*
X88039700Y-80596428D01*
X88039700Y-80596428D02*
X87944461Y-80691666D01*
X87944461Y-80691666D02*
X87849223Y-80739285D01*
X87849223Y-80739285D02*
X87658747Y-80786904D01*
X87658747Y-80786904D02*
X87515890Y-80786904D01*
X87515890Y-80786904D02*
X87325414Y-80739285D01*
X87325414Y-80739285D02*
X87230176Y-80691666D01*
X87230176Y-80691666D02*
X87134938Y-80596428D01*
X87134938Y-80596428D02*
X87087319Y-80453571D01*
X87087319Y-80453571D02*
X87087319Y-80358333D01*
X87087319Y-80358333D02*
X87134938Y-80215476D01*
X87134938Y-80215476D02*
X87182557Y-80167857D01*
X88087319Y-79215476D02*
X88087319Y-79786904D01*
X88087319Y-79501190D02*
X87087319Y-79501190D01*
X87087319Y-79501190D02*
X87230176Y-79596428D01*
X87230176Y-79596428D02*
X87325414Y-79691666D01*
X87325414Y-79691666D02*
X87373033Y-79786904D01*
X87087319Y-78882142D02*
X87087319Y-78263095D01*
X87087319Y-78263095D02*
X87468271Y-78596428D01*
X87468271Y-78596428D02*
X87468271Y-78453571D01*
X87468271Y-78453571D02*
X87515890Y-78358333D01*
X87515890Y-78358333D02*
X87563509Y-78310714D01*
X87563509Y-78310714D02*
X87658747Y-78263095D01*
X87658747Y-78263095D02*
X87896842Y-78263095D01*
X87896842Y-78263095D02*
X87992080Y-78310714D01*
X87992080Y-78310714D02*
X88039700Y-78358333D01*
X88039700Y-78358333D02*
X88087319Y-78453571D01*
X88087319Y-78453571D02*
X88087319Y-78739285D01*
X88087319Y-78739285D02*
X88039700Y-78834523D01*
X88039700Y-78834523D02*
X87992080Y-78882142D01*
X110671231Y-118053349D02*
X110337898Y-117577158D01*
X110099803Y-118053349D02*
X110099803Y-117053349D01*
X110099803Y-117053349D02*
X110480755Y-117053349D01*
X110480755Y-117053349D02*
X110575993Y-117100968D01*
X110575993Y-117100968D02*
X110623612Y-117148587D01*
X110623612Y-117148587D02*
X110671231Y-117243825D01*
X110671231Y-117243825D02*
X110671231Y-117386682D01*
X110671231Y-117386682D02*
X110623612Y-117481920D01*
X110623612Y-117481920D02*
X110575993Y-117529539D01*
X110575993Y-117529539D02*
X110480755Y-117577158D01*
X110480755Y-117577158D02*
X110099803Y-117577158D01*
X110956946Y-117053349D02*
X111290279Y-118053349D01*
X111290279Y-118053349D02*
X111623612Y-117053349D01*
X112480755Y-118053349D02*
X111909327Y-118053349D01*
X112195041Y-118053349D02*
X112195041Y-117053349D01*
X112195041Y-117053349D02*
X112099803Y-117196206D01*
X112099803Y-117196206D02*
X112004565Y-117291444D01*
X112004565Y-117291444D02*
X111909327Y-117339063D01*
X79884208Y-103102955D02*
X79836589Y-103150575D01*
X79836589Y-103150575D02*
X79693732Y-103198194D01*
X79693732Y-103198194D02*
X79598494Y-103198194D01*
X79598494Y-103198194D02*
X79455637Y-103150575D01*
X79455637Y-103150575D02*
X79360399Y-103055336D01*
X79360399Y-103055336D02*
X79312780Y-102960098D01*
X79312780Y-102960098D02*
X79265161Y-102769622D01*
X79265161Y-102769622D02*
X79265161Y-102626765D01*
X79265161Y-102626765D02*
X79312780Y-102436289D01*
X79312780Y-102436289D02*
X79360399Y-102341051D01*
X79360399Y-102341051D02*
X79455637Y-102245813D01*
X79455637Y-102245813D02*
X79598494Y-102198194D01*
X79598494Y-102198194D02*
X79693732Y-102198194D01*
X79693732Y-102198194D02*
X79836589Y-102245813D01*
X79836589Y-102245813D02*
X79884208Y-102293432D01*
X80217542Y-102198194D02*
X80836589Y-102198194D01*
X80836589Y-102198194D02*
X80503256Y-102579146D01*
X80503256Y-102579146D02*
X80646113Y-102579146D01*
X80646113Y-102579146D02*
X80741351Y-102626765D01*
X80741351Y-102626765D02*
X80788970Y-102674384D01*
X80788970Y-102674384D02*
X80836589Y-102769622D01*
X80836589Y-102769622D02*
X80836589Y-103007717D01*
X80836589Y-103007717D02*
X80788970Y-103102955D01*
X80788970Y-103102955D02*
X80741351Y-103150575D01*
X80741351Y-103150575D02*
X80646113Y-103198194D01*
X80646113Y-103198194D02*
X80360399Y-103198194D01*
X80360399Y-103198194D02*
X80265161Y-103150575D01*
X80265161Y-103150575D02*
X80217542Y-103102955D01*
X99657142Y-124009580D02*
X99609523Y-124057200D01*
X99609523Y-124057200D02*
X99466666Y-124104819D01*
X99466666Y-124104819D02*
X99371428Y-124104819D01*
X99371428Y-124104819D02*
X99228571Y-124057200D01*
X99228571Y-124057200D02*
X99133333Y-123961961D01*
X99133333Y-123961961D02*
X99085714Y-123866723D01*
X99085714Y-123866723D02*
X99038095Y-123676247D01*
X99038095Y-123676247D02*
X99038095Y-123533390D01*
X99038095Y-123533390D02*
X99085714Y-123342914D01*
X99085714Y-123342914D02*
X99133333Y-123247676D01*
X99133333Y-123247676D02*
X99228571Y-123152438D01*
X99228571Y-123152438D02*
X99371428Y-123104819D01*
X99371428Y-123104819D02*
X99466666Y-123104819D01*
X99466666Y-123104819D02*
X99609523Y-123152438D01*
X99609523Y-123152438D02*
X99657142Y-123200057D01*
X100609523Y-124104819D02*
X100038095Y-124104819D01*
X100323809Y-124104819D02*
X100323809Y-123104819D01*
X100323809Y-123104819D02*
X100228571Y-123247676D01*
X100228571Y-123247676D02*
X100133333Y-123342914D01*
X100133333Y-123342914D02*
X100038095Y-123390533D01*
X101180952Y-123533390D02*
X101085714Y-123485771D01*
X101085714Y-123485771D02*
X101038095Y-123438152D01*
X101038095Y-123438152D02*
X100990476Y-123342914D01*
X100990476Y-123342914D02*
X100990476Y-123295295D01*
X100990476Y-123295295D02*
X101038095Y-123200057D01*
X101038095Y-123200057D02*
X101085714Y-123152438D01*
X101085714Y-123152438D02*
X101180952Y-123104819D01*
X101180952Y-123104819D02*
X101371428Y-123104819D01*
X101371428Y-123104819D02*
X101466666Y-123152438D01*
X101466666Y-123152438D02*
X101514285Y-123200057D01*
X101514285Y-123200057D02*
X101561904Y-123295295D01*
X101561904Y-123295295D02*
X101561904Y-123342914D01*
X101561904Y-123342914D02*
X101514285Y-123438152D01*
X101514285Y-123438152D02*
X101466666Y-123485771D01*
X101466666Y-123485771D02*
X101371428Y-123533390D01*
X101371428Y-123533390D02*
X101180952Y-123533390D01*
X101180952Y-123533390D02*
X101085714Y-123581009D01*
X101085714Y-123581009D02*
X101038095Y-123628628D01*
X101038095Y-123628628D02*
X100990476Y-123723866D01*
X100990476Y-123723866D02*
X100990476Y-123914342D01*
X100990476Y-123914342D02*
X101038095Y-124009580D01*
X101038095Y-124009580D02*
X101085714Y-124057200D01*
X101085714Y-124057200D02*
X101180952Y-124104819D01*
X101180952Y-124104819D02*
X101371428Y-124104819D01*
X101371428Y-124104819D02*
X101466666Y-124057200D01*
X101466666Y-124057200D02*
X101514285Y-124009580D01*
X101514285Y-124009580D02*
X101561904Y-123914342D01*
X101561904Y-123914342D02*
X101561904Y-123723866D01*
X101561904Y-123723866D02*
X101514285Y-123628628D01*
X101514285Y-123628628D02*
X101466666Y-123581009D01*
X101466666Y-123581009D02*
X101371428Y-123533390D01*
X91119642Y-125542319D02*
X90786309Y-125066128D01*
X90548214Y-125542319D02*
X90548214Y-124542319D01*
X90548214Y-124542319D02*
X90929166Y-124542319D01*
X90929166Y-124542319D02*
X91024404Y-124589938D01*
X91024404Y-124589938D02*
X91072023Y-124637557D01*
X91072023Y-124637557D02*
X91119642Y-124732795D01*
X91119642Y-124732795D02*
X91119642Y-124875652D01*
X91119642Y-124875652D02*
X91072023Y-124970890D01*
X91072023Y-124970890D02*
X91024404Y-125018509D01*
X91024404Y-125018509D02*
X90929166Y-125066128D01*
X90929166Y-125066128D02*
X90548214Y-125066128D01*
X92072023Y-125542319D02*
X91500595Y-125542319D01*
X91786309Y-125542319D02*
X91786309Y-124542319D01*
X91786309Y-124542319D02*
X91691071Y-124685176D01*
X91691071Y-124685176D02*
X91595833Y-124780414D01*
X91595833Y-124780414D02*
X91500595Y-124828033D01*
X92405357Y-124542319D02*
X93024404Y-124542319D01*
X93024404Y-124542319D02*
X92691071Y-124923271D01*
X92691071Y-124923271D02*
X92833928Y-124923271D01*
X92833928Y-124923271D02*
X92929166Y-124970890D01*
X92929166Y-124970890D02*
X92976785Y-125018509D01*
X92976785Y-125018509D02*
X93024404Y-125113747D01*
X93024404Y-125113747D02*
X93024404Y-125351842D01*
X93024404Y-125351842D02*
X92976785Y-125447080D01*
X92976785Y-125447080D02*
X92929166Y-125494700D01*
X92929166Y-125494700D02*
X92833928Y-125542319D01*
X92833928Y-125542319D02*
X92548214Y-125542319D01*
X92548214Y-125542319D02*
X92452976Y-125494700D01*
X92452976Y-125494700D02*
X92405357Y-125447080D01*
X101967319Y-96080357D02*
X101491128Y-96413690D01*
X101967319Y-96651785D02*
X100967319Y-96651785D01*
X100967319Y-96651785D02*
X100967319Y-96270833D01*
X100967319Y-96270833D02*
X101014938Y-96175595D01*
X101014938Y-96175595D02*
X101062557Y-96127976D01*
X101062557Y-96127976D02*
X101157795Y-96080357D01*
X101157795Y-96080357D02*
X101300652Y-96080357D01*
X101300652Y-96080357D02*
X101395890Y-96127976D01*
X101395890Y-96127976D02*
X101443509Y-96175595D01*
X101443509Y-96175595D02*
X101491128Y-96270833D01*
X101491128Y-96270833D02*
X101491128Y-96651785D01*
X101062557Y-95699404D02*
X101014938Y-95651785D01*
X101014938Y-95651785D02*
X100967319Y-95556547D01*
X100967319Y-95556547D02*
X100967319Y-95318452D01*
X100967319Y-95318452D02*
X101014938Y-95223214D01*
X101014938Y-95223214D02*
X101062557Y-95175595D01*
X101062557Y-95175595D02*
X101157795Y-95127976D01*
X101157795Y-95127976D02*
X101253033Y-95127976D01*
X101253033Y-95127976D02*
X101395890Y-95175595D01*
X101395890Y-95175595D02*
X101967319Y-95747023D01*
X101967319Y-95747023D02*
X101967319Y-95127976D01*
X101967319Y-94175595D02*
X101967319Y-94747023D01*
X101967319Y-94461309D02*
X100967319Y-94461309D01*
X100967319Y-94461309D02*
X101110176Y-94556547D01*
X101110176Y-94556547D02*
X101205414Y-94651785D01*
X101205414Y-94651785D02*
X101253033Y-94747023D01*
X115599803Y-113458110D02*
X115552184Y-113505730D01*
X115552184Y-113505730D02*
X115409327Y-113553349D01*
X115409327Y-113553349D02*
X115314089Y-113553349D01*
X115314089Y-113553349D02*
X115171232Y-113505730D01*
X115171232Y-113505730D02*
X115075994Y-113410491D01*
X115075994Y-113410491D02*
X115028375Y-113315253D01*
X115028375Y-113315253D02*
X114980756Y-113124777D01*
X114980756Y-113124777D02*
X114980756Y-112981920D01*
X114980756Y-112981920D02*
X115028375Y-112791444D01*
X115028375Y-112791444D02*
X115075994Y-112696206D01*
X115075994Y-112696206D02*
X115171232Y-112600968D01*
X115171232Y-112600968D02*
X115314089Y-112553349D01*
X115314089Y-112553349D02*
X115409327Y-112553349D01*
X115409327Y-112553349D02*
X115552184Y-112600968D01*
X115552184Y-112600968D02*
X115599803Y-112648587D01*
X116456946Y-112886682D02*
X116456946Y-113553349D01*
X116218851Y-112505730D02*
X115980756Y-113220015D01*
X115980756Y-113220015D02*
X116599803Y-113220015D01*
X86217319Y-108830357D02*
X85741128Y-109163690D01*
X86217319Y-109401785D02*
X85217319Y-109401785D01*
X85217319Y-109401785D02*
X85217319Y-109020833D01*
X85217319Y-109020833D02*
X85264938Y-108925595D01*
X85264938Y-108925595D02*
X85312557Y-108877976D01*
X85312557Y-108877976D02*
X85407795Y-108830357D01*
X85407795Y-108830357D02*
X85550652Y-108830357D01*
X85550652Y-108830357D02*
X85645890Y-108877976D01*
X85645890Y-108877976D02*
X85693509Y-108925595D01*
X85693509Y-108925595D02*
X85741128Y-109020833D01*
X85741128Y-109020833D02*
X85741128Y-109401785D01*
X86217319Y-107877976D02*
X86217319Y-108449404D01*
X86217319Y-108163690D02*
X85217319Y-108163690D01*
X85217319Y-108163690D02*
X85360176Y-108258928D01*
X85360176Y-108258928D02*
X85455414Y-108354166D01*
X85455414Y-108354166D02*
X85503033Y-108449404D01*
X85312557Y-107497023D02*
X85264938Y-107449404D01*
X85264938Y-107449404D02*
X85217319Y-107354166D01*
X85217319Y-107354166D02*
X85217319Y-107116071D01*
X85217319Y-107116071D02*
X85264938Y-107020833D01*
X85264938Y-107020833D02*
X85312557Y-106973214D01*
X85312557Y-106973214D02*
X85407795Y-106925595D01*
X85407795Y-106925595D02*
X85503033Y-106925595D01*
X85503033Y-106925595D02*
X85645890Y-106973214D01*
X85645890Y-106973214D02*
X86217319Y-107544642D01*
X86217319Y-107544642D02*
X86217319Y-106925595D01*
X75884208Y-95768194D02*
X75408018Y-95768194D01*
X75408018Y-95768194D02*
X75408018Y-94768194D01*
X76741351Y-95768194D02*
X76169923Y-95768194D01*
X76455637Y-95768194D02*
X76455637Y-94768194D01*
X76455637Y-94768194D02*
X76360399Y-94911051D01*
X76360399Y-94911051D02*
X76265161Y-95006289D01*
X76265161Y-95006289D02*
X76169923Y-95053908D01*
X93622080Y-111292857D02*
X93669700Y-111340476D01*
X93669700Y-111340476D02*
X93717319Y-111483333D01*
X93717319Y-111483333D02*
X93717319Y-111578571D01*
X93717319Y-111578571D02*
X93669700Y-111721428D01*
X93669700Y-111721428D02*
X93574461Y-111816666D01*
X93574461Y-111816666D02*
X93479223Y-111864285D01*
X93479223Y-111864285D02*
X93288747Y-111911904D01*
X93288747Y-111911904D02*
X93145890Y-111911904D01*
X93145890Y-111911904D02*
X92955414Y-111864285D01*
X92955414Y-111864285D02*
X92860176Y-111816666D01*
X92860176Y-111816666D02*
X92764938Y-111721428D01*
X92764938Y-111721428D02*
X92717319Y-111578571D01*
X92717319Y-111578571D02*
X92717319Y-111483333D01*
X92717319Y-111483333D02*
X92764938Y-111340476D01*
X92764938Y-111340476D02*
X92812557Y-111292857D01*
X93717319Y-110340476D02*
X93717319Y-110911904D01*
X93717319Y-110626190D02*
X92717319Y-110626190D01*
X92717319Y-110626190D02*
X92860176Y-110721428D01*
X92860176Y-110721428D02*
X92955414Y-110816666D01*
X92955414Y-110816666D02*
X93003033Y-110911904D01*
X92717319Y-110007142D02*
X92717319Y-109340476D01*
X92717319Y-109340476D02*
X93717319Y-109769047D01*
X85869642Y-115642319D02*
X85536309Y-115166128D01*
X85298214Y-115642319D02*
X85298214Y-114642319D01*
X85298214Y-114642319D02*
X85679166Y-114642319D01*
X85679166Y-114642319D02*
X85774404Y-114689938D01*
X85774404Y-114689938D02*
X85822023Y-114737557D01*
X85822023Y-114737557D02*
X85869642Y-114832795D01*
X85869642Y-114832795D02*
X85869642Y-114975652D01*
X85869642Y-114975652D02*
X85822023Y-115070890D01*
X85822023Y-115070890D02*
X85774404Y-115118509D01*
X85774404Y-115118509D02*
X85679166Y-115166128D01*
X85679166Y-115166128D02*
X85298214Y-115166128D01*
X86822023Y-115642319D02*
X86250595Y-115642319D01*
X86536309Y-115642319D02*
X86536309Y-114642319D01*
X86536309Y-114642319D02*
X86441071Y-114785176D01*
X86441071Y-114785176D02*
X86345833Y-114880414D01*
X86345833Y-114880414D02*
X86250595Y-114928033D01*
X87726785Y-114642319D02*
X87250595Y-114642319D01*
X87250595Y-114642319D02*
X87202976Y-115118509D01*
X87202976Y-115118509D02*
X87250595Y-115070890D01*
X87250595Y-115070890D02*
X87345833Y-115023271D01*
X87345833Y-115023271D02*
X87583928Y-115023271D01*
X87583928Y-115023271D02*
X87679166Y-115070890D01*
X87679166Y-115070890D02*
X87726785Y-115118509D01*
X87726785Y-115118509D02*
X87774404Y-115213747D01*
X87774404Y-115213747D02*
X87774404Y-115451842D01*
X87774404Y-115451842D02*
X87726785Y-115547080D01*
X87726785Y-115547080D02*
X87679166Y-115594700D01*
X87679166Y-115594700D02*
X87583928Y-115642319D01*
X87583928Y-115642319D02*
X87345833Y-115642319D01*
X87345833Y-115642319D02*
X87250595Y-115594700D01*
X87250595Y-115594700D02*
X87202976Y-115547080D01*
X115110517Y-87121444D02*
X114777184Y-86645253D01*
X114539089Y-87121444D02*
X114539089Y-86121444D01*
X114539089Y-86121444D02*
X114920041Y-86121444D01*
X114920041Y-86121444D02*
X115015279Y-86169063D01*
X115015279Y-86169063D02*
X115062898Y-86216682D01*
X115062898Y-86216682D02*
X115110517Y-86311920D01*
X115110517Y-86311920D02*
X115110517Y-86454777D01*
X115110517Y-86454777D02*
X115062898Y-86550015D01*
X115062898Y-86550015D02*
X115015279Y-86597634D01*
X115015279Y-86597634D02*
X114920041Y-86645253D01*
X114920041Y-86645253D02*
X114539089Y-86645253D01*
X115491470Y-86216682D02*
X115539089Y-86169063D01*
X115539089Y-86169063D02*
X115634327Y-86121444D01*
X115634327Y-86121444D02*
X115872422Y-86121444D01*
X115872422Y-86121444D02*
X115967660Y-86169063D01*
X115967660Y-86169063D02*
X116015279Y-86216682D01*
X116015279Y-86216682D02*
X116062898Y-86311920D01*
X116062898Y-86311920D02*
X116062898Y-86407158D01*
X116062898Y-86407158D02*
X116015279Y-86550015D01*
X116015279Y-86550015D02*
X115443851Y-87121444D01*
X115443851Y-87121444D02*
X116062898Y-87121444D01*
X116920041Y-86121444D02*
X116729565Y-86121444D01*
X116729565Y-86121444D02*
X116634327Y-86169063D01*
X116634327Y-86169063D02*
X116586708Y-86216682D01*
X116586708Y-86216682D02*
X116491470Y-86359539D01*
X116491470Y-86359539D02*
X116443851Y-86550015D01*
X116443851Y-86550015D02*
X116443851Y-86930967D01*
X116443851Y-86930967D02*
X116491470Y-87026205D01*
X116491470Y-87026205D02*
X116539089Y-87073825D01*
X116539089Y-87073825D02*
X116634327Y-87121444D01*
X116634327Y-87121444D02*
X116824803Y-87121444D01*
X116824803Y-87121444D02*
X116920041Y-87073825D01*
X116920041Y-87073825D02*
X116967660Y-87026205D01*
X116967660Y-87026205D02*
X117015279Y-86930967D01*
X117015279Y-86930967D02*
X117015279Y-86692872D01*
X117015279Y-86692872D02*
X116967660Y-86597634D01*
X116967660Y-86597634D02*
X116920041Y-86550015D01*
X116920041Y-86550015D02*
X116824803Y-86502396D01*
X116824803Y-86502396D02*
X116634327Y-86502396D01*
X116634327Y-86502396D02*
X116539089Y-86550015D01*
X116539089Y-86550015D02*
X116491470Y-86597634D01*
X116491470Y-86597634D02*
X116443851Y-86692872D01*
X77005694Y-99075279D02*
X77815217Y-99075279D01*
X77815217Y-99075279D02*
X77910455Y-99027660D01*
X77910455Y-99027660D02*
X77958075Y-98980041D01*
X77958075Y-98980041D02*
X78005694Y-98884803D01*
X78005694Y-98884803D02*
X78005694Y-98694327D01*
X78005694Y-98694327D02*
X77958075Y-98599089D01*
X77958075Y-98599089D02*
X77910455Y-98551470D01*
X77910455Y-98551470D02*
X77815217Y-98503851D01*
X77815217Y-98503851D02*
X77005694Y-98503851D01*
X77005694Y-97551470D02*
X77005694Y-98027660D01*
X77005694Y-98027660D02*
X77481884Y-98075279D01*
X77481884Y-98075279D02*
X77434265Y-98027660D01*
X77434265Y-98027660D02*
X77386646Y-97932422D01*
X77386646Y-97932422D02*
X77386646Y-97694327D01*
X77386646Y-97694327D02*
X77434265Y-97599089D01*
X77434265Y-97599089D02*
X77481884Y-97551470D01*
X77481884Y-97551470D02*
X77577122Y-97503851D01*
X77577122Y-97503851D02*
X77815217Y-97503851D01*
X77815217Y-97503851D02*
X77910455Y-97551470D01*
X77910455Y-97551470D02*
X77958075Y-97599089D01*
X77958075Y-97599089D02*
X78005694Y-97694327D01*
X78005694Y-97694327D02*
X78005694Y-97932422D01*
X78005694Y-97932422D02*
X77958075Y-98027660D01*
X77958075Y-98027660D02*
X77910455Y-98075279D01*
X108501050Y-111015196D02*
X108548670Y-111062815D01*
X108548670Y-111062815D02*
X108596289Y-111205672D01*
X108596289Y-111205672D02*
X108596289Y-111300910D01*
X108596289Y-111300910D02*
X108548670Y-111443767D01*
X108548670Y-111443767D02*
X108453431Y-111539005D01*
X108453431Y-111539005D02*
X108358193Y-111586624D01*
X108358193Y-111586624D02*
X108167717Y-111634243D01*
X108167717Y-111634243D02*
X108024860Y-111634243D01*
X108024860Y-111634243D02*
X107834384Y-111586624D01*
X107834384Y-111586624D02*
X107739146Y-111539005D01*
X107739146Y-111539005D02*
X107643908Y-111443767D01*
X107643908Y-111443767D02*
X107596289Y-111300910D01*
X107596289Y-111300910D02*
X107596289Y-111205672D01*
X107596289Y-111205672D02*
X107643908Y-111062815D01*
X107643908Y-111062815D02*
X107691527Y-111015196D01*
X107596289Y-110158053D02*
X107596289Y-110348529D01*
X107596289Y-110348529D02*
X107643908Y-110443767D01*
X107643908Y-110443767D02*
X107691527Y-110491386D01*
X107691527Y-110491386D02*
X107834384Y-110586624D01*
X107834384Y-110586624D02*
X108024860Y-110634243D01*
X108024860Y-110634243D02*
X108405812Y-110634243D01*
X108405812Y-110634243D02*
X108501050Y-110586624D01*
X108501050Y-110586624D02*
X108548670Y-110539005D01*
X108548670Y-110539005D02*
X108596289Y-110443767D01*
X108596289Y-110443767D02*
X108596289Y-110253291D01*
X108596289Y-110253291D02*
X108548670Y-110158053D01*
X108548670Y-110158053D02*
X108501050Y-110110434D01*
X108501050Y-110110434D02*
X108405812Y-110062815D01*
X108405812Y-110062815D02*
X108167717Y-110062815D01*
X108167717Y-110062815D02*
X108072479Y-110110434D01*
X108072479Y-110110434D02*
X108024860Y-110158053D01*
X108024860Y-110158053D02*
X107977241Y-110253291D01*
X107977241Y-110253291D02*
X107977241Y-110443767D01*
X107977241Y-110443767D02*
X108024860Y-110539005D01*
X108024860Y-110539005D02*
X108072479Y-110586624D01*
X108072479Y-110586624D02*
X108167717Y-110634243D01*
X117471289Y-92015196D02*
X117471289Y-92491386D01*
X117471289Y-92491386D02*
X116471289Y-92491386D01*
X116566527Y-91729481D02*
X116518908Y-91681862D01*
X116518908Y-91681862D02*
X116471289Y-91586624D01*
X116471289Y-91586624D02*
X116471289Y-91348529D01*
X116471289Y-91348529D02*
X116518908Y-91253291D01*
X116518908Y-91253291D02*
X116566527Y-91205672D01*
X116566527Y-91205672D02*
X116661765Y-91158053D01*
X116661765Y-91158053D02*
X116757003Y-91158053D01*
X116757003Y-91158053D02*
X116899860Y-91205672D01*
X116899860Y-91205672D02*
X117471289Y-91777100D01*
X117471289Y-91777100D02*
X117471289Y-91158053D01*
X97192319Y-106836904D02*
X98001842Y-106836904D01*
X98001842Y-106836904D02*
X98097080Y-106789285D01*
X98097080Y-106789285D02*
X98144700Y-106741666D01*
X98144700Y-106741666D02*
X98192319Y-106646428D01*
X98192319Y-106646428D02*
X98192319Y-106455952D01*
X98192319Y-106455952D02*
X98144700Y-106360714D01*
X98144700Y-106360714D02*
X98097080Y-106313095D01*
X98097080Y-106313095D02*
X98001842Y-106265476D01*
X98001842Y-106265476D02*
X97192319Y-106265476D01*
X97192319Y-105884523D02*
X97192319Y-105265476D01*
X97192319Y-105265476D02*
X97573271Y-105598809D01*
X97573271Y-105598809D02*
X97573271Y-105455952D01*
X97573271Y-105455952D02*
X97620890Y-105360714D01*
X97620890Y-105360714D02*
X97668509Y-105313095D01*
X97668509Y-105313095D02*
X97763747Y-105265476D01*
X97763747Y-105265476D02*
X98001842Y-105265476D01*
X98001842Y-105265476D02*
X98097080Y-105313095D01*
X98097080Y-105313095D02*
X98144700Y-105360714D01*
X98144700Y-105360714D02*
X98192319Y-105455952D01*
X98192319Y-105455952D02*
X98192319Y-105741666D01*
X98192319Y-105741666D02*
X98144700Y-105836904D01*
X98144700Y-105836904D02*
X98097080Y-105884523D01*
X108626050Y-104241387D02*
X108673670Y-104289006D01*
X108673670Y-104289006D02*
X108721289Y-104431863D01*
X108721289Y-104431863D02*
X108721289Y-104527101D01*
X108721289Y-104527101D02*
X108673670Y-104669958D01*
X108673670Y-104669958D02*
X108578431Y-104765196D01*
X108578431Y-104765196D02*
X108483193Y-104812815D01*
X108483193Y-104812815D02*
X108292717Y-104860434D01*
X108292717Y-104860434D02*
X108149860Y-104860434D01*
X108149860Y-104860434D02*
X107959384Y-104812815D01*
X107959384Y-104812815D02*
X107864146Y-104765196D01*
X107864146Y-104765196D02*
X107768908Y-104669958D01*
X107768908Y-104669958D02*
X107721289Y-104527101D01*
X107721289Y-104527101D02*
X107721289Y-104431863D01*
X107721289Y-104431863D02*
X107768908Y-104289006D01*
X107768908Y-104289006D02*
X107816527Y-104241387D01*
X108721289Y-103289006D02*
X108721289Y-103860434D01*
X108721289Y-103574720D02*
X107721289Y-103574720D01*
X107721289Y-103574720D02*
X107864146Y-103669958D01*
X107864146Y-103669958D02*
X107959384Y-103765196D01*
X107959384Y-103765196D02*
X108007003Y-103860434D01*
X107721289Y-102669958D02*
X107721289Y-102574720D01*
X107721289Y-102574720D02*
X107768908Y-102479482D01*
X107768908Y-102479482D02*
X107816527Y-102431863D01*
X107816527Y-102431863D02*
X107911765Y-102384244D01*
X107911765Y-102384244D02*
X108102241Y-102336625D01*
X108102241Y-102336625D02*
X108340336Y-102336625D01*
X108340336Y-102336625D02*
X108530812Y-102384244D01*
X108530812Y-102384244D02*
X108626050Y-102431863D01*
X108626050Y-102431863D02*
X108673670Y-102479482D01*
X108673670Y-102479482D02*
X108721289Y-102574720D01*
X108721289Y-102574720D02*
X108721289Y-102669958D01*
X108721289Y-102669958D02*
X108673670Y-102765196D01*
X108673670Y-102765196D02*
X108626050Y-102812815D01*
X108626050Y-102812815D02*
X108530812Y-102860434D01*
X108530812Y-102860434D02*
X108340336Y-102908053D01*
X108340336Y-102908053D02*
X108102241Y-102908053D01*
X108102241Y-102908053D02*
X107911765Y-102860434D01*
X107911765Y-102860434D02*
X107816527Y-102812815D01*
X107816527Y-102812815D02*
X107768908Y-102765196D01*
X107768908Y-102765196D02*
X107721289Y-102669958D01*
X83369642Y-123834580D02*
X83322023Y-123882200D01*
X83322023Y-123882200D02*
X83179166Y-123929819D01*
X83179166Y-123929819D02*
X83083928Y-123929819D01*
X83083928Y-123929819D02*
X82941071Y-123882200D01*
X82941071Y-123882200D02*
X82845833Y-123786961D01*
X82845833Y-123786961D02*
X82798214Y-123691723D01*
X82798214Y-123691723D02*
X82750595Y-123501247D01*
X82750595Y-123501247D02*
X82750595Y-123358390D01*
X82750595Y-123358390D02*
X82798214Y-123167914D01*
X82798214Y-123167914D02*
X82845833Y-123072676D01*
X82845833Y-123072676D02*
X82941071Y-122977438D01*
X82941071Y-122977438D02*
X83083928Y-122929819D01*
X83083928Y-122929819D02*
X83179166Y-122929819D01*
X83179166Y-122929819D02*
X83322023Y-122977438D01*
X83322023Y-122977438D02*
X83369642Y-123025057D01*
X84322023Y-123929819D02*
X83750595Y-123929819D01*
X84036309Y-123929819D02*
X84036309Y-122929819D01*
X84036309Y-122929819D02*
X83941071Y-123072676D01*
X83941071Y-123072676D02*
X83845833Y-123167914D01*
X83845833Y-123167914D02*
X83750595Y-123215533D01*
X85226785Y-122929819D02*
X84750595Y-122929819D01*
X84750595Y-122929819D02*
X84702976Y-123406009D01*
X84702976Y-123406009D02*
X84750595Y-123358390D01*
X84750595Y-123358390D02*
X84845833Y-123310771D01*
X84845833Y-123310771D02*
X85083928Y-123310771D01*
X85083928Y-123310771D02*
X85179166Y-123358390D01*
X85179166Y-123358390D02*
X85226785Y-123406009D01*
X85226785Y-123406009D02*
X85274404Y-123501247D01*
X85274404Y-123501247D02*
X85274404Y-123739342D01*
X85274404Y-123739342D02*
X85226785Y-123834580D01*
X85226785Y-123834580D02*
X85179166Y-123882200D01*
X85179166Y-123882200D02*
X85083928Y-123929819D01*
X85083928Y-123929819D02*
X84845833Y-123929819D01*
X84845833Y-123929819D02*
X84750595Y-123882200D01*
X84750595Y-123882200D02*
X84702976Y-123834580D01*
X96067319Y-96080357D02*
X95591128Y-96413690D01*
X96067319Y-96651785D02*
X95067319Y-96651785D01*
X95067319Y-96651785D02*
X95067319Y-96270833D01*
X95067319Y-96270833D02*
X95114938Y-96175595D01*
X95114938Y-96175595D02*
X95162557Y-96127976D01*
X95162557Y-96127976D02*
X95257795Y-96080357D01*
X95257795Y-96080357D02*
X95400652Y-96080357D01*
X95400652Y-96080357D02*
X95495890Y-96127976D01*
X95495890Y-96127976D02*
X95543509Y-96175595D01*
X95543509Y-96175595D02*
X95591128Y-96270833D01*
X95591128Y-96270833D02*
X95591128Y-96651785D01*
X95162557Y-95699404D02*
X95114938Y-95651785D01*
X95114938Y-95651785D02*
X95067319Y-95556547D01*
X95067319Y-95556547D02*
X95067319Y-95318452D01*
X95067319Y-95318452D02*
X95114938Y-95223214D01*
X95114938Y-95223214D02*
X95162557Y-95175595D01*
X95162557Y-95175595D02*
X95257795Y-95127976D01*
X95257795Y-95127976D02*
X95353033Y-95127976D01*
X95353033Y-95127976D02*
X95495890Y-95175595D01*
X95495890Y-95175595D02*
X96067319Y-95747023D01*
X96067319Y-95747023D02*
X96067319Y-95127976D01*
X95162557Y-94747023D02*
X95114938Y-94699404D01*
X95114938Y-94699404D02*
X95067319Y-94604166D01*
X95067319Y-94604166D02*
X95067319Y-94366071D01*
X95067319Y-94366071D02*
X95114938Y-94270833D01*
X95114938Y-94270833D02*
X95162557Y-94223214D01*
X95162557Y-94223214D02*
X95257795Y-94175595D01*
X95257795Y-94175595D02*
X95353033Y-94175595D01*
X95353033Y-94175595D02*
X95495890Y-94223214D01*
X95495890Y-94223214D02*
X96067319Y-94794642D01*
X96067319Y-94794642D02*
X96067319Y-94175595D01*
X77767780Y-104018194D02*
X77767780Y-103018194D01*
X77767780Y-103018194D02*
X78005875Y-103018194D01*
X78005875Y-103018194D02*
X78148732Y-103065813D01*
X78148732Y-103065813D02*
X78243970Y-103161051D01*
X78243970Y-103161051D02*
X78291589Y-103256289D01*
X78291589Y-103256289D02*
X78339208Y-103446765D01*
X78339208Y-103446765D02*
X78339208Y-103589622D01*
X78339208Y-103589622D02*
X78291589Y-103780098D01*
X78291589Y-103780098D02*
X78243970Y-103875336D01*
X78243970Y-103875336D02*
X78148732Y-103970575D01*
X78148732Y-103970575D02*
X78005875Y-104018194D01*
X78005875Y-104018194D02*
X77767780Y-104018194D01*
X79291589Y-104018194D02*
X78720161Y-104018194D01*
X79005875Y-104018194D02*
X79005875Y-103018194D01*
X79005875Y-103018194D02*
X78910637Y-103161051D01*
X78910637Y-103161051D02*
X78815399Y-103256289D01*
X78815399Y-103256289D02*
X78720161Y-103303908D01*
X83567080Y-108080357D02*
X83614700Y-108127976D01*
X83614700Y-108127976D02*
X83662319Y-108270833D01*
X83662319Y-108270833D02*
X83662319Y-108366071D01*
X83662319Y-108366071D02*
X83614700Y-108508928D01*
X83614700Y-108508928D02*
X83519461Y-108604166D01*
X83519461Y-108604166D02*
X83424223Y-108651785D01*
X83424223Y-108651785D02*
X83233747Y-108699404D01*
X83233747Y-108699404D02*
X83090890Y-108699404D01*
X83090890Y-108699404D02*
X82900414Y-108651785D01*
X82900414Y-108651785D02*
X82805176Y-108604166D01*
X82805176Y-108604166D02*
X82709938Y-108508928D01*
X82709938Y-108508928D02*
X82662319Y-108366071D01*
X82662319Y-108366071D02*
X82662319Y-108270833D01*
X82662319Y-108270833D02*
X82709938Y-108127976D01*
X82709938Y-108127976D02*
X82757557Y-108080357D01*
X83662319Y-107127976D02*
X83662319Y-107699404D01*
X83662319Y-107413690D02*
X82662319Y-107413690D01*
X82662319Y-107413690D02*
X82805176Y-107508928D01*
X82805176Y-107508928D02*
X82900414Y-107604166D01*
X82900414Y-107604166D02*
X82948033Y-107699404D01*
X82995652Y-106270833D02*
X83662319Y-106270833D01*
X82614700Y-106508928D02*
X83328985Y-106747023D01*
X83328985Y-106747023D02*
X83328985Y-106127976D01*
X94360517Y-87121444D02*
X94027184Y-86645253D01*
X93789089Y-87121444D02*
X93789089Y-86121444D01*
X93789089Y-86121444D02*
X94170041Y-86121444D01*
X94170041Y-86121444D02*
X94265279Y-86169063D01*
X94265279Y-86169063D02*
X94312898Y-86216682D01*
X94312898Y-86216682D02*
X94360517Y-86311920D01*
X94360517Y-86311920D02*
X94360517Y-86454777D01*
X94360517Y-86454777D02*
X94312898Y-86550015D01*
X94312898Y-86550015D02*
X94265279Y-86597634D01*
X94265279Y-86597634D02*
X94170041Y-86645253D01*
X94170041Y-86645253D02*
X93789089Y-86645253D01*
X94741470Y-86216682D02*
X94789089Y-86169063D01*
X94789089Y-86169063D02*
X94884327Y-86121444D01*
X94884327Y-86121444D02*
X95122422Y-86121444D01*
X95122422Y-86121444D02*
X95217660Y-86169063D01*
X95217660Y-86169063D02*
X95265279Y-86216682D01*
X95265279Y-86216682D02*
X95312898Y-86311920D01*
X95312898Y-86311920D02*
X95312898Y-86407158D01*
X95312898Y-86407158D02*
X95265279Y-86550015D01*
X95265279Y-86550015D02*
X94693851Y-87121444D01*
X94693851Y-87121444D02*
X95312898Y-87121444D01*
X96170041Y-86454777D02*
X96170041Y-87121444D01*
X95931946Y-86073825D02*
X95693851Y-86788110D01*
X95693851Y-86788110D02*
X96312898Y-86788110D01*
X117471289Y-103265196D02*
X116995098Y-103598529D01*
X117471289Y-103836624D02*
X116471289Y-103836624D01*
X116471289Y-103836624D02*
X116471289Y-103455672D01*
X116471289Y-103455672D02*
X116518908Y-103360434D01*
X116518908Y-103360434D02*
X116566527Y-103312815D01*
X116566527Y-103312815D02*
X116661765Y-103265196D01*
X116661765Y-103265196D02*
X116804622Y-103265196D01*
X116804622Y-103265196D02*
X116899860Y-103312815D01*
X116899860Y-103312815D02*
X116947479Y-103360434D01*
X116947479Y-103360434D02*
X116995098Y-103455672D01*
X116995098Y-103455672D02*
X116995098Y-103836624D01*
X116471289Y-102360434D02*
X116471289Y-102836624D01*
X116471289Y-102836624D02*
X116947479Y-102884243D01*
X116947479Y-102884243D02*
X116899860Y-102836624D01*
X116899860Y-102836624D02*
X116852241Y-102741386D01*
X116852241Y-102741386D02*
X116852241Y-102503291D01*
X116852241Y-102503291D02*
X116899860Y-102408053D01*
X116899860Y-102408053D02*
X116947479Y-102360434D01*
X116947479Y-102360434D02*
X117042717Y-102312815D01*
X117042717Y-102312815D02*
X117280812Y-102312815D01*
X117280812Y-102312815D02*
X117376050Y-102360434D01*
X117376050Y-102360434D02*
X117423670Y-102408053D01*
X117423670Y-102408053D02*
X117471289Y-102503291D01*
X117471289Y-102503291D02*
X117471289Y-102741386D01*
X117471289Y-102741386D02*
X117423670Y-102836624D01*
X117423670Y-102836624D02*
X117376050Y-102884243D01*
X79181009Y-89233333D02*
X79181009Y-89566666D01*
X79704819Y-89566666D02*
X78704819Y-89566666D01*
X78704819Y-89566666D02*
X78704819Y-89090476D01*
X79704819Y-88185714D02*
X79704819Y-88757142D01*
X79704819Y-88471428D02*
X78704819Y-88471428D01*
X78704819Y-88471428D02*
X78847676Y-88566666D01*
X78847676Y-88566666D02*
X78942914Y-88661904D01*
X78942914Y-88661904D02*
X78990533Y-88757142D01*
X104099803Y-96458110D02*
X104052184Y-96505730D01*
X104052184Y-96505730D02*
X103909327Y-96553349D01*
X103909327Y-96553349D02*
X103814089Y-96553349D01*
X103814089Y-96553349D02*
X103671232Y-96505730D01*
X103671232Y-96505730D02*
X103575994Y-96410491D01*
X103575994Y-96410491D02*
X103528375Y-96315253D01*
X103528375Y-96315253D02*
X103480756Y-96124777D01*
X103480756Y-96124777D02*
X103480756Y-95981920D01*
X103480756Y-95981920D02*
X103528375Y-95791444D01*
X103528375Y-95791444D02*
X103575994Y-95696206D01*
X103575994Y-95696206D02*
X103671232Y-95600968D01*
X103671232Y-95600968D02*
X103814089Y-95553349D01*
X103814089Y-95553349D02*
X103909327Y-95553349D01*
X103909327Y-95553349D02*
X104052184Y-95600968D01*
X104052184Y-95600968D02*
X104099803Y-95648587D01*
X104575994Y-96553349D02*
X104766470Y-96553349D01*
X104766470Y-96553349D02*
X104861708Y-96505730D01*
X104861708Y-96505730D02*
X104909327Y-96458110D01*
X104909327Y-96458110D02*
X105004565Y-96315253D01*
X105004565Y-96315253D02*
X105052184Y-96124777D01*
X105052184Y-96124777D02*
X105052184Y-95743825D01*
X105052184Y-95743825D02*
X105004565Y-95648587D01*
X105004565Y-95648587D02*
X104956946Y-95600968D01*
X104956946Y-95600968D02*
X104861708Y-95553349D01*
X104861708Y-95553349D02*
X104671232Y-95553349D01*
X104671232Y-95553349D02*
X104575994Y-95600968D01*
X104575994Y-95600968D02*
X104528375Y-95648587D01*
X104528375Y-95648587D02*
X104480756Y-95743825D01*
X104480756Y-95743825D02*
X104480756Y-95981920D01*
X104480756Y-95981920D02*
X104528375Y-96077158D01*
X104528375Y-96077158D02*
X104575994Y-96124777D01*
X104575994Y-96124777D02*
X104671232Y-96172396D01*
X104671232Y-96172396D02*
X104861708Y-96172396D01*
X104861708Y-96172396D02*
X104956946Y-96124777D01*
X104956946Y-96124777D02*
X105004565Y-96077158D01*
X105004565Y-96077158D02*
X105052184Y-95981920D01*
X115110517Y-84871444D02*
X114777184Y-84395253D01*
X114539089Y-84871444D02*
X114539089Y-83871444D01*
X114539089Y-83871444D02*
X114920041Y-83871444D01*
X114920041Y-83871444D02*
X115015279Y-83919063D01*
X115015279Y-83919063D02*
X115062898Y-83966682D01*
X115062898Y-83966682D02*
X115110517Y-84061920D01*
X115110517Y-84061920D02*
X115110517Y-84204777D01*
X115110517Y-84204777D02*
X115062898Y-84300015D01*
X115062898Y-84300015D02*
X115015279Y-84347634D01*
X115015279Y-84347634D02*
X114920041Y-84395253D01*
X114920041Y-84395253D02*
X114539089Y-84395253D01*
X115491470Y-83966682D02*
X115539089Y-83919063D01*
X115539089Y-83919063D02*
X115634327Y-83871444D01*
X115634327Y-83871444D02*
X115872422Y-83871444D01*
X115872422Y-83871444D02*
X115967660Y-83919063D01*
X115967660Y-83919063D02*
X116015279Y-83966682D01*
X116015279Y-83966682D02*
X116062898Y-84061920D01*
X116062898Y-84061920D02*
X116062898Y-84157158D01*
X116062898Y-84157158D02*
X116015279Y-84300015D01*
X116015279Y-84300015D02*
X115443851Y-84871444D01*
X115443851Y-84871444D02*
X116062898Y-84871444D01*
X116396232Y-83871444D02*
X117062898Y-83871444D01*
X117062898Y-83871444D02*
X116634327Y-84871444D01*
X74799819Y-76636904D02*
X75609342Y-76636904D01*
X75609342Y-76636904D02*
X75704580Y-76589285D01*
X75704580Y-76589285D02*
X75752200Y-76541666D01*
X75752200Y-76541666D02*
X75799819Y-76446428D01*
X75799819Y-76446428D02*
X75799819Y-76255952D01*
X75799819Y-76255952D02*
X75752200Y-76160714D01*
X75752200Y-76160714D02*
X75704580Y-76113095D01*
X75704580Y-76113095D02*
X75609342Y-76065476D01*
X75609342Y-76065476D02*
X74799819Y-76065476D01*
X74799819Y-75160714D02*
X74799819Y-75351190D01*
X74799819Y-75351190D02*
X74847438Y-75446428D01*
X74847438Y-75446428D02*
X74895057Y-75494047D01*
X74895057Y-75494047D02*
X75037914Y-75589285D01*
X75037914Y-75589285D02*
X75228390Y-75636904D01*
X75228390Y-75636904D02*
X75609342Y-75636904D01*
X75609342Y-75636904D02*
X75704580Y-75589285D01*
X75704580Y-75589285D02*
X75752200Y-75541666D01*
X75752200Y-75541666D02*
X75799819Y-75446428D01*
X75799819Y-75446428D02*
X75799819Y-75255952D01*
X75799819Y-75255952D02*
X75752200Y-75160714D01*
X75752200Y-75160714D02*
X75704580Y-75113095D01*
X75704580Y-75113095D02*
X75609342Y-75065476D01*
X75609342Y-75065476D02*
X75371247Y-75065476D01*
X75371247Y-75065476D02*
X75276009Y-75113095D01*
X75276009Y-75113095D02*
X75228390Y-75160714D01*
X75228390Y-75160714D02*
X75180771Y-75255952D01*
X75180771Y-75255952D02*
X75180771Y-75446428D01*
X75180771Y-75446428D02*
X75228390Y-75541666D01*
X75228390Y-75541666D02*
X75276009Y-75589285D01*
X75276009Y-75589285D02*
X75371247Y-75636904D01*
X95657142Y-124104819D02*
X95323809Y-123628628D01*
X95085714Y-124104819D02*
X95085714Y-123104819D01*
X95085714Y-123104819D02*
X95466666Y-123104819D01*
X95466666Y-123104819D02*
X95561904Y-123152438D01*
X95561904Y-123152438D02*
X95609523Y-123200057D01*
X95609523Y-123200057D02*
X95657142Y-123295295D01*
X95657142Y-123295295D02*
X95657142Y-123438152D01*
X95657142Y-123438152D02*
X95609523Y-123533390D01*
X95609523Y-123533390D02*
X95561904Y-123581009D01*
X95561904Y-123581009D02*
X95466666Y-123628628D01*
X95466666Y-123628628D02*
X95085714Y-123628628D01*
X96609523Y-124104819D02*
X96038095Y-124104819D01*
X96323809Y-124104819D02*
X96323809Y-123104819D01*
X96323809Y-123104819D02*
X96228571Y-123247676D01*
X96228571Y-123247676D02*
X96133333Y-123342914D01*
X96133333Y-123342914D02*
X96038095Y-123390533D01*
X97466666Y-123104819D02*
X97276190Y-123104819D01*
X97276190Y-123104819D02*
X97180952Y-123152438D01*
X97180952Y-123152438D02*
X97133333Y-123200057D01*
X97133333Y-123200057D02*
X97038095Y-123342914D01*
X97038095Y-123342914D02*
X96990476Y-123533390D01*
X96990476Y-123533390D02*
X96990476Y-123914342D01*
X96990476Y-123914342D02*
X97038095Y-124009580D01*
X97038095Y-124009580D02*
X97085714Y-124057200D01*
X97085714Y-124057200D02*
X97180952Y-124104819D01*
X97180952Y-124104819D02*
X97371428Y-124104819D01*
X97371428Y-124104819D02*
X97466666Y-124057200D01*
X97466666Y-124057200D02*
X97514285Y-124009580D01*
X97514285Y-124009580D02*
X97561904Y-123914342D01*
X97561904Y-123914342D02*
X97561904Y-123676247D01*
X97561904Y-123676247D02*
X97514285Y-123581009D01*
X97514285Y-123581009D02*
X97466666Y-123533390D01*
X97466666Y-123533390D02*
X97371428Y-123485771D01*
X97371428Y-123485771D02*
X97180952Y-123485771D01*
X97180952Y-123485771D02*
X97085714Y-123533390D01*
X97085714Y-123533390D02*
X97038095Y-123581009D01*
X97038095Y-123581009D02*
X96990476Y-123676247D01*
X89369642Y-111297080D02*
X89322023Y-111344700D01*
X89322023Y-111344700D02*
X89179166Y-111392319D01*
X89179166Y-111392319D02*
X89083928Y-111392319D01*
X89083928Y-111392319D02*
X88941071Y-111344700D01*
X88941071Y-111344700D02*
X88845833Y-111249461D01*
X88845833Y-111249461D02*
X88798214Y-111154223D01*
X88798214Y-111154223D02*
X88750595Y-110963747D01*
X88750595Y-110963747D02*
X88750595Y-110820890D01*
X88750595Y-110820890D02*
X88798214Y-110630414D01*
X88798214Y-110630414D02*
X88845833Y-110535176D01*
X88845833Y-110535176D02*
X88941071Y-110439938D01*
X88941071Y-110439938D02*
X89083928Y-110392319D01*
X89083928Y-110392319D02*
X89179166Y-110392319D01*
X89179166Y-110392319D02*
X89322023Y-110439938D01*
X89322023Y-110439938D02*
X89369642Y-110487557D01*
X90322023Y-111392319D02*
X89750595Y-111392319D01*
X90036309Y-111392319D02*
X90036309Y-110392319D01*
X90036309Y-110392319D02*
X89941071Y-110535176D01*
X89941071Y-110535176D02*
X89845833Y-110630414D01*
X89845833Y-110630414D02*
X89750595Y-110678033D01*
X91179166Y-110392319D02*
X90988690Y-110392319D01*
X90988690Y-110392319D02*
X90893452Y-110439938D01*
X90893452Y-110439938D02*
X90845833Y-110487557D01*
X90845833Y-110487557D02*
X90750595Y-110630414D01*
X90750595Y-110630414D02*
X90702976Y-110820890D01*
X90702976Y-110820890D02*
X90702976Y-111201842D01*
X90702976Y-111201842D02*
X90750595Y-111297080D01*
X90750595Y-111297080D02*
X90798214Y-111344700D01*
X90798214Y-111344700D02*
X90893452Y-111392319D01*
X90893452Y-111392319D02*
X91083928Y-111392319D01*
X91083928Y-111392319D02*
X91179166Y-111344700D01*
X91179166Y-111344700D02*
X91226785Y-111297080D01*
X91226785Y-111297080D02*
X91274404Y-111201842D01*
X91274404Y-111201842D02*
X91274404Y-110963747D01*
X91274404Y-110963747D02*
X91226785Y-110868509D01*
X91226785Y-110868509D02*
X91179166Y-110820890D01*
X91179166Y-110820890D02*
X91083928Y-110773271D01*
X91083928Y-110773271D02*
X90893452Y-110773271D01*
X90893452Y-110773271D02*
X90798214Y-110820890D01*
X90798214Y-110820890D02*
X90750595Y-110868509D01*
X90750595Y-110868509D02*
X90702976Y-110963747D01*
X91157142Y-98547080D02*
X91109523Y-98594700D01*
X91109523Y-98594700D02*
X90966666Y-98642319D01*
X90966666Y-98642319D02*
X90871428Y-98642319D01*
X90871428Y-98642319D02*
X90728571Y-98594700D01*
X90728571Y-98594700D02*
X90633333Y-98499461D01*
X90633333Y-98499461D02*
X90585714Y-98404223D01*
X90585714Y-98404223D02*
X90538095Y-98213747D01*
X90538095Y-98213747D02*
X90538095Y-98070890D01*
X90538095Y-98070890D02*
X90585714Y-97880414D01*
X90585714Y-97880414D02*
X90633333Y-97785176D01*
X90633333Y-97785176D02*
X90728571Y-97689938D01*
X90728571Y-97689938D02*
X90871428Y-97642319D01*
X90871428Y-97642319D02*
X90966666Y-97642319D01*
X90966666Y-97642319D02*
X91109523Y-97689938D01*
X91109523Y-97689938D02*
X91157142Y-97737557D01*
X91538095Y-97737557D02*
X91585714Y-97689938D01*
X91585714Y-97689938D02*
X91680952Y-97642319D01*
X91680952Y-97642319D02*
X91919047Y-97642319D01*
X91919047Y-97642319D02*
X92014285Y-97689938D01*
X92014285Y-97689938D02*
X92061904Y-97737557D01*
X92061904Y-97737557D02*
X92109523Y-97832795D01*
X92109523Y-97832795D02*
X92109523Y-97928033D01*
X92109523Y-97928033D02*
X92061904Y-98070890D01*
X92061904Y-98070890D02*
X91490476Y-98642319D01*
X91490476Y-98642319D02*
X92109523Y-98642319D01*
X92490476Y-97737557D02*
X92538095Y-97689938D01*
X92538095Y-97689938D02*
X92633333Y-97642319D01*
X92633333Y-97642319D02*
X92871428Y-97642319D01*
X92871428Y-97642319D02*
X92966666Y-97689938D01*
X92966666Y-97689938D02*
X93014285Y-97737557D01*
X93014285Y-97737557D02*
X93061904Y-97832795D01*
X93061904Y-97832795D02*
X93061904Y-97928033D01*
X93061904Y-97928033D02*
X93014285Y-98070890D01*
X93014285Y-98070890D02*
X92442857Y-98642319D01*
X92442857Y-98642319D02*
X93061904Y-98642319D01*
X90527319Y-86765594D02*
X89527319Y-86765594D01*
X89527319Y-86765594D02*
X89527319Y-86527499D01*
X89527319Y-86527499D02*
X89574938Y-86384642D01*
X89574938Y-86384642D02*
X89670176Y-86289404D01*
X89670176Y-86289404D02*
X89765414Y-86241785D01*
X89765414Y-86241785D02*
X89955890Y-86194166D01*
X89955890Y-86194166D02*
X90098747Y-86194166D01*
X90098747Y-86194166D02*
X90289223Y-86241785D01*
X90289223Y-86241785D02*
X90384461Y-86289404D01*
X90384461Y-86289404D02*
X90479700Y-86384642D01*
X90479700Y-86384642D02*
X90527319Y-86527499D01*
X90527319Y-86527499D02*
X90527319Y-86765594D01*
X89527319Y-85860832D02*
X89527319Y-85241785D01*
X89527319Y-85241785D02*
X89908271Y-85575118D01*
X89908271Y-85575118D02*
X89908271Y-85432261D01*
X89908271Y-85432261D02*
X89955890Y-85337023D01*
X89955890Y-85337023D02*
X90003509Y-85289404D01*
X90003509Y-85289404D02*
X90098747Y-85241785D01*
X90098747Y-85241785D02*
X90336842Y-85241785D01*
X90336842Y-85241785D02*
X90432080Y-85289404D01*
X90432080Y-85289404D02*
X90479700Y-85337023D01*
X90479700Y-85337023D02*
X90527319Y-85432261D01*
X90527319Y-85432261D02*
X90527319Y-85717975D01*
X90527319Y-85717975D02*
X90479700Y-85813213D01*
X90479700Y-85813213D02*
X90432080Y-85860832D01*
X85282080Y-79440357D02*
X85329700Y-79487976D01*
X85329700Y-79487976D02*
X85377319Y-79630833D01*
X85377319Y-79630833D02*
X85377319Y-79726071D01*
X85377319Y-79726071D02*
X85329700Y-79868928D01*
X85329700Y-79868928D02*
X85234461Y-79964166D01*
X85234461Y-79964166D02*
X85139223Y-80011785D01*
X85139223Y-80011785D02*
X84948747Y-80059404D01*
X84948747Y-80059404D02*
X84805890Y-80059404D01*
X84805890Y-80059404D02*
X84615414Y-80011785D01*
X84615414Y-80011785D02*
X84520176Y-79964166D01*
X84520176Y-79964166D02*
X84424938Y-79868928D01*
X84424938Y-79868928D02*
X84377319Y-79726071D01*
X84377319Y-79726071D02*
X84377319Y-79630833D01*
X84377319Y-79630833D02*
X84424938Y-79487976D01*
X84424938Y-79487976D02*
X84472557Y-79440357D01*
X85377319Y-78487976D02*
X85377319Y-79059404D01*
X85377319Y-78773690D02*
X84377319Y-78773690D01*
X84377319Y-78773690D02*
X84520176Y-78868928D01*
X84520176Y-78868928D02*
X84615414Y-78964166D01*
X84615414Y-78964166D02*
X84663033Y-79059404D01*
X84472557Y-78107023D02*
X84424938Y-78059404D01*
X84424938Y-78059404D02*
X84377319Y-77964166D01*
X84377319Y-77964166D02*
X84377319Y-77726071D01*
X84377319Y-77726071D02*
X84424938Y-77630833D01*
X84424938Y-77630833D02*
X84472557Y-77583214D01*
X84472557Y-77583214D02*
X84567795Y-77535595D01*
X84567795Y-77535595D02*
X84663033Y-77535595D01*
X84663033Y-77535595D02*
X84805890Y-77583214D01*
X84805890Y-77583214D02*
X85377319Y-78154642D01*
X85377319Y-78154642D02*
X85377319Y-77535595D01*
X87634208Y-100768194D02*
X87300875Y-100292003D01*
X87062780Y-100768194D02*
X87062780Y-99768194D01*
X87062780Y-99768194D02*
X87443732Y-99768194D01*
X87443732Y-99768194D02*
X87538970Y-99815813D01*
X87538970Y-99815813D02*
X87586589Y-99863432D01*
X87586589Y-99863432D02*
X87634208Y-99958670D01*
X87634208Y-99958670D02*
X87634208Y-100101527D01*
X87634208Y-100101527D02*
X87586589Y-100196765D01*
X87586589Y-100196765D02*
X87538970Y-100244384D01*
X87538970Y-100244384D02*
X87443732Y-100292003D01*
X87443732Y-100292003D02*
X87062780Y-100292003D01*
X88586589Y-100768194D02*
X88015161Y-100768194D01*
X88300875Y-100768194D02*
X88300875Y-99768194D01*
X88300875Y-99768194D02*
X88205637Y-99911051D01*
X88205637Y-99911051D02*
X88110399Y-100006289D01*
X88110399Y-100006289D02*
X88015161Y-100053908D01*
X102717319Y-122580357D02*
X102241128Y-122913690D01*
X102717319Y-123151785D02*
X101717319Y-123151785D01*
X101717319Y-123151785D02*
X101717319Y-122770833D01*
X101717319Y-122770833D02*
X101764938Y-122675595D01*
X101764938Y-122675595D02*
X101812557Y-122627976D01*
X101812557Y-122627976D02*
X101907795Y-122580357D01*
X101907795Y-122580357D02*
X102050652Y-122580357D01*
X102050652Y-122580357D02*
X102145890Y-122627976D01*
X102145890Y-122627976D02*
X102193509Y-122675595D01*
X102193509Y-122675595D02*
X102241128Y-122770833D01*
X102241128Y-122770833D02*
X102241128Y-123151785D01*
X102717319Y-121627976D02*
X102717319Y-122199404D01*
X102717319Y-121913690D02*
X101717319Y-121913690D01*
X101717319Y-121913690D02*
X101860176Y-122008928D01*
X101860176Y-122008928D02*
X101955414Y-122104166D01*
X101955414Y-122104166D02*
X102003033Y-122199404D01*
X101717319Y-121294642D02*
X101717319Y-120627976D01*
X101717319Y-120627976D02*
X102717319Y-121056547D01*
X87634208Y-98422955D02*
X87586589Y-98470575D01*
X87586589Y-98470575D02*
X87443732Y-98518194D01*
X87443732Y-98518194D02*
X87348494Y-98518194D01*
X87348494Y-98518194D02*
X87205637Y-98470575D01*
X87205637Y-98470575D02*
X87110399Y-98375336D01*
X87110399Y-98375336D02*
X87062780Y-98280098D01*
X87062780Y-98280098D02*
X87015161Y-98089622D01*
X87015161Y-98089622D02*
X87015161Y-97946765D01*
X87015161Y-97946765D02*
X87062780Y-97756289D01*
X87062780Y-97756289D02*
X87110399Y-97661051D01*
X87110399Y-97661051D02*
X87205637Y-97565813D01*
X87205637Y-97565813D02*
X87348494Y-97518194D01*
X87348494Y-97518194D02*
X87443732Y-97518194D01*
X87443732Y-97518194D02*
X87586589Y-97565813D01*
X87586589Y-97565813D02*
X87634208Y-97613432D01*
X88015161Y-97613432D02*
X88062780Y-97565813D01*
X88062780Y-97565813D02*
X88158018Y-97518194D01*
X88158018Y-97518194D02*
X88396113Y-97518194D01*
X88396113Y-97518194D02*
X88491351Y-97565813D01*
X88491351Y-97565813D02*
X88538970Y-97613432D01*
X88538970Y-97613432D02*
X88586589Y-97708670D01*
X88586589Y-97708670D02*
X88586589Y-97803908D01*
X88586589Y-97803908D02*
X88538970Y-97946765D01*
X88538970Y-97946765D02*
X87967542Y-98518194D01*
X87967542Y-98518194D02*
X88586589Y-98518194D01*
X100217319Y-115830357D02*
X99741128Y-116163690D01*
X100217319Y-116401785D02*
X99217319Y-116401785D01*
X99217319Y-116401785D02*
X99217319Y-116020833D01*
X99217319Y-116020833D02*
X99264938Y-115925595D01*
X99264938Y-115925595D02*
X99312557Y-115877976D01*
X99312557Y-115877976D02*
X99407795Y-115830357D01*
X99407795Y-115830357D02*
X99550652Y-115830357D01*
X99550652Y-115830357D02*
X99645890Y-115877976D01*
X99645890Y-115877976D02*
X99693509Y-115925595D01*
X99693509Y-115925595D02*
X99741128Y-116020833D01*
X99741128Y-116020833D02*
X99741128Y-116401785D01*
X100217319Y-114877976D02*
X100217319Y-115449404D01*
X100217319Y-115163690D02*
X99217319Y-115163690D01*
X99217319Y-115163690D02*
X99360176Y-115258928D01*
X99360176Y-115258928D02*
X99455414Y-115354166D01*
X99455414Y-115354166D02*
X99503033Y-115449404D01*
X100217319Y-114401785D02*
X100217319Y-114211309D01*
X100217319Y-114211309D02*
X100169700Y-114116071D01*
X100169700Y-114116071D02*
X100122080Y-114068452D01*
X100122080Y-114068452D02*
X99979223Y-113973214D01*
X99979223Y-113973214D02*
X99788747Y-113925595D01*
X99788747Y-113925595D02*
X99407795Y-113925595D01*
X99407795Y-113925595D02*
X99312557Y-113973214D01*
X99312557Y-113973214D02*
X99264938Y-114020833D01*
X99264938Y-114020833D02*
X99217319Y-114116071D01*
X99217319Y-114116071D02*
X99217319Y-114306547D01*
X99217319Y-114306547D02*
X99264938Y-114401785D01*
X99264938Y-114401785D02*
X99312557Y-114449404D01*
X99312557Y-114449404D02*
X99407795Y-114497023D01*
X99407795Y-114497023D02*
X99645890Y-114497023D01*
X99645890Y-114497023D02*
X99741128Y-114449404D01*
X99741128Y-114449404D02*
X99788747Y-114401785D01*
X99788747Y-114401785D02*
X99836366Y-114306547D01*
X99836366Y-114306547D02*
X99836366Y-114116071D01*
X99836366Y-114116071D02*
X99788747Y-114020833D01*
X99788747Y-114020833D02*
X99741128Y-113973214D01*
X99741128Y-113973214D02*
X99645890Y-113925595D01*
D11*
%TO.C,R23*%
X98276311Y-83681625D02*
X98730439Y-83681625D01*
X98276311Y-85151625D02*
X98730439Y-85151625D01*
%TO.C,LD1*%
X112436470Y-95353530D02*
X112436470Y-92753530D01*
X115096470Y-92753530D02*
X112436470Y-92753530D01*
X115096470Y-95353530D02*
X112436470Y-95353530D01*
X115096470Y-95353530D02*
X115096470Y-92753530D01*
X115096470Y-96623530D02*
X115096470Y-97953530D01*
X115096470Y-97953530D02*
X113766470Y-97953530D01*
%TO.C,R8*%
X113993534Y-90113530D02*
X113539406Y-90113530D01*
X113993534Y-91583530D02*
X113539406Y-91583530D01*
%TO.C,C24*%
X96527500Y-91138748D02*
X96527500Y-91661252D01*
X97997500Y-91138748D02*
X97997500Y-91661252D01*
%TO.C,R9*%
X107039406Y-93113530D02*
X107493534Y-93113530D01*
X107039406Y-94583530D02*
X107493534Y-94583530D01*
%TO.C,C1*%
X84502123Y-95078375D02*
X85024627Y-95078375D01*
X84502123Y-96548375D02*
X85024627Y-96548375D01*
%TO.C,R20*%
X97989564Y-110702500D02*
X97535436Y-110702500D01*
X97989564Y-112172500D02*
X97535436Y-112172500D01*
%TO.C,D4*%
X82182500Y-114607500D02*
X82182500Y-119807500D01*
X82242500Y-114607500D02*
X82182500Y-114607500D01*
X82242500Y-114607500D02*
X82242500Y-117207500D01*
X82242500Y-117207500D02*
X84842500Y-117207500D01*
X83512500Y-114607500D02*
X84842500Y-114607500D01*
X84842500Y-114607500D02*
X84842500Y-115937500D01*
X84842500Y-117207500D02*
X84842500Y-119807500D01*
X84842500Y-119807500D02*
X82182500Y-119807500D01*
%TO.C,C23*%
X99027500Y-91138748D02*
X99027500Y-91661252D01*
X100497500Y-91138748D02*
X100497500Y-91661252D01*
%TO.C,C5*%
X120777722Y-95613530D02*
X120255218Y-95613530D01*
X120777722Y-97083530D02*
X120255218Y-97083530D01*
%TO.C,R18*%
X101527500Y-114414564D02*
X101527500Y-113960436D01*
X102997500Y-114414564D02*
X102997500Y-113960436D01*
%TO.C,J1*%
X95543375Y-72756625D02*
X96043375Y-73256625D01*
X95543375Y-73756625D02*
X95543375Y-72756625D01*
X96043375Y-73256625D02*
X95543375Y-73756625D01*
X96238375Y-65846625D02*
X96238375Y-73456625D01*
X96238375Y-81816625D02*
X96238375Y-76256625D01*
X96283375Y-65846625D02*
X112923375Y-65846625D01*
X96283375Y-81816625D02*
X112968375Y-81816625D01*
X112968375Y-65846625D02*
X112968375Y-73456625D01*
X112968375Y-81816625D02*
X112968375Y-76256625D01*
%TO.C,R10*%
X109781470Y-100325594D02*
X109781470Y-99871466D01*
X111251470Y-100325594D02*
X111251470Y-99871466D01*
%TO.C,R14*%
X87777064Y-124990000D02*
X87322936Y-124990000D01*
X87777064Y-126460000D02*
X87322936Y-126460000D01*
%TO.C,D2*%
X71695000Y-85385000D02*
X71695000Y-79875000D01*
X71695000Y-85385000D02*
X74995000Y-85385000D01*
X74995000Y-85385000D02*
X74995000Y-79875000D01*
%TO.C,U2*%
X89602500Y-116717500D02*
X87652500Y-116717500D01*
X89602500Y-116717500D02*
X91552500Y-116717500D01*
X89602500Y-121837500D02*
X87652500Y-121837500D01*
X89602500Y-121837500D02*
X91552500Y-121837500D01*
X86902500Y-116812500D02*
X86662500Y-116482500D01*
X87142500Y-116482500D01*
X86902500Y-116812500D01*
G36*
X86902500Y-116812500D02*
G01*
X86662500Y-116482500D01*
X87142500Y-116482500D01*
X86902500Y-116812500D01*
G37*
%TO.C,R3*%
X75777939Y-100328375D02*
X75323811Y-100328375D01*
X75777939Y-101798375D02*
X75323811Y-101798375D01*
%TO.C,R4*%
X107281470Y-114371466D02*
X107281470Y-114825594D01*
X108751470Y-114371466D02*
X108751470Y-114825594D01*
%TO.C,C20*%
X103777500Y-113888748D02*
X103777500Y-114411252D01*
X105247500Y-113888748D02*
X105247500Y-114411252D01*
%TO.C,C8*%
X113505218Y-100651030D02*
X114027722Y-100651030D01*
X113505218Y-102121030D02*
X114027722Y-102121030D01*
%TO.C,R6*%
X118531470Y-99871466D02*
X118531470Y-100325594D01*
X120001470Y-99871466D02*
X120001470Y-100325594D01*
%TO.C,C7*%
X109906470Y-106837278D02*
X109906470Y-107359782D01*
X111376470Y-106837278D02*
X111376470Y-107359782D01*
%TO.C,C21*%
X94027500Y-106411252D02*
X94027500Y-105888748D01*
X95497500Y-106411252D02*
X95497500Y-105888748D01*
D12*
%TO.C,U4*%
X100312500Y-98637500D02*
X97212500Y-98637500D01*
X100312500Y-101737500D02*
X97212500Y-101737500D01*
D13*
X102447500Y-101632500D02*
G75*
G02*
X102247500Y-101632500I-100000J0D01*
G01*
X102247500Y-101632500D02*
G75*
G02*
X102447500Y-101632500I100000J0D01*
G01*
D11*
%TO.C,L3*%
X109606470Y-94746466D02*
X109606470Y-95950594D01*
X111426470Y-94746466D02*
X111426470Y-95950594D01*
%TO.C,U1*%
X112156470Y-107498530D02*
X112156470Y-106698530D01*
X112156470Y-107498530D02*
X112156470Y-108298530D01*
X115376470Y-108498530D02*
X115376470Y-106698530D01*
X112206470Y-108798530D02*
X111876470Y-109038530D01*
X111876470Y-108558530D01*
X112206470Y-108798530D01*
G36*
X112206470Y-108798530D02*
G01*
X111876470Y-109038530D01*
X111876470Y-108558530D01*
X112206470Y-108798530D01*
G37*
%TO.C,R2*%
X85027939Y-101828375D02*
X84573811Y-101828375D01*
X85027939Y-103298375D02*
X84573811Y-103298375D01*
%TO.C,C19*%
X96561252Y-118702500D02*
X96038748Y-118702500D01*
X96561252Y-120172500D02*
X96038748Y-120172500D01*
%TO.C,R25*%
X100027500Y-106164564D02*
X100027500Y-105710436D01*
X101497500Y-106164564D02*
X101497500Y-105710436D01*
%TO.C,J2*%
X59400000Y-87300000D02*
X73900000Y-87300000D01*
X59400000Y-96500000D02*
X59400000Y-87300000D01*
X68000000Y-96500000D02*
X59400000Y-96500000D01*
X73900000Y-87300000D02*
X73900000Y-89300000D01*
X73900000Y-94500000D02*
X73900000Y-96500000D01*
X73900000Y-96500000D02*
X72600000Y-96500000D01*
X74200000Y-87000000D02*
X72900000Y-87000000D01*
X74200000Y-88700000D02*
X74200000Y-87000000D01*
%TO.C,C11*%
X68910000Y-81275000D02*
X68910000Y-85185000D01*
X68910000Y-85185000D02*
X70780000Y-85185000D01*
X70780000Y-85185000D02*
X70780000Y-81275000D01*
%TO.C,R7*%
X120743534Y-93363530D02*
X120289406Y-93363530D01*
X120743534Y-94833530D02*
X120289406Y-94833530D01*
%TO.C,R11*%
X89360000Y-79004564D02*
X89360000Y-78550436D01*
X90830000Y-79004564D02*
X90830000Y-78550436D01*
%TO.C,C13*%
X86860000Y-83286252D02*
X86860000Y-82763748D01*
X88330000Y-83286252D02*
X88330000Y-82763748D01*
%TO.C,RV1*%
X109616470Y-115948530D02*
X109616470Y-116648530D01*
X109616470Y-116648530D02*
X110316470Y-116648530D01*
X109816470Y-112148530D02*
X110416470Y-112148530D01*
X109816470Y-115048530D02*
X109816470Y-112148530D01*
X111216470Y-116148530D02*
X111616470Y-116148530D01*
X113016470Y-112148530D02*
X112416470Y-112148530D01*
X113016470Y-115048530D02*
X113016470Y-112148530D01*
%TO.C,C3*%
X80312127Y-100328375D02*
X79789623Y-100328375D01*
X80312127Y-101798375D02*
X79789623Y-101798375D01*
%TO.C,C18*%
X100561252Y-121202500D02*
X100038748Y-121202500D01*
X100561252Y-122672500D02*
X100038748Y-122672500D01*
%TO.C,R13*%
X91989564Y-122702500D02*
X91535436Y-122702500D01*
X91989564Y-124172500D02*
X91535436Y-124172500D01*
%TO.C,R21*%
X99065000Y-95627064D02*
X99065000Y-95172936D01*
X100535000Y-95627064D02*
X100535000Y-95172936D01*
%TO.C,C4*%
X116152722Y-110576030D02*
X115630218Y-110576030D01*
X116152722Y-112046030D02*
X115630218Y-112046030D01*
%TO.C,R12*%
X85027500Y-111460436D02*
X85027500Y-111914564D01*
X86497500Y-111460436D02*
X86497500Y-111914564D01*
%TO.C,L1*%
X80152939Y-94403375D02*
X78948811Y-94403375D01*
X80152939Y-96223375D02*
X78948811Y-96223375D01*
%TO.C,C17*%
X92527500Y-113926248D02*
X92527500Y-114448752D01*
X93997500Y-113926248D02*
X93997500Y-114448752D01*
%TO.C,R15*%
X90239564Y-114452500D02*
X89785436Y-114452500D01*
X90239564Y-115922500D02*
X89785436Y-115922500D01*
%TO.C,R26*%
X112026311Y-85931625D02*
X112480439Y-85931625D01*
X112026311Y-87401625D02*
X112480439Y-87401625D01*
%TO.C,U5*%
X81063375Y-97178375D02*
X79063375Y-97178375D01*
X81063375Y-99448375D02*
X79063375Y-99448375D01*
X81613375Y-99643375D02*
X81613375Y-99363375D01*
X81893375Y-99363375D01*
X81613375Y-99643375D01*
G36*
X81613375Y-99643375D02*
G01*
X81613375Y-99363375D01*
X81893375Y-99363375D01*
X81613375Y-99643375D01*
G37*
%TO.C,C6*%
X107206470Y-105803530D02*
X107206470Y-109713530D01*
X107206470Y-109713530D02*
X109076470Y-109713530D01*
X109076470Y-109713530D02*
X109076470Y-105803530D01*
%TO.C,L2*%
X116106470Y-95950594D02*
X116106470Y-94746466D01*
X117926470Y-95950594D02*
X117926470Y-94746466D01*
%TO.C,U3*%
X96127500Y-106075000D02*
X96127500Y-104575000D01*
X96127500Y-106075000D02*
X96127500Y-107575000D01*
X99347500Y-106075000D02*
X99347500Y-104575000D01*
X99347500Y-106075000D02*
X99347500Y-107575000D01*
X96302500Y-108287500D02*
X95972500Y-108527500D01*
X95972500Y-108047500D01*
X96302500Y-108287500D01*
G36*
X96302500Y-108287500D02*
G01*
X95972500Y-108527500D01*
X95972500Y-108047500D01*
X96302500Y-108287500D01*
G37*
%TO.C,C10*%
X107531470Y-100359782D02*
X107531470Y-99837278D01*
X109001470Y-100359782D02*
X109001470Y-99837278D01*
%TO.C,C15*%
X87773752Y-122702500D02*
X87251248Y-122702500D01*
X87773752Y-124172500D02*
X87251248Y-124172500D01*
%TO.C,R22*%
X96527500Y-95664564D02*
X96527500Y-95210436D01*
X97997500Y-95664564D02*
X97997500Y-95210436D01*
%TO.C,D1*%
X73690875Y-102603375D02*
X73690875Y-104523375D01*
X73690875Y-104523375D02*
X76550875Y-104523375D01*
X76550875Y-102603375D02*
X73690875Y-102603375D01*
%TO.C,C14*%
X82350000Y-109815000D02*
X82350000Y-113725000D01*
X82350000Y-113725000D02*
X84220000Y-113725000D01*
X84220000Y-113725000D02*
X84220000Y-109815000D01*
%TO.C,R24*%
X98276311Y-85931625D02*
X98730439Y-85931625D01*
X98276311Y-87401625D02*
X98730439Y-87401625D01*
%TO.C,R5*%
X116281470Y-100325594D02*
X116281470Y-99871466D01*
X117751470Y-100325594D02*
X117751470Y-99871466D01*
%TO.C,F1*%
X76490000Y-89502064D02*
X76490000Y-88297936D01*
X78310000Y-89502064D02*
X78310000Y-88297936D01*
%TO.C,C9*%
X107005218Y-95401030D02*
X107527722Y-95401030D01*
X107005218Y-96871030D02*
X107527722Y-96871030D01*
%TO.C,R27*%
X112026311Y-83681625D02*
X112480439Y-83681625D01*
X112026311Y-85151625D02*
X112480439Y-85151625D01*
%TO.C,U6*%
X76170000Y-76000000D02*
X76170000Y-82420000D01*
X76170000Y-82420000D02*
X76440000Y-82420000D01*
X83070000Y-76000000D02*
X83070000Y-82420000D01*
X83070000Y-82420000D02*
X82800000Y-82420000D01*
X76480000Y-83840000D02*
X76150000Y-84080000D01*
X76150000Y-83600000D01*
X76480000Y-83840000D01*
G36*
X76480000Y-83840000D02*
G01*
X76150000Y-84080000D01*
X76150000Y-83600000D01*
X76480000Y-83840000D01*
G37*
%TO.C,R16*%
X96072936Y-121165000D02*
X96527064Y-121165000D01*
X96072936Y-122635000D02*
X96527064Y-122635000D01*
%TO.C,C16*%
X89751248Y-111990000D02*
X90273752Y-111990000D01*
X89751248Y-113460000D02*
X90273752Y-113460000D01*
%TO.C,C22*%
X91501248Y-99202500D02*
X92023752Y-99202500D01*
X91501248Y-100672500D02*
X92023752Y-100672500D01*
%TO.C,D3*%
X89135000Y-81190000D02*
X89135000Y-84050000D01*
X91055000Y-81190000D02*
X89135000Y-81190000D01*
X91055000Y-84050000D02*
X91055000Y-81190000D01*
%TO.C,C12*%
X83910000Y-81175000D02*
X83910000Y-85085000D01*
X83910000Y-85085000D02*
X85780000Y-85085000D01*
X85780000Y-85085000D02*
X85780000Y-81175000D01*
%TO.C,R1*%
X84573811Y-99578375D02*
X85027939Y-99578375D01*
X84573811Y-101048375D02*
X85027939Y-101048375D01*
%TO.C,R17*%
X101527500Y-118664564D02*
X101527500Y-118210436D01*
X102997500Y-118664564D02*
X102997500Y-118210436D01*
%TO.C,C2*%
X84577123Y-97328375D02*
X85099627Y-97328375D01*
X84577123Y-98798375D02*
X85099627Y-98798375D01*
%TO.C,R19*%
X99027500Y-118664564D02*
X99027500Y-118210436D01*
X100497500Y-118664564D02*
X100497500Y-118210436D01*
%TD*%
%LPC*%
D14*
%TO.C,R23*%
X97503375Y-84416625D03*
X99503375Y-84416625D03*
%TD*%
D15*
%TO.C,LD1*%
X113766470Y-96623530D03*
D16*
X113766470Y-94083530D03*
%TD*%
D17*
%TO.C,R8*%
X114766470Y-90848530D03*
X112766470Y-90848530D03*
%TD*%
D18*
%TO.C,C24*%
X97262500Y-90362500D03*
X97262500Y-92437500D03*
%TD*%
D14*
%TO.C,R9*%
X106266470Y-93848530D03*
X108266470Y-93848530D03*
%TD*%
D19*
%TO.C,C1*%
X83725875Y-95813375D03*
X85800875Y-95813375D03*
%TD*%
D17*
%TO.C,R20*%
X98762500Y-111437500D03*
X96762500Y-111437500D03*
%TD*%
D15*
%TO.C,D4*%
X83512500Y-115937500D03*
D16*
X83512500Y-118477500D03*
%TD*%
D18*
%TO.C,C23*%
X99762500Y-90362500D03*
X99762500Y-92437500D03*
%TD*%
D20*
%TO.C,C5*%
X121553970Y-96348530D03*
X119478970Y-96348530D03*
%TD*%
D21*
%TO.C,R18*%
X102262500Y-115187500D03*
X102262500Y-113187500D03*
%TD*%
D22*
%TO.C,J1*%
X98253375Y-71416625D03*
X110953375Y-71416625D03*
D23*
X101043375Y-73956625D03*
D24*
X102059375Y-75736625D03*
X103075375Y-73956625D03*
X104091375Y-75736625D03*
X105107375Y-73956625D03*
X106123375Y-75736625D03*
X107139375Y-73956625D03*
X108155375Y-75736625D03*
D25*
X96473375Y-74846625D03*
X112733375Y-74846625D03*
%TD*%
D21*
%TO.C,R10*%
X110516470Y-101098530D03*
X110516470Y-99098530D03*
%TD*%
D17*
%TO.C,R14*%
X88550000Y-125725000D03*
X86550000Y-125725000D03*
%TD*%
D26*
%TO.C,D2*%
X73345000Y-83875000D03*
X73345000Y-79875000D03*
%TD*%
D27*
%TO.C,U2*%
X87127500Y-117372500D03*
X87127500Y-118642500D03*
X87127500Y-119912500D03*
X87127500Y-121182500D03*
X92077500Y-121182500D03*
X92077500Y-119912500D03*
X92077500Y-118642500D03*
X92077500Y-117372500D03*
%TD*%
D17*
%TO.C,R3*%
X76550875Y-101063375D03*
X74550875Y-101063375D03*
%TD*%
D28*
%TO.C,R4*%
X108016470Y-113598530D03*
X108016470Y-115598530D03*
%TD*%
D18*
%TO.C,C20*%
X104512500Y-113112500D03*
X104512500Y-115187500D03*
%TD*%
D19*
%TO.C,C8*%
X112728970Y-101386030D03*
X114803970Y-101386030D03*
%TD*%
D28*
%TO.C,R6*%
X119266470Y-99098530D03*
X119266470Y-101098530D03*
%TD*%
D18*
%TO.C,C7*%
X110641470Y-106061030D03*
X110641470Y-108136030D03*
%TD*%
D29*
%TO.C,C21*%
X94762500Y-107187500D03*
X94762500Y-105112500D03*
%TD*%
D30*
%TO.C,U4*%
X100927500Y-101162500D03*
X100927500Y-100512500D03*
X100927500Y-99862500D03*
X100927500Y-99212500D03*
X96597500Y-99212500D03*
X96597500Y-99862500D03*
X96597500Y-100512500D03*
X96597500Y-101162500D03*
%TD*%
D31*
%TO.C,L3*%
X110516470Y-93861030D03*
X110516470Y-96836030D03*
%TD*%
D32*
%TO.C,U1*%
X112816470Y-108948530D03*
X113766470Y-108948530D03*
X114716470Y-108948530D03*
X114716470Y-106248530D03*
X112816470Y-106248530D03*
%TD*%
D17*
%TO.C,R2*%
X85800875Y-102563375D03*
X83800875Y-102563375D03*
%TD*%
D20*
%TO.C,C19*%
X97337500Y-119437500D03*
X95262500Y-119437500D03*
%TD*%
D21*
%TO.C,R25*%
X100762500Y-106937500D03*
X100762500Y-104937500D03*
%TD*%
D33*
%TO.C,J2*%
X73200000Y-91900000D03*
D34*
X66900000Y-91900000D03*
D35*
X70300000Y-96700000D03*
%TD*%
D36*
%TO.C,C11*%
X69845000Y-84225000D03*
X69845000Y-81525000D03*
%TD*%
D17*
%TO.C,R7*%
X121516470Y-94098530D03*
X119516470Y-94098530D03*
%TD*%
D21*
%TO.C,R11*%
X90095000Y-79777500D03*
X90095000Y-77777500D03*
%TD*%
D29*
%TO.C,C13*%
X87595000Y-84062500D03*
X87595000Y-81987500D03*
%TD*%
D37*
%TO.C,RV1*%
X110416470Y-115848530D03*
D38*
X111416470Y-112598530D03*
D37*
X112416470Y-115848530D03*
%TD*%
D20*
%TO.C,C3*%
X81088375Y-101063375D03*
X79013375Y-101063375D03*
%TD*%
%TO.C,C18*%
X101337500Y-121937500D03*
X99262500Y-121937500D03*
%TD*%
D17*
%TO.C,R13*%
X92762500Y-123437500D03*
X90762500Y-123437500D03*
%TD*%
D21*
%TO.C,R21*%
X99800000Y-96400000D03*
X99800000Y-94400000D03*
%TD*%
D20*
%TO.C,C4*%
X116928970Y-111311030D03*
X114853970Y-111311030D03*
%TD*%
D28*
%TO.C,R12*%
X85762500Y-110687500D03*
X85762500Y-112687500D03*
%TD*%
D39*
%TO.C,L1*%
X81038375Y-95313375D03*
X78063375Y-95313375D03*
%TD*%
D18*
%TO.C,C17*%
X93262500Y-113150000D03*
X93262500Y-115225000D03*
%TD*%
D17*
%TO.C,R15*%
X91012500Y-115187500D03*
X89012500Y-115187500D03*
%TD*%
D14*
%TO.C,R26*%
X111253375Y-86666625D03*
X113253375Y-86666625D03*
%TD*%
D40*
%TO.C,U5*%
X81050875Y-99063375D03*
X81050875Y-98563375D03*
X81050875Y-98063375D03*
X81050875Y-97563375D03*
X79075875Y-97563375D03*
X79075875Y-98063375D03*
X79075875Y-98563375D03*
X79075875Y-99063375D03*
D41*
X80063375Y-98313375D03*
%TD*%
D36*
%TO.C,C6*%
X108141470Y-108753530D03*
X108141470Y-106053530D03*
%TD*%
D42*
%TO.C,L2*%
X117016470Y-96836030D03*
X117016470Y-93861030D03*
%TD*%
D43*
%TO.C,U3*%
X96762500Y-108187500D03*
X97412500Y-108187500D03*
X98062500Y-108187500D03*
X98712500Y-108187500D03*
X98712500Y-103962500D03*
X98062500Y-103962500D03*
X97412500Y-103962500D03*
X96762500Y-103962500D03*
%TD*%
D29*
%TO.C,C10*%
X108266470Y-101136030D03*
X108266470Y-99061030D03*
%TD*%
D20*
%TO.C,C15*%
X88550000Y-123437500D03*
X86475000Y-123437500D03*
%TD*%
D21*
%TO.C,R22*%
X97262500Y-96437500D03*
X97262500Y-94437500D03*
%TD*%
D44*
%TO.C,D1*%
X74525875Y-103563375D03*
X76575875Y-103563375D03*
%TD*%
D36*
%TO.C,C14*%
X83285000Y-112765000D03*
X83285000Y-110065000D03*
%TD*%
D14*
%TO.C,R24*%
X97503375Y-86666625D03*
X99503375Y-86666625D03*
%TD*%
D21*
%TO.C,R5*%
X117016470Y-101098530D03*
X117016470Y-99098530D03*
%TD*%
D45*
%TO.C,F1*%
X77400000Y-90300000D03*
X77400000Y-87500000D03*
%TD*%
D19*
%TO.C,C9*%
X106228970Y-96136030D03*
X108303970Y-96136030D03*
%TD*%
D14*
%TO.C,R27*%
X111253375Y-84416625D03*
X113253375Y-84416625D03*
%TD*%
D46*
%TO.C,U6*%
X77340000Y-84150000D03*
D47*
X79620000Y-77850000D03*
D46*
X81900000Y-84150000D03*
%TD*%
D14*
%TO.C,R16*%
X95300000Y-121900000D03*
X97300000Y-121900000D03*
%TD*%
D19*
%TO.C,C16*%
X88975000Y-112725000D03*
X91050000Y-112725000D03*
%TD*%
%TO.C,C22*%
X90725000Y-99937500D03*
X92800000Y-99937500D03*
%TD*%
D48*
%TO.C,D3*%
X90095000Y-82025000D03*
X90095000Y-84075000D03*
%TD*%
D36*
%TO.C,C12*%
X84845000Y-84125000D03*
X84845000Y-81425000D03*
%TD*%
D14*
%TO.C,R1*%
X83800875Y-100313375D03*
X85800875Y-100313375D03*
%TD*%
D21*
%TO.C,R17*%
X102262500Y-119437500D03*
X102262500Y-117437500D03*
%TD*%
D19*
%TO.C,C2*%
X83800875Y-98063375D03*
X85875875Y-98063375D03*
%TD*%
D21*
%TO.C,R19*%
X99762500Y-119437500D03*
X99762500Y-117437500D03*
%TD*%
%LPD*%
M02*
