%TF.GenerationSoftware,KiCad,Pcbnew,8.0.0*%
%TF.CreationDate,2024-10-07T21:47:18+03:00*%
%TF.ProjectId,laser_com_v1,6c617365-725f-4636-9f6d-5f76312e6b69,rev?*%
%TF.SameCoordinates,Original*%
%TF.FileFunction,Copper,L2,Bot*%
%TF.FilePolarity,Positive*%
%FSLAX46Y46*%
G04 Gerber Fmt 4.6, Leading zero omitted, Abs format (unit mm)*
G04 Created by KiCad (PCBNEW 8.0.0) date 2024-10-07 21:47:18*
%MOMM*%
%LPD*%
G01*
G04 APERTURE LIST*
%TA.AperFunction,ComponentPad*%
%ADD10R,1.700000X1.700000*%
%TD*%
%TA.AperFunction,ComponentPad*%
%ADD11O,1.700000X1.700000*%
%TD*%
%TA.AperFunction,ComponentPad*%
%ADD12R,1.500000X1.500000*%
%TD*%
%TA.AperFunction,ComponentPad*%
%ADD13C,1.500000*%
%TD*%
%TA.AperFunction,ComponentPad*%
%ADD14C,2.300000*%
%TD*%
%TA.AperFunction,ComponentPad*%
%ADD15R,2.000000X4.600000*%
%TD*%
%TA.AperFunction,ComponentPad*%
%ADD16O,2.000000X4.200000*%
%TD*%
%TA.AperFunction,ComponentPad*%
%ADD17O,4.200000X2.000000*%
%TD*%
%TA.AperFunction,ViaPad*%
%ADD18C,4.200000*%
%TD*%
%TA.AperFunction,ViaPad*%
%ADD19C,1.600000*%
%TD*%
%TA.AperFunction,Conductor*%
%ADD20C,0.400000*%
%TD*%
%TA.AperFunction,Conductor*%
%ADD21C,0.300000*%
%TD*%
G04 APERTURE END LIST*
D10*
%TO.P,LD1,1,K*%
%TO.N,Net-(LD1-K)*%
X113766470Y-96623530D03*
D11*
%TO.P,LD1,2,A*%
%TO.N,Net-(LD1-A)*%
X113766470Y-94083530D03*
%TD*%
D10*
%TO.P,D4,1,K*%
%TO.N,Net-(D4-K)*%
X83512500Y-115937500D03*
D11*
%TO.P,D4,2,A*%
%TO.N,Net-(D4-A)*%
X83512500Y-118477500D03*
%TD*%
D12*
%TO.P,J1,1*%
%TO.N,/TX+*%
X101043375Y-73956625D03*
D13*
%TO.P,J1,2*%
%TO.N,/TX-*%
X102059375Y-75736625D03*
%TO.P,J1,3*%
%TO.N,/RX+*%
X103075375Y-73956625D03*
%TO.P,J1,4*%
%TO.N,unconnected-(J1-Pad4)*%
X104091375Y-75736625D03*
%TO.P,J1,5*%
%TO.N,unconnected-(J1-Pad5)*%
X105107375Y-73956625D03*
%TO.P,J1,6*%
%TO.N,/RX-*%
X106123375Y-75736625D03*
%TO.P,J1,7*%
%TO.N,unconnected-(J1-Pad7)*%
X107139375Y-73956625D03*
%TO.P,J1,8*%
%TO.N,unconnected-(J1-Pad8)*%
X108155375Y-75736625D03*
D14*
%TO.P,J1,SH*%
%TO.N,GND*%
X96473375Y-74846625D03*
X112733375Y-74846625D03*
%TD*%
D15*
%TO.P,J2,1*%
%TO.N,Net-(F1-Pad1)*%
X73200000Y-91900000D03*
D16*
%TO.P,J2,2*%
%TO.N,GND*%
X66900000Y-91900000D03*
D17*
%TO.P,J2,3*%
X70300000Y-96700000D03*
%TD*%
D18*
%TO.N,GND*%
X122000000Y-125000000D03*
X69000000Y-72000000D03*
D19*
X78900000Y-107700000D03*
X108000000Y-123700000D03*
D18*
X122000000Y-72000000D03*
X69000000Y-125000000D03*
D19*
X118400000Y-88100000D03*
X89500000Y-107000000D03*
X105900000Y-90700000D03*
X104700000Y-121100000D03*
X104900000Y-104800000D03*
X118800000Y-107400000D03*
%TO.N,/LASER DRIVER/+5V*%
X94300000Y-103200000D03*
X100700000Y-102800000D03*
X96600000Y-126500000D03*
X96900000Y-114000000D03*
%TO.N,/TX+*%
X102200000Y-85000000D03*
X101200000Y-88500000D03*
%TO.N,/RX+*%
X110000000Y-89200000D03*
X108700000Y-84400000D03*
%TO.N,Net-(U5-FB)*%
X79650000Y-92900000D03*
X87800875Y-102563375D03*
%TD*%
D20*
%TO.N,GND*%
X79600000Y-107000000D02*
X89500000Y-107000000D01*
X115800000Y-90700000D02*
X118400000Y-88100000D01*
X78900000Y-107700000D02*
X79600000Y-107000000D01*
X107500000Y-107400000D02*
X118800000Y-107400000D01*
X105900000Y-90700000D02*
X115800000Y-90700000D01*
X104700000Y-121100000D02*
X105400000Y-121100000D01*
X105400000Y-121100000D02*
X108000000Y-123700000D01*
X104900000Y-104800000D02*
X107500000Y-107400000D01*
%TO.N,/LASER DRIVER/+5V*%
X94700000Y-102800000D02*
X94300000Y-103200000D01*
X96900000Y-114000000D02*
X96500000Y-114400000D01*
X96500000Y-114400000D02*
X96500000Y-126400000D01*
X96500000Y-126400000D02*
X96600000Y-126500000D01*
X100700000Y-102800000D02*
X94700000Y-102800000D01*
D21*
%TO.N,/TX+*%
X101200000Y-86000000D02*
X102200000Y-85000000D01*
X101200000Y-88500000D02*
X101200000Y-86000000D01*
%TO.N,/RX+*%
X110000000Y-85700000D02*
X108700000Y-84400000D01*
X110000000Y-89200000D02*
X110000000Y-85700000D01*
%TO.N,Net-(U5-FB)*%
X83137500Y-92900000D02*
X87800875Y-97563375D01*
X79650000Y-92900000D02*
X83137500Y-92900000D01*
X87800875Y-97563375D02*
X87800875Y-102563375D01*
%TD*%
M02*
