%TF.GenerationSoftware,KiCad,Pcbnew,8.0.0*%
%TF.CreationDate,2024-10-07T21:47:18+03:00*%
%TF.ProjectId,laser_com_v1,6c617365-725f-4636-9f6d-5f76312e6b69,rev?*%
%TF.SameCoordinates,Original*%
%TF.FileFunction,Other,Comment*%
%FSLAX46Y46*%
G04 Gerber Fmt 4.6, Leading zero omitted, Abs format (unit mm)*
G04 Created by KiCad (PCBNEW 8.0.0) date 2024-10-07 21:47:18*
%MOMM*%
%LPD*%
G01*
G04 APERTURE LIST*
%ADD10C,0.020000*%
G04 APERTURE END LIST*
D10*
X110293330Y-114948529D02*
X110443330Y-114912815D01*
X110443330Y-114912815D02*
X110336188Y-114884243D01*
X110336188Y-114884243D02*
X110443330Y-114855672D01*
X110443330Y-114855672D02*
X110293330Y-114819958D01*
X110443330Y-114762814D02*
X110343330Y-114762814D01*
X110293330Y-114762814D02*
X110300473Y-114769957D01*
X110300473Y-114769957D02*
X110307616Y-114762814D01*
X110307616Y-114762814D02*
X110300473Y-114755671D01*
X110300473Y-114755671D02*
X110293330Y-114762814D01*
X110293330Y-114762814D02*
X110307616Y-114762814D01*
X110343330Y-114691385D02*
X110493330Y-114691385D01*
X110350473Y-114691385D02*
X110343330Y-114677100D01*
X110343330Y-114677100D02*
X110343330Y-114648528D01*
X110343330Y-114648528D02*
X110350473Y-114634242D01*
X110350473Y-114634242D02*
X110357616Y-114627100D01*
X110357616Y-114627100D02*
X110371902Y-114619957D01*
X110371902Y-114619957D02*
X110414759Y-114619957D01*
X110414759Y-114619957D02*
X110429045Y-114627100D01*
X110429045Y-114627100D02*
X110436188Y-114634242D01*
X110436188Y-114634242D02*
X110443330Y-114648528D01*
X110443330Y-114648528D02*
X110443330Y-114677100D01*
X110443330Y-114677100D02*
X110436188Y-114691385D01*
X110436188Y-114498528D02*
X110443330Y-114512814D01*
X110443330Y-114512814D02*
X110443330Y-114541386D01*
X110443330Y-114541386D02*
X110436188Y-114555671D01*
X110436188Y-114555671D02*
X110421902Y-114562814D01*
X110421902Y-114562814D02*
X110364759Y-114562814D01*
X110364759Y-114562814D02*
X110350473Y-114555671D01*
X110350473Y-114555671D02*
X110343330Y-114541386D01*
X110343330Y-114541386D02*
X110343330Y-114512814D01*
X110343330Y-114512814D02*
X110350473Y-114498528D01*
X110350473Y-114498528D02*
X110364759Y-114491386D01*
X110364759Y-114491386D02*
X110379045Y-114491386D01*
X110379045Y-114491386D02*
X110393330Y-114562814D01*
X110443330Y-114427100D02*
X110343330Y-114427100D01*
X110371902Y-114427100D02*
X110357616Y-114419957D01*
X110357616Y-114419957D02*
X110350473Y-114412815D01*
X110350473Y-114412815D02*
X110343330Y-114398529D01*
X110343330Y-114398529D02*
X110343330Y-114384243D01*
X110443330Y-114219957D02*
X110343330Y-114219957D01*
X110357616Y-114219957D02*
X110350473Y-114212814D01*
X110350473Y-114212814D02*
X110343330Y-114198529D01*
X110343330Y-114198529D02*
X110343330Y-114177100D01*
X110343330Y-114177100D02*
X110350473Y-114162814D01*
X110350473Y-114162814D02*
X110364759Y-114155672D01*
X110364759Y-114155672D02*
X110443330Y-114155672D01*
X110364759Y-114155672D02*
X110350473Y-114148529D01*
X110350473Y-114148529D02*
X110343330Y-114134243D01*
X110343330Y-114134243D02*
X110343330Y-114112814D01*
X110343330Y-114112814D02*
X110350473Y-114098529D01*
X110350473Y-114098529D02*
X110364759Y-114091386D01*
X110364759Y-114091386D02*
X110443330Y-114091386D01*
X110443330Y-113955672D02*
X110364759Y-113955672D01*
X110364759Y-113955672D02*
X110350473Y-113962814D01*
X110350473Y-113962814D02*
X110343330Y-113977100D01*
X110343330Y-113977100D02*
X110343330Y-114005672D01*
X110343330Y-114005672D02*
X110350473Y-114019957D01*
X110436188Y-113955672D02*
X110443330Y-113969957D01*
X110443330Y-113969957D02*
X110443330Y-114005672D01*
X110443330Y-114005672D02*
X110436188Y-114019957D01*
X110436188Y-114019957D02*
X110421902Y-114027100D01*
X110421902Y-114027100D02*
X110407616Y-114027100D01*
X110407616Y-114027100D02*
X110393330Y-114019957D01*
X110393330Y-114019957D02*
X110386188Y-114005672D01*
X110386188Y-114005672D02*
X110386188Y-113969957D01*
X110386188Y-113969957D02*
X110379045Y-113955672D01*
X110343330Y-113898529D02*
X110443330Y-113862815D01*
X110343330Y-113827100D02*
X110443330Y-113862815D01*
X110443330Y-113862815D02*
X110479045Y-113877100D01*
X110479045Y-113877100D02*
X110486188Y-113884243D01*
X110486188Y-113884243D02*
X110493330Y-113898529D01*
X110443330Y-113655671D02*
X110293330Y-113655671D01*
X110350473Y-113655671D02*
X110343330Y-113641386D01*
X110343330Y-113641386D02*
X110343330Y-113612814D01*
X110343330Y-113612814D02*
X110350473Y-113598528D01*
X110350473Y-113598528D02*
X110357616Y-113591386D01*
X110357616Y-113591386D02*
X110371902Y-113584243D01*
X110371902Y-113584243D02*
X110414759Y-113584243D01*
X110414759Y-113584243D02*
X110429045Y-113591386D01*
X110429045Y-113591386D02*
X110436188Y-113598528D01*
X110436188Y-113598528D02*
X110443330Y-113612814D01*
X110443330Y-113612814D02*
X110443330Y-113641386D01*
X110443330Y-113641386D02*
X110436188Y-113655671D01*
X110436188Y-113462814D02*
X110443330Y-113477100D01*
X110443330Y-113477100D02*
X110443330Y-113505672D01*
X110443330Y-113505672D02*
X110436188Y-113519957D01*
X110436188Y-113519957D02*
X110421902Y-113527100D01*
X110421902Y-113527100D02*
X110364759Y-113527100D01*
X110364759Y-113527100D02*
X110350473Y-113519957D01*
X110350473Y-113519957D02*
X110343330Y-113505672D01*
X110343330Y-113505672D02*
X110343330Y-113477100D01*
X110343330Y-113477100D02*
X110350473Y-113462814D01*
X110350473Y-113462814D02*
X110364759Y-113455672D01*
X110364759Y-113455672D02*
X110379045Y-113455672D01*
X110379045Y-113455672D02*
X110393330Y-113527100D01*
X110684822Y-114998529D02*
X110606251Y-114998529D01*
X110606251Y-114998529D02*
X110591965Y-115005671D01*
X110591965Y-115005671D02*
X110584822Y-115019957D01*
X110584822Y-115019957D02*
X110584822Y-115048529D01*
X110584822Y-115048529D02*
X110591965Y-115062814D01*
X110677680Y-114998529D02*
X110684822Y-115012814D01*
X110684822Y-115012814D02*
X110684822Y-115048529D01*
X110684822Y-115048529D02*
X110677680Y-115062814D01*
X110677680Y-115062814D02*
X110663394Y-115069957D01*
X110663394Y-115069957D02*
X110649108Y-115069957D01*
X110649108Y-115069957D02*
X110634822Y-115062814D01*
X110634822Y-115062814D02*
X110627680Y-115048529D01*
X110627680Y-115048529D02*
X110627680Y-115012814D01*
X110627680Y-115012814D02*
X110620537Y-114998529D01*
X110584822Y-114927100D02*
X110684822Y-114927100D01*
X110599108Y-114927100D02*
X110591965Y-114919957D01*
X110591965Y-114919957D02*
X110584822Y-114905672D01*
X110584822Y-114905672D02*
X110584822Y-114884243D01*
X110584822Y-114884243D02*
X110591965Y-114869957D01*
X110591965Y-114869957D02*
X110606251Y-114862815D01*
X110606251Y-114862815D02*
X110684822Y-114862815D01*
X110584822Y-114805672D02*
X110684822Y-114769958D01*
X110584822Y-114734243D02*
X110684822Y-114769958D01*
X110684822Y-114769958D02*
X110720537Y-114784243D01*
X110720537Y-114784243D02*
X110727680Y-114791386D01*
X110727680Y-114791386D02*
X110734822Y-114805672D01*
X110584822Y-114691386D02*
X110684822Y-114662815D01*
X110684822Y-114662815D02*
X110613394Y-114634243D01*
X110613394Y-114634243D02*
X110684822Y-114605672D01*
X110684822Y-114605672D02*
X110584822Y-114577100D01*
X110684822Y-114519957D02*
X110534822Y-114519957D01*
X110684822Y-114455672D02*
X110606251Y-114455672D01*
X110606251Y-114455672D02*
X110591965Y-114462814D01*
X110591965Y-114462814D02*
X110584822Y-114477100D01*
X110584822Y-114477100D02*
X110584822Y-114498529D01*
X110584822Y-114498529D02*
X110591965Y-114512814D01*
X110591965Y-114512814D02*
X110599108Y-114519957D01*
X110677680Y-114327100D02*
X110684822Y-114341386D01*
X110684822Y-114341386D02*
X110684822Y-114369958D01*
X110684822Y-114369958D02*
X110677680Y-114384243D01*
X110677680Y-114384243D02*
X110663394Y-114391386D01*
X110663394Y-114391386D02*
X110606251Y-114391386D01*
X110606251Y-114391386D02*
X110591965Y-114384243D01*
X110591965Y-114384243D02*
X110584822Y-114369958D01*
X110584822Y-114369958D02*
X110584822Y-114341386D01*
X110584822Y-114341386D02*
X110591965Y-114327100D01*
X110591965Y-114327100D02*
X110606251Y-114319958D01*
X110606251Y-114319958D02*
X110620537Y-114319958D01*
X110620537Y-114319958D02*
X110634822Y-114391386D01*
X110684822Y-114255672D02*
X110584822Y-114255672D01*
X110613394Y-114255672D02*
X110599108Y-114248529D01*
X110599108Y-114248529D02*
X110591965Y-114241387D01*
X110591965Y-114241387D02*
X110584822Y-114227101D01*
X110584822Y-114227101D02*
X110584822Y-114212815D01*
X110677680Y-114105672D02*
X110684822Y-114119958D01*
X110684822Y-114119958D02*
X110684822Y-114148530D01*
X110684822Y-114148530D02*
X110677680Y-114162815D01*
X110677680Y-114162815D02*
X110663394Y-114169958D01*
X110663394Y-114169958D02*
X110606251Y-114169958D01*
X110606251Y-114169958D02*
X110591965Y-114162815D01*
X110591965Y-114162815D02*
X110584822Y-114148530D01*
X110584822Y-114148530D02*
X110584822Y-114119958D01*
X110584822Y-114119958D02*
X110591965Y-114105672D01*
X110591965Y-114105672D02*
X110606251Y-114098530D01*
X110606251Y-114098530D02*
X110620537Y-114098530D01*
X110620537Y-114098530D02*
X110634822Y-114169958D01*
X110584822Y-113934244D02*
X110684822Y-113905673D01*
X110684822Y-113905673D02*
X110613394Y-113877101D01*
X110613394Y-113877101D02*
X110684822Y-113848530D01*
X110684822Y-113848530D02*
X110584822Y-113819958D01*
X110684822Y-113762815D02*
X110584822Y-113762815D01*
X110534822Y-113762815D02*
X110541965Y-113769958D01*
X110541965Y-113769958D02*
X110549108Y-113762815D01*
X110549108Y-113762815D02*
X110541965Y-113755672D01*
X110541965Y-113755672D02*
X110534822Y-113762815D01*
X110534822Y-113762815D02*
X110549108Y-113762815D01*
X110584822Y-113712815D02*
X110584822Y-113655672D01*
X110534822Y-113691386D02*
X110663394Y-113691386D01*
X110663394Y-113691386D02*
X110677680Y-113684243D01*
X110677680Y-113684243D02*
X110684822Y-113669958D01*
X110684822Y-113669958D02*
X110684822Y-113655672D01*
X110684822Y-113605672D02*
X110534822Y-113605672D01*
X110684822Y-113541387D02*
X110606251Y-113541387D01*
X110606251Y-113541387D02*
X110591965Y-113548529D01*
X110591965Y-113548529D02*
X110584822Y-113562815D01*
X110584822Y-113562815D02*
X110584822Y-113584244D01*
X110584822Y-113584244D02*
X110591965Y-113598529D01*
X110591965Y-113598529D02*
X110599108Y-113605672D01*
X110684822Y-113469958D02*
X110584822Y-113469958D01*
X110534822Y-113469958D02*
X110541965Y-113477101D01*
X110541965Y-113477101D02*
X110549108Y-113469958D01*
X110549108Y-113469958D02*
X110541965Y-113462815D01*
X110541965Y-113462815D02*
X110534822Y-113469958D01*
X110534822Y-113469958D02*
X110549108Y-113469958D01*
X110584822Y-113398529D02*
X110684822Y-113398529D01*
X110599108Y-113398529D02*
X110591965Y-113391386D01*
X110591965Y-113391386D02*
X110584822Y-113377101D01*
X110584822Y-113377101D02*
X110584822Y-113355672D01*
X110584822Y-113355672D02*
X110591965Y-113341386D01*
X110591965Y-113341386D02*
X110606251Y-113334244D01*
X110606251Y-113334244D02*
X110684822Y-113334244D01*
X110919172Y-114812815D02*
X110926314Y-114827100D01*
X110926314Y-114827100D02*
X110926314Y-114855672D01*
X110926314Y-114855672D02*
X110919172Y-114869957D01*
X110919172Y-114869957D02*
X110912029Y-114877100D01*
X110912029Y-114877100D02*
X110897743Y-114884243D01*
X110897743Y-114884243D02*
X110854886Y-114884243D01*
X110854886Y-114884243D02*
X110840600Y-114877100D01*
X110840600Y-114877100D02*
X110833457Y-114869957D01*
X110833457Y-114869957D02*
X110826314Y-114855672D01*
X110826314Y-114855672D02*
X110826314Y-114827100D01*
X110826314Y-114827100D02*
X110833457Y-114812815D01*
X110926314Y-114748529D02*
X110826314Y-114748529D01*
X110776314Y-114748529D02*
X110783457Y-114755672D01*
X110783457Y-114755672D02*
X110790600Y-114748529D01*
X110790600Y-114748529D02*
X110783457Y-114741386D01*
X110783457Y-114741386D02*
X110776314Y-114748529D01*
X110776314Y-114748529D02*
X110790600Y-114748529D01*
X110926314Y-114677100D02*
X110826314Y-114677100D01*
X110854886Y-114677100D02*
X110840600Y-114669957D01*
X110840600Y-114669957D02*
X110833457Y-114662815D01*
X110833457Y-114662815D02*
X110826314Y-114648529D01*
X110826314Y-114648529D02*
X110826314Y-114634243D01*
X110919172Y-114519958D02*
X110926314Y-114534243D01*
X110926314Y-114534243D02*
X110926314Y-114562815D01*
X110926314Y-114562815D02*
X110919172Y-114577100D01*
X110919172Y-114577100D02*
X110912029Y-114584243D01*
X110912029Y-114584243D02*
X110897743Y-114591386D01*
X110897743Y-114591386D02*
X110854886Y-114591386D01*
X110854886Y-114591386D02*
X110840600Y-114584243D01*
X110840600Y-114584243D02*
X110833457Y-114577100D01*
X110833457Y-114577100D02*
X110826314Y-114562815D01*
X110826314Y-114562815D02*
X110826314Y-114534243D01*
X110826314Y-114534243D02*
X110833457Y-114519958D01*
X110926314Y-114434244D02*
X110919172Y-114448529D01*
X110919172Y-114448529D02*
X110904886Y-114455672D01*
X110904886Y-114455672D02*
X110776314Y-114455672D01*
X110919172Y-114319958D02*
X110926314Y-114334244D01*
X110926314Y-114334244D02*
X110926314Y-114362816D01*
X110926314Y-114362816D02*
X110919172Y-114377101D01*
X110919172Y-114377101D02*
X110904886Y-114384244D01*
X110904886Y-114384244D02*
X110847743Y-114384244D01*
X110847743Y-114384244D02*
X110833457Y-114377101D01*
X110833457Y-114377101D02*
X110826314Y-114362816D01*
X110826314Y-114362816D02*
X110826314Y-114334244D01*
X110826314Y-114334244D02*
X110833457Y-114319958D01*
X110833457Y-114319958D02*
X110847743Y-114312816D01*
X110847743Y-114312816D02*
X110862029Y-114312816D01*
X110862029Y-114312816D02*
X110876314Y-114384244D01*
X110919172Y-114141387D02*
X110926314Y-114127101D01*
X110926314Y-114127101D02*
X110926314Y-114098530D01*
X110926314Y-114098530D02*
X110919172Y-114084244D01*
X110919172Y-114084244D02*
X110904886Y-114077101D01*
X110904886Y-114077101D02*
X110897743Y-114077101D01*
X110897743Y-114077101D02*
X110883457Y-114084244D01*
X110883457Y-114084244D02*
X110876314Y-114098530D01*
X110876314Y-114098530D02*
X110876314Y-114119959D01*
X110876314Y-114119959D02*
X110869172Y-114134244D01*
X110869172Y-114134244D02*
X110854886Y-114141387D01*
X110854886Y-114141387D02*
X110847743Y-114141387D01*
X110847743Y-114141387D02*
X110833457Y-114134244D01*
X110833457Y-114134244D02*
X110826314Y-114119959D01*
X110826314Y-114119959D02*
X110826314Y-114098530D01*
X110826314Y-114098530D02*
X110833457Y-114084244D01*
X110926314Y-114012815D02*
X110776314Y-114012815D01*
X110926314Y-113948530D02*
X110847743Y-113948530D01*
X110847743Y-113948530D02*
X110833457Y-113955672D01*
X110833457Y-113955672D02*
X110826314Y-113969958D01*
X110826314Y-113969958D02*
X110826314Y-113991387D01*
X110826314Y-113991387D02*
X110833457Y-114005672D01*
X110833457Y-114005672D02*
X110840600Y-114012815D01*
X110926314Y-113855673D02*
X110919172Y-113869958D01*
X110919172Y-113869958D02*
X110912029Y-113877101D01*
X110912029Y-113877101D02*
X110897743Y-113884244D01*
X110897743Y-113884244D02*
X110854886Y-113884244D01*
X110854886Y-113884244D02*
X110840600Y-113877101D01*
X110840600Y-113877101D02*
X110833457Y-113869958D01*
X110833457Y-113869958D02*
X110826314Y-113855673D01*
X110826314Y-113855673D02*
X110826314Y-113834244D01*
X110826314Y-113834244D02*
X110833457Y-113819958D01*
X110833457Y-113819958D02*
X110840600Y-113812816D01*
X110840600Y-113812816D02*
X110854886Y-113805673D01*
X110854886Y-113805673D02*
X110897743Y-113805673D01*
X110897743Y-113805673D02*
X110912029Y-113812816D01*
X110912029Y-113812816D02*
X110919172Y-113819958D01*
X110919172Y-113819958D02*
X110926314Y-113834244D01*
X110926314Y-113834244D02*
X110926314Y-113855673D01*
X110826314Y-113755673D02*
X110926314Y-113727102D01*
X110926314Y-113727102D02*
X110854886Y-113698530D01*
X110854886Y-113698530D02*
X110926314Y-113669959D01*
X110926314Y-113669959D02*
X110826314Y-113641387D01*
X110826314Y-113584244D02*
X110926314Y-113584244D01*
X110840600Y-113584244D02*
X110833457Y-113577101D01*
X110833457Y-113577101D02*
X110826314Y-113562816D01*
X110826314Y-113562816D02*
X110826314Y-113541387D01*
X110826314Y-113541387D02*
X110833457Y-113527101D01*
X110833457Y-113527101D02*
X110847743Y-113519959D01*
X110847743Y-113519959D02*
X110926314Y-113519959D01*
M02*
